<?xml version="1.0" standalone="no"?>
<!DOCTYPE svg PUBLIC "-//W3C//DTD SVG 1.1//EN" "http://www.w3.org/Graphics/SVG/1.1/DTD/svg11.dtd" >
<svg xmlns="http://www.w3.org/2000/svg">
<metadata>
Created by FontPrep 20130207 at Sun May 24 17:11:06 2015
 By Jakob Steinn
Digitized data copyright (c) 2012-2014, The Mozilla Foundation and Telefonica S.A.
</metadata>
<defs>
<font id="9456d1cc0626332b448f6f4ca181a90c" horiz-adv-x='1024' >
  <font-face 
    font-family="FiraMono-Regular"
    font-weight="400"
    font-stretch="normal"
    units-per-em="2048"
    panose-1="0 0 5 0 0 0 0 0 0 0"
    ascent="1608"
    descent="-440"
    x-height="1077"
    cap-height="1409"
    bbox="-578 -1024 2441 2150"
    underline-thickness="102"
    underline-position="-102"
    unicode-range="U+000D-1F310"
  />
<missing-glyph 
d="M578 98q-32 0 -52 22t-20 53q0 32 20 52q20 21 52 21t51 -20q20 -20 20 -53q0 -31 -20 -53t-51 -22zM629 354q1 -23 -15 -36t-36 -13t-36 13q-15 13 -16 36v172q109 6 148 40t39 110t-27 112t-92 37q-65 0 -96 -14t-43 -14q-49 0 -49 47q0 39 60 59t130 21
q227 0 227 -236q1 -213 -194 -242v-92zM934 2044h-637v-2962h637v2962zM1044 2150v-3174h-860v3174h860z" />
    <glyph glyph-name=".notdef" 
d="M578 98q-32 0 -52 22t-20 53q0 32 20 52q20 21 52 21t51 -20q20 -20 20 -53q0 -31 -20 -53t-51 -22zM629 354q1 -23 -15 -36t-36 -13t-36 13q-15 13 -16 36v172q109 6 148 40t39 110t-27 112t-92 37q-65 0 -96 -14t-43 -14q-49 0 -49 47q0 39 60 59t130 21
q227 0 227 -236q1 -213 -194 -242v-92zM934 2044h-637v-2962h637v2962zM1044 2150v-3174h-860v3174h860z" />
    <glyph glyph-name=".null" horiz-adv-x="0" 
 />
    <glyph glyph-name="nonmarkingreturn" horiz-adv-x="681" 
 />
    <glyph glyph-name="CR" unicode="&#xd;" 
 />
    <glyph glyph-name="space" unicode=" " 
 />
    <glyph glyph-name="exclam" unicode="!" 
d="M612 250q58 0 98 -40t40 -96t-39 -96t-97 -41q-58 0 -98 39q-39 38 -39 96t39 98t96 40zM688 465h-153l-21 944h191z" />
    <glyph glyph-name="quotedbl" unicode="&#x22;" 
d="M678 1513h215l-33 -532h-149zM336 1513h215l-33 -532h-149z" />
    <glyph glyph-name="numbersign" unicode="#" 
d="M733 479l62 455h-301l-60 -455h299zM1044 479v-131h-186l-43 -348h-145l45 348h-299l-45 -348h-146l47 348h-163v131h180l61 455h-166v133h185l45 342h145l-49 -342h303l45 342h146l-50 -342h166v-133h-182l-61 -455h167z" />
    <glyph glyph-name="dollar" unicode="$" 
d="M709 645v-514q207 43 206 254q1 89 -45 151t-161 109zM569 864v420q-193 -35 -192 -201q-1 -74 41 -124t151 -95zM569 692q-374 124 -374 385q0 135 97 235t277 118v307h140v-307q217 -23 374 -164l-104 -109q-115 109 -270 131v-469q391 -126 391 -432q0 -153 -102 -265
t-289 -136v-299h-140v293q-248 16 -428 192l103 113q145 -147 325 -162v569z" />
    <glyph glyph-name="percent" unicode="%" 
d="M893 524q-66 0 -106 -51q-39 -51 -39 -151t40 -157q40 -56 106 -56q64 0 102 52t38 158q0 205 -141 205zM590 319q0 137 82 233t220 95q138 0 219 -95q81 -94 81 -232t-81 -235t-219 -97t-220 97t-82 234zM340 1311q-63 -1 -103 -53t-40 -152t40 -156q41 -56 105 -57
q64 0 102 53t39 158q0 207 -143 207zM39 1104q0 138 82 234t220 96t219 -96t81 -233q0 -139 -81 -235t-219 -96t-220 96t-82 234zM1145 1376l-973 -1417l-106 72l970 1417z" />
    <glyph glyph-name="ampersand" unicode="&#x26;" 
d="M836 725h-256q-148 0 -226 -97t-78 -221t74 -208t236 -84t250 108v502zM184 1094q0 142 106 240t294 98t329 -154l-102 -92q-109 117 -229 117q-120 -1 -174 -57q-56 -56 -56 -151t74 -166t178 -71h570v-133h-183v-559q-150 -188 -426 -189q-223 0 -339 124t-116 290
t84 267q83 101 238 135v6q-248 57 -248 295z" />
    <glyph glyph-name="quotesingle" unicode="'" 
d="M508 1513h213l-31 -532h-151z" />
    <glyph glyph-name="parenleft" unicode="(" 
d="M516 734q0 -146 20 -262t50 -198q29 -82 85 -176t100 -153t122 -158l-109 -74q-199 240 -270 355q-176 291 -176 637t134 585q106 187 207 305t105 125l109 -73q-98 -125 -151 -200q-158 -227 -200 -439q-26 -128 -26 -274z" />
    <glyph glyph-name="parenright" unicode=")" 
d="M715 1366q176 -289 176 -635t-134 -588q-104 -184 -206 -302q-101 -119 -107 -128l-108 74q78 97 122 157q131 177 193 353q62 175 62 459t-113 499q-61 117 -114 192q-52 75 -150 200l108 73q199 -240 271 -354z" />
    <glyph glyph-name="asterisk" unicode="*" 
d="M670 1194l291 121l51 -162l-303 -68l215 -225l-140 -106l-168 268l-155 -272l-146 96l209 239l-307 68l53 162l287 -121l-29 315h172z" />
    <glyph glyph-name="plus" unicode="+" 
d="M692 709h299v-144h-299v-303h-160v303h-294v144h294v305h160v-305z" />
    <glyph glyph-name="comma" unicode="," 
d="M614 336q70 0 118 -48t48 -120t-41 -154l-166 -381h-153l98 404q-68 51 -68 127t48 124q46 48 116 48z" />
    <glyph glyph-name="hyphen" unicode="-" 
d="M256 715h717v-148h-717v148z" />
    <glyph glyph-name="period" unicode="." 
d="M434 156q0 76 51 128t128 52t128 -52t51 -128t-50 -127q-52 -51 -129 -51t-128 50q-51 52 -51 128z" />
    <glyph glyph-name="slash" unicode="/" 
d="M109 -150l876 1807l135 -66l-874 -1802z" />
    <glyph glyph-name="zero" unicode="0" 
d="M614 840q56 0 96 -39t40 -95t-39 -96t-97 -39q-58 0 -95 39q-38 40 -38 96t38 95t95 39zM614 1294q-282 0 -282 -590t282 -589q282 -1 283 589q0 590 -283 590zM614 1434q225 0 343 -188t118 -540t-118 -540t-343 -188t-343 186q-117 188 -117 542t118 540
q118 188 342 188z" />
    <glyph glyph-name="one" unicode="1" 
d="M1059 139v-139h-813v139h348v1086l-324 -195l-73 121l417 258h150v-1270h295z" />
    <glyph glyph-name="two" unicode="2" 
d="M551 1434q195 0 309 -111t115 -292q0 -181 -136 -369t-495 -517h664l-21 -145h-837v139q401 385 524 554t123 341q0 119 -67 188q-67 68 -176 68t-177 -34t-137 -115l-119 90q168 203 430 203z" />
    <glyph glyph-name="three" unicode="3" 
d="M551 1434q193 0 313 -102t119 -240q0 -136 -80 -227t-196 -113q135 -10 228 -100t93 -260t-137 -292t-352 -123q-281 0 -433 187l115 94q119 -141 314 -141q147 0 231 78t84 211q0 268 -293 268h-119l21 135h84q111 0 189 63q78 62 79 180q0 118 -76 181t-192 63
q-160 0 -299 -131l-92 105q170 164 399 164z" />
    <glyph glyph-name="four" unicode="4" 
d="M1081 344h-182v-344h-166v344h-586v123l416 967l142 -62l-377 -893h407l15 402h149v-402h182v-135z" />
    <glyph glyph-name="five" unicode="5" 
d="M414 1274v-447q113 61 243 62q177 0 281 -117t104 -328t-129 -339t-355 -128t-398 168l104 103q129 -131 305 -131q141 0 218 85t77 249q0 303 -254 303q-96 0 -221 -47h-137v702h745l-26 -135h-557z" />
    <glyph glyph-name="six" unicode="6" 
d="M620 115q142 0 210 93t69 261q0 309 -250 309q-197 0 -313 -200q4 -242 74 -352q68 -110 210 -111zM674 918q174 0 287 -114t113 -335t-128 -356q-127 -135 -315 -136q-467 0 -467 689q0 354 138 561t384 207q154 0 279 -84l-66 -115q-100 59 -215 59q-162 0 -254 -152
t-96 -415q127 191 340 191z" />
    <glyph glyph-name="seven" unicode="7" 
d="M201 1268v141h833v-129l-563 -1298l-158 47l549 1239h-661z" />
    <glyph glyph-name="eight" unicode="8" 
d="M915 368q0 108 -51 158q-32 30 -54 50t-79 45t-88 35t-108 38q-221 -100 -222 -319q0 -123 76 -192t220 -69t226 73q80 73 80 181zM360 1063q0 -59 18 -100q33 -73 161 -119q43 -16 133 -45q104 59 150 117t46 159t-66 163q-67 62 -188 62q-122 0 -188 -62t-66 -175z
M1036 1075q0 -100 -60 -176t-183 -143q141 -60 221 -156t80 -221q0 -176 -132 -289t-352 -113t-347 113q-128 113 -128 285q0 238 283 368q-115 53 -170 130t-55 195t68 205q128 161 353 161q170 0 296 -92t126 -267z" />
    <glyph glyph-name="nine" unicode="9" 
d="M592 1292q-279 0 -279 -322t258 -317q180 2 306 195q2 244 -66 344t-219 100zM608 1432q213 0 328 -144t115 -401q0 -344 -111 -545q-98 -178 -357 -289q-114 -49 -282 -96l-39 129q301 82 455 221t155 385q-49 -76 -135 -124t-196 -50q-178 -4 -291 119t-113 336
t129 336t342 123z" />
    <glyph glyph-name="colon" unicode=":" 
d="M778 142q0 -68 -47 -116t-118 -48t-117 46q-46 47 -47 117q0 70 47 118q46 48 116 48t118 -48t48 -117zM612 715q-70 0 -116 49t-47 118q0 68 47 116q46 48 116 48t118 -48t48 -116t-48 -118q-48 -49 -118 -49z" />
    <glyph glyph-name="semicolon" unicode=";" 
d="M612 338q70 0 118 -48t48 -119t-39 -157l-168 -383h-155l98 406q-66 49 -66 127t48 126q46 48 116 48zM612 1047q70 -1 118 -49t48 -116t-48 -118q-48 -49 -118 -49t-116 49t-47 118q1 69 47 117t116 48z" />
    <glyph glyph-name="less" unicode="&#x3c;" 
d="M1051 1085l-725 -444l725 -448l-93 -125l-778 487v174l787 488z" />
    <glyph glyph-name="equal" unicode="=" 
d="M1012 369h-795v147h795v-147zM1012 758h-795v147h795v-147z" />
    <glyph glyph-name="greater" unicode="&#x3e;" 
d="M1051 729v-174l-779 -487l-92 127l725 446l-725 446l84 130z" />
    <glyph glyph-name="question" unicode="?" 
d="M567 250q57 0 97 -40t41 -96q0 -56 -39 -96q-40 -40 -98 -41q-58 0 -97 39q-39 38 -39 96t39 98t96 40zM612 1434q180 0 292 -96t112 -222q0 -76 -28 -135t-68 -93t-88 -72t-89 -70t-69 -87t-27 -124v-70h-172v80q0 92 38 162q38 69 91 113q52 44 106 83q130 94 130 203
q0 86 -68 135t-176 49q-168 0 -291 -149l-121 90q172 203 428 203z" />
    <glyph glyph-name="at" unicode="@" 
d="M471 778q-137 0 -191 -97t-55 -304q0 -342 164 -342q102 0 147 62t66 118v533q-59 30 -131 30zM369 -94q-308 0 -308 494q-1 240 103 371q104 132 299 132q145 0 287 -76v-604q0 -154 38 -212t96 -58t86 42q46 68 52 335q2 82 2 230t-9 245q-21 224 -120 352
q-99 127 -311 127q-252 0 -465 -188l-101 112q261 226 564 226q154 0 268 -50t178 -129q170 -202 170 -642q0 -441 -61 -620t-238 -179q-117 0 -180 99t-62 193h-8q-82 -201 -280 -200z" />
    <glyph glyph-name="A" unicode="A" 
d="M844 506l-234 756l-235 -756h469zM330 360l-115 -360h-172l459 1409h225l459 -1409h-185l-112 360h-559z" />
    <glyph glyph-name="B" unicode="B" 
d="M920 395q0 268 -304 269h-243v-519h235q312 0 312 250zM862 1044q0 223 -276 224h-213v-459h229q260 -1 260 235zM769 20q-89 -20 -194 -20h-376v1409h346q201 0 340 -73q157 -81 157 -281q0 -127 -74 -205t-188 -102q324 -56 324 -352q0 -297 -335 -376z" />
    <glyph glyph-name="C" unicode="C" 
d="M723 1434q246 0 418 -138l-99 -114q-127 104 -308.5 104t-301 -138t-119.5 -439t118 -441.5t305 -140.5t335 119l90 -117q-156 -152 -422 -152t-437 191.5t-171 536t173 537t419 192.5z" />
    <glyph glyph-name="D" unicode="D" 
d="M800 1176q-68 54 -134 72t-152 18h-168v-1125h170q168 1 288 109q140 127 140 470t-144 456zM1130 713q0 -170 -38 -300t-100 -207q-165 -206 -498 -206h-322v1409h299q109 0 197 -15.5t177 -61.5t149.5 -120.5t98 -201.5t37.5 -297z" />
    <glyph glyph-name="E" unicode="E" 
d="M434 788h522v-145h-522v-502h641v-141h-817v1409h799l-21 -143h-602v-478z" />
    <glyph glyph-name="F" unicode="F" 
d="M459 770h553v-141h-553v-629h-174v1409h829l-22 -143h-633v-496z" />
    <glyph glyph-name="G" unicode="G" 
d="M630.5 -23q-243.5 0 -390 185.5t-146.5 538t173 543t417 190.5q131 0 222 -38t179 -118l-106 -111q-125 117 -297 117t-286.5 -138t-114.5 -440t94 -441.5t282 -139.5q147 0 271 68v432h-279l-20 145h473v-672q-228 -121 -471.5 -121z" />
    <glyph glyph-name="H" unicode="H" 
d="M883 672h-537v-672h-174v1409h174v-596h537v596h174v-1409h-174v672z" />
    <glyph glyph-name="I" unicode="I" 
d="M1018 1270h-316v-1129h316v-141h-807v141h315v1129h-315v139h807v-139z" />
    <glyph glyph-name="J" unicode="J" 
d="M1016 1409v-942q0 -192 -100 -332q-52 -74 -149 -117t-230 -43q-217 0 -387 129l77 117q156 -98 304.5 -98t229.5 94t81 260v789h-418v143h592z" />
    <glyph glyph-name="K" unicode="K" 
d="M958 1409h203l-553 -645l592 -764h-219l-580 754zM217 0v1409h174v-1409h-174z" />
    <glyph glyph-name="L" unicode="L" 
d="M279 1409h176v-1251h643l-21 -158h-798v1409z" />
    <glyph glyph-name="M" unicode="M" 
d="M940 1208h-4l-234 -954h-178l-241 954h-9q0 -293 -8 -469l-39 -739h-164l80 1409h246l229 -965l220 965h247l80 -1409h-168l-45 739q-12 233 -12 469z" />
    <glyph glyph-name="N" unicode="N" 
d="M336 709v-709h-164v1409h238l499 -1212h9q-25 295 -25 505v707h164v-1409h-246l-492 1206h-8q25 -319 25 -497z" />
    <glyph glyph-name="O" unicode="O" 
d="M950 704.5q0 288.5 -79.5 434t-256 145.5t-256 -146.5t-79.5 -437.5q0 -575 335 -575q174 0 255 145.5t81 434zM1133 707q0 -332 -134.5 -531t-385.5 -199t-384 195t-133 527.5t134.5 533.5t384 201t384 -197.5t134.5 -529.5z" />
    <glyph glyph-name="P" unicode="P" 
d="M952 975q0 295 -334 295h-204v-604h198q162 0 251 70t89 239zM596 1409q258 -1 402 -109t143 -334q1 -226 -145 -334t-400 -108h-182v-524h-174v1409h356z" />
    <glyph glyph-name="Q" unicode="Q" 
d="M950 705q0 582 -336 581q-338 0 -338 -580t338 -581q174 -1 255 145t81 435zM1133 705q0 -485 -281 -652q141 -29 225 -105t135 -229l-186 -73q-70 174 -164 255t-268 81q-240 0 -370 194t-130 524q0 332 134 533t385 201t385 -198t135 -531z" />
    <glyph glyph-name="R" unicode="R" 
d="M911 1016q0 133 -77.5 193.5t-243.5 60.5h-205v-527h207q319 1 319 273zM1100 1016q0 -154 -95.5 -253t-250.5 -136l420 -627h-211l-385 606h-193v-606h-176v1409h360q531 0 531 -393z" />
    <glyph glyph-name="S" unicode="S" 
d="M1098 389q0 -184 -136.5 -298t-377.5 -114q-309 0 -494 179l105 118q160 -150 393 -149q137 0 232 67.5t95 183t-64.5 175t-269 120.5t-317 151.5t-112.5 249.5t127 260.5t329 101.5q260 0 449 -162l-105 -115q-143 129 -340 129q-123 0 -202.5 -54t-79.5 -150.5
t76.5 -152t276.5 -113.5t307.5 -150.5t107.5 -276.5z" />
    <glyph glyph-name="T" unicode="T" 
d="M698 0h-174v1260h-442v149h1063l-19 -149h-428v-1260z" />
    <glyph glyph-name="U" unicode="U" 
d="M1079 1409v-952q0 -215 -127 -347.5t-341 -132.5t-337.5 131.5t-123.5 348.5v952h174v-960q0 -160 74.5 -240t214.5 -80t215 80t75 240v960h176z" />
    <glyph glyph-name="V" unicode="V" 
d="M1001 1409h177l-473 -1409h-181l-473 1409h189l378 -1208z" />
    <glyph glyph-name="W" unicode="W" 
d="M1004 0h-232l-158 1034h-8l-160 -1034h-237l-199 1409h176l146 -1198h8l168 1034h217l156 -1026h8l168 1190h162z" />
    <glyph glyph-name="X" unicode="X" 
d="M303 1409l311 -543l312 543h190l-401 -647l450 -762h-202l-353 639l-358 -639h-189l445 752l-406 657h201z" />
    <glyph glyph-name="Y" unicode="Y" 
d="M702 0h-176v543l-477 866h195l374 -707l379 707h183l-478 -864v-545z" />
    <glyph glyph-name="Z" unicode="Z" 
d="M147 0v143l746 1117h-672v149h860v-143l-741 -1114h739l-20 -152h-912z" />
    <glyph glyph-name="bracketleft" unicode="[" 
d="M377 1669h471v-145h-309v-1616h309v-144h-471v1905z" />
    <glyph glyph-name="backslash" unicode="\" 
d="M244 1657l876 -1807l-137 -61l-874 1802z" />
    <glyph glyph-name="bracketright" unicode="]" 
d="M852 -236h-471v144h309v1616h-309v145h471v-1905z" />
    <glyph glyph-name="asciicircum" unicode="^" 
d="M1077 1079h-186l-279 488l-278 -488h-182l387 639h151z" />
    <glyph glyph-name="underscore" unicode="_" 
d="M-14 -223h1257v-148h-1257v148z" />
    <glyph glyph-name="grave" unicode="`" 
d="M379 1464l90 148l379 -240l-55 -94z" />
    <glyph glyph-name="a" unicode="a" 
d="M532 106q80 0 153 40t120 114v279h-156q-326 0 -325 -228q-1 -205 208 -205zM977 754v-521q0 -61 20.5 -91.5t67.5 -45.5l-41 -121q-154 20 -197 154q-117 -152 -338 -152q-162 0 -255 90.5t-93 248.5t130 248.5t376 90.5h158v90q0 213 -256 213q-129 0 -281 -53l-45 127
q187 70 367 70t283.5 -92t103.5 -256z" />
    <glyph glyph-name="b" unicode="b" 
d="M623 115q281 0 281 425t-257 425q-154 0 -270 -174v-537q92 -139 246 -139zM684 1102q406 0 406 -561q0 -254 -113 -409t-309 -155t-299 136l-13 -113h-149v1513l170 21v-596q123 164 307 164z" />
    <glyph glyph-name="c" unicode="c" 
d="M696.5 123q149.5 0 278.5 102l82 -119q-70 -59 -169.5 -94t-195.5 -35q-238 0 -371 151t-133 404t135.5 411.5t355.5 158.5t376 -127l-86 -117q-133 100 -277.5 100t-231.5 -108.5t-87 -315t87 -309t236.5 -102.5z" />
    <glyph glyph-name="d" unicode="d" 
d="M606 965q-280 0 -280 -425t260 -425q156 0 266 170v540q-92 140 -246 140zM1022 0h-150l-16 141q-118 -164 -314 -164t-299 150t-103 405q0 254 113 412q114 158 301 158t298 -129v561l170 -21v-1513z" />
    <glyph glyph-name="e" unicode="e" 
d="M631 961q-125 0 -203 -89.5t-88 -261.5h565q-2 172 -75.5 261.5t-198.5 89.5zM670.5 119q148.5 0 273.5 100l80 -117q-162 -125 -382 -125t-350 153t-130 404t128 409.5t336 158.5t325.5 -142.5t117.5 -388.5q0 -47 -4 -92h-725q6 -180 94 -270t236.5 -90z" />
    <glyph glyph-name="f" unicode="f" 
d="M834 1534q162 0 301 -59l-56 -127q-100 47 -231 47q-227 0 -227 -181v-219h366l-18 -135h-348v-860h-170v860h-258v135h258v215q0 145 110 235q111 89 273 89z" />
    <glyph glyph-name="g" unicode="g" 
d="M590 977q-125 0 -190 -68q-64 -69 -64 -183t66 -182t186 -69q121 0 181 67t60 187q1 248 -239 248zM385 276q0 -90 143 -90h195q161 0 271 -84t110 -208q0 -158 -134 -243t-383 -85t-350 78t-102 247h154q0 -100 62 -143t237 -43q344 0 344 178q0 74 -69 115t-175 41
h-192q-133 0 -203 58t-70 145q0 111 119 188q-180 92 -180 297q0 166 120 270q120 105 308 105t284 20t207 70l54 -162q-106 -31 -316 -31q189 -86 189 -260t-109 -276t-297 -103q-90 0 -162 23q-55 -41 -55 -107z" />
    <glyph glyph-name="h" unicode="h" 
d="M854 780q0 187 -181 187q-91 0 -170 -54.5t-126 -126.5v-786h-170v1509l170 21v-600q61 82 153.5 127t190.5 45q303 0 303 -320v-782h-170v780z" />
    <glyph glyph-name="i" unicode="i" 
d="M752 135h303v-135h-807v135h334v809h-324v133h494v-942zM614.5 1583q55.5 0 90 -35t34.5 -87t-34.5 -86t-90 -34t-89 34t-33.5 86t33.5 87t89 35z" />
    <glyph glyph-name="j" unicode="j" 
d="M911 1077v-907q0 -260 -174 -403.5t-512 -200.5l-28 131q260 43 402 150.5t142 312.5v784h-450v133h620zM751.5 1583q55.5 0 90.5 -35t35 -87t-35 -86t-90.5 -34t-89 34t-33.5 86t33.5 87t89 35z" />
    <glyph glyph-name="k" unicode="k" 
d="M621 592l544 -592h-225l-532 590l479 487h221zM387 0h-170v1513l170 21v-1534z" />
    <glyph glyph-name="l" unicode="l" 
d="M625 1513v-1249q0 -145 178 -145q86 0 182 37l45 -123q-102 -55 -250 -55t-236.5 79.5t-88.5 216.5v1104h-332v135h502z" />
    <glyph glyph-name="m" unicode="m" 
d="M915 1102q209 0 209 -299v-803h-157v774q-1 113 -15 154t-69 41q-104 0 -189 -131v-838h-159v774q-1 113 -15 154t-69 41q-104 0 -189 -131v-838h-158v1077h134l10 -125q106 150 235 150q152 0 195 -144q102 144 237 144z" />
    <glyph glyph-name="n" unicode="n" 
d="M207 1077h145l13 -149q66 82 162 128t194 46q303 0 303 -320v-782h-170v655q0 178 -34 245t-136 67t-181 -53.5t-126 -127.5v-786h-170v1077z" />
    <glyph glyph-name="o" unicode="o" 
d="M614.5 117q280.5 0 280.5 423t-281 423t-280.5 -423t281 -423zM617 1102q222 0 341 -150.5t119 -407.5t-120.5 -412t-343 -155t-342 151t-119.5 409t121.5 411.5t343.5 153.5z" />
    <glyph glyph-name="p" unicode="p" 
d="M647 965q-154 0 -270 -174v-537q88 -135 248 -135q270 0 270 423t-248 423zM688 1102q389 0 389 -561q0 -256 -106 -410q-107 -154 -297 -154t-297 123v-514l-170 -20v1511h143l15 -149q124 174 323 174z" />
    <glyph glyph-name="q" unicode="q" 
d="M604 965q-270 0 -270 -423t250 -423q160 0 268 166v540q-90 140 -248 140zM152 537q0 253 107 409t299 156t304 -141l15 116h145v-1511l-170 20v551q-115 -160 -303 -160q-397 0 -397 560z" />
    <glyph glyph-name="r" unicode="r" 
d="M193 0v135h251v809h-251v133h399l20 -207q47 112 129 172q81 60 169 60t155 -17l-31 -167q-70 18 -125 18q-104 0 -185 -86t-110 -205v-510h304v-135h-725z" />
    <glyph glyph-name="s" unicode="s" 
d="M573 117q123 0 196 47t73 126t-49.5 123t-224 88t-265 109.5t-90.5 198.5t112.5 213t295.5 80q229 0 391 -121l-76 -115q-139 96 -311 97q-236 0 -236 -142q0 -72 57.5 -107.5t231.5 -82.5t261 -120t87 -198t-68 -199q-124 -136 -381.5 -136.5t-424.5 145.5l96 110
q141 -116 325 -116z" />
    <glyph glyph-name="t" unicode="t" 
d="M772 -23q-170 0 -265 89.5t-95 234.5v645h-248v131h248v246l170 20v-266h372l-20 -131h-352v-643q0 -92 49 -138t157.5 -46t206.5 51l66 -117q-119 -76 -289 -76z" />
    <glyph glyph-name="u" unicode="u" 
d="M377 1077v-764q0 -104 44 -152t134 -48t171 50t126 122v792h170v-1077h-145l-15 145q-61 -80 -154.5 -124t-189.5 -44q-154 0 -232.5 82t-78.5 234v784h170z" />
    <glyph glyph-name="v" unicode="v" 
d="M711 0h-197l-389 1077h180l313 -921l310 921h176z" />
    <glyph glyph-name="w" unicode="w" 
d="M762 0l-139 774h-9l-145 -774h-236l-196 1077h174l139 -946h8l164 809h203l154 -805h8l139 942h166l-188 -1077h-242z" />
    <glyph glyph-name="x" unicode="x" 
d="M115 0l399 569l-350 508h201l251 -401l254 401h195l-348 -499l397 -578h-209l-297 463l-299 -463h-194z" />
    <glyph glyph-name="y" unicode="y" 
d="M1102 1077l-379 -1083q-66 -186 -174.5 -297t-304.5 -131l-27 137q158 27 227.5 93.5t116.5 203.5h-57l-377 1077h182l312 -948l305 948h176z" />
    <glyph glyph-name="z" unicode="z" 
d="M211 0v129l598 801h-551v147h756v-131l-596 -801h602l-23 -145h-786z" />
    <glyph glyph-name="braceleft" unicode="{" 
d="M924 1710v-133q-254 0 -254 -164v-422q0 -233 -219 -274q113 -21 165 -83t54 -192v-422q0 -164 254 -163v-133q-194 0 -304 70t-110 247v391q0 217 -207 217v135q207 0 207 215v394q0 317 414 317z" />
    <glyph glyph-name="bar" unicode="|" 
d="M690 -209h-153v1862h153v-1862z" />
    <glyph glyph-name="braceright" unicode="}" 
d="M305 1577v133q414 0 414 -317v-394q0 -215 207 -215v-135q-207 0 -207 -217v-391q0 -176 -111 -247t-303 -70v133q254 0 254 163v422q0 130 53 192t168 81q-111 23 -166 87t-55 189v422q0 164 -254 164z" />
    <glyph glyph-name="asciitilde" unicode="~" 
d="M413 819q77 0 138 -32q61 -33 97 -71q96 -102 167 -102q106 0 203 174l121 -63q-95 -186 -212 -236q-54 -23 -127 -23t-144 52q-71 50 -130 102t-112 52q-109 0 -203 -174l-121 61q37 74 72 123q34 49 104 93t147 44z" />
    <glyph glyph-name="uni00A0" unicode="&#xa0;" 
 />
    <glyph glyph-name="exclamdown" unicode="&#xa1;" 
d="M711 -403h-197l25 938h147zM612 1020q58 0 98 -40t40 -96t-40 -96t-98 -40t-96 40q-39 40 -39 96q0 58 39 97t96 39z" />
    <glyph glyph-name="cent" unicode="&#xa2;" 
d="M764 1399v-307q139 -16 248 -105l-86 -113q-115 84 -245 84t-205 -108t-75 -315q0 -412 287 -412q123 0 240 92l84 -121q-106 -90 -248 -106v-301h-154v301q-190 25 -292 168q-101 142 -101 374t101 382t294 178v309h152z" />
    <glyph glyph-name="sterling" unicode="&#xa3;" 
d="M709 1434q240 0 366 -177l-114 -88q-100 121 -246 121q-223 0 -223 -250v-247h423v-119h-423v-256q0 -201 -127 -273h694l-21 -145h-884v137q112 37 140 97t28 176v264h-168v119h168v264q0 165 104 271t283 106z" />
    <glyph glyph-name="currency" unicode="&#xa4;" 
d="M616 995q-128 1 -196 -77t-68 -218t69 -217t195 -77t195 78q68 78 68 216q0 139 -68 217t-195 78zM618 1133q148 0 248 -68l183 182l110 -110l-178 -181q74 -111 74 -255t-76 -261l180 -178l-110 -110l-187 180q-102 -66 -248 -66t-252 66l-182 -182l-110 110l182 182
q-72 111 -72 257t70 255l-180 185l110 110l182 -184q108 68 256 68z" />
    <glyph glyph-name="yen" unicode="&#xa5;" 
d="M995 707v-119h-290v-176h290v-119h-290v-293h-181v293h-286v119h286v176h-286v119h239l-395 702h192l342 -647h9l342 647h180l-397 -702h245z" />
    <glyph glyph-name="brokenbar" unicode="&#xa6;" 
d="M690 -209h-153v727h153v-727zM690 926h-153v727h153v-727z" />
    <glyph glyph-name="section" unicode="&#xa7;" 
d="M389 683q0 -89 57 -126t295 -123q99 86 99 172t-59 123t-292 125q-100 -82 -100 -171zM262 1136q0 134 112 216t288 82q177 0 329 -111l-82 -117q-131 88 -272 88q-88 0 -142 -40q-55 -40 -55 -108t49 -107q49 -40 212 -95t235 -124t72 -185q0 -158 -164 -258
q123 -92 123 -225t-110 -213q-109 -80 -299 -80t-337 112l82 115q125 -88 279 -88q90 0 147 40t57 108t-49 106q-49 39 -211 94t-236 124q-73 69 -73 187q0 152 166 254q-121 91 -121 225z" />
    <glyph glyph-name="dieresis" unicode="&#xa8;" 
d="M825 1327q-47 0 -78.5 31t-31.5 78t30.5 78.5t78.5 31.5t80 -31.5t32 -78.5t-32 -78t-79 -31zM401.5 1327q-47.5 0 -79 31t-31.5 78t31.5 78.5t79 31.5t79 -31.5t31.5 -77.5t-31.5 -78t-79 -32z" />
    <glyph glyph-name="copyright" unicode="&#xa9;" 
d="M621 1280q137 0 241 -80l-71 -96q-76 61 -162 61t-140 -66q-53 -67 -53 -202t52 -202t146 -67t173 72l65 -98q-109 -96 -253 -96t-236 102t-92 284t96 286q97 102 234 102zM616 1427q-214 -1 -328 -151t-114 -384t115 -382t327 -150q212 0 327 148q114 148 114 382
t-114 386t-327 151zM614 1530q256 0 404 -182t149 -456q0 -274 -148 -454q-147 -182 -403 -182t-406 181t-149 455t149 456t404 182z" />
    <glyph glyph-name="ordfeminine" unicode="&#xaa;" 
d="M1020 0h-803v154h803v-154zM774 1067h-119q-274 0 -274 -159t178 -158q127 0 215 114v203zM600 1534q162 0 248 -75t86 -212v-405q0 -82 67 -103l-36 -110q-131 16 -170 121q-104 -121 -259 -121q-155 1 -241 75t-86 202t118 201t326 73h121v63q0 160 -203 160
q-109 0 -249 -49l-46 119q162 61 324 61z" />
    <glyph glyph-name="guillemotleft" unicode="&#xab;" 
d="M954 115l-362 424v123l362 428l103 -66l-277 -422l277 -422zM528 115l-358 424v123l358 428l103 -66l-277 -422l277 -422z" />
    <glyph glyph-name="logicalnot" unicode="&#xac;" 
d="M991 276h-155v289h-598v146h753v-435z" />
    <glyph glyph-name="softhyphen" unicode="&#xad;" 
d="M295 715h639v-148h-639v148z" />
    <glyph glyph-name="registered" unicode="&#xae;" 
d="M526 1212v-176h66q125 0 125 92q0 84 -129 84h-62zM412 1303h174q250 0 250 -173q0 -125 -138 -163l176 -242h-135l-153 223h-60v-223h-114v578zM613 1434q-175 0 -293 -124t-117 -302q0 -178 118 -300q117 -122 293 -122t293 122t117 300t-118 302t-293 124zM614 1530
q215 0 366 -154q150 -154 150 -368t-150 -367q-150 -152 -366 -152q-214 0 -366 152t-152 367q0 214 152 368t366 154z" />
    <glyph glyph-name="macron" unicode="&#xaf;" 
d="M338 1384v132h551v-132h-551z" />
    <glyph glyph-name="degree" unicode="&#xb0;" 
d="M649 1213q0 97 -53 149t-130 51q-77 0 -130 -51q-53 -52 -53 -148t53 -148t130 -52t130 51t53 148zM467 1534q135 0 232 -87t97 -235t-96 -233q-98 -86 -234 -86t-235 87q-98 87 -98 233t99 234q100 87 235 87z" />
    <glyph glyph-name="plusminus" unicode="&#xb1;" 
d="M991 0h-753v147h753v-147zM696 795h295v-144h-295v-317h-164v317h-294v144h294v305h164v-305z" />
    <glyph glyph-name="twosuperior" unicode="&#xb2;" 
d="M891 1099q0 -97 -73 -164t-273 -167h366l-18 -123h-567v107q268 164 339 220t71 112q-1 108 -119 108t-197 -100l-105 77q123 145 303 146q129 1 201 -59t72 -157z" />
    <glyph glyph-name="threesuperior" unicode="&#xb3;" 
d="M631 1315q123 0 195 -49t71 -133q0 -57 -33 -91t-112 -47q92 -14 133 -49q41 -36 41 -118t-84 -138t-232 -57q-190 0 -309 119l94 77q94 -82 221 -81q156 0 156 96t-147 96h-95l17 88h69q131 0 132 84q0 90 -119 90t-223 -78l-78 84q129 107 303 107z" />
    <glyph glyph-name="acute" unicode="&#xb4;" 
d="M758 1608l90 -146l-412 -184l-57 94z" />
    <glyph glyph-name="uni00B5" unicode="&#xb5;" 
d="M989 1077v-735q0 -166 58 -342l-160 -25q-37 61 -51 175q-47 -78 -127 -126t-162 -48t-127 23q-45 24 -86 81q18 -133 18 -178v-316l-170 -20v1511h170v-604q0 -184 34 -265t149 -81q168 0 284 164v786h170z" />
    <glyph glyph-name="paragraph" unicode="&#xb6;" 
d="M983 1268h-231v-1680l-156 -22v1026q-244 0 -376 115t-132 293t136 293q136 116 384 116h531v-1821l-156 -22v1702z" />
    <glyph glyph-name="periodcentered" unicode="&#xb7;" 
d="M434 699q0 77 51 128t128 51t128 -50q51 -52 51 -129t-50 -128q-52 -51 -129 -51t-128 51t-51 128z" />
    <glyph glyph-name="cedilla" unicode="&#xb8;" 
d="M698 -287q0 51 -44 69t-134 19l19 232h116v-150q93 -8 141 -56t48 -114q0 -96 -72 -148t-188 -52t-203 49l55 98q61 -33 139 -33q123 0 123 86z" />
    <glyph glyph-name="onesuperior" unicode="&#xb9;" 
d="M889 1303v-658h-141v490l-197 -107l-72 100l295 175h115z" />
    <glyph glyph-name="ordmasculine" unicode="&#xba;" 
d="M1018 0h-805v154h805v-154zM614 1403q-116 0 -182 -80t-66 -241q0 -162 66 -242t182 -80q244 0 244 323q0 160 -63 240q-64 80 -181 80zM615 1534q189 0 303 -122t112 -327q0 -205 -114 -331t-303 -125q-189 0 -303 124q-114 123 -114 327t115 329t304 125z" />
    <glyph glyph-name="guillemotright" unicode="&#xbb;" 
d="M657 1024l103 66l362 -428v-123l-362 -424l-103 65l277 422zM104 1024l103 66l360 -428v-123l-360 -424l-103 65l279 422z" />
    <glyph glyph-name="onequarter" unicode="&#xbc;" 
d="M1118 0h-149v115h-365v98l279 465l123 -51l-236 -391h199l12 176h137v-176h113v-121h-113v-115zM29 485l1095 525l62 -109l-1094 -524zM408 1411v-657h-142v489l-196 -106l-72 100l295 174h115z" />
    <glyph glyph-name="onehalf" unicode="&#xbd;" 
d="M1217 454q0 -97 -73 -164t-274 -167h367l-16 -123h-568v106q268 166 339 222t71 110q0 109 -117 109t-201 -101l-104 78q123 145 303 146q129 0 201 -60t72 -156zM20 485l1096 525l62 -109l-1094 -524zM401 1411v-657h-141v489l-197 -106l-71 100l295 174h114z" />
    <glyph glyph-name="threequarters" unicode="&#xbe;" 
d="M1120 0h-147v115h-367v98l279 465l125 -51l-236 -391h199l12 176h135v-176h115v-121h-115v-115zM49 485l1096 525l59 -109l-1093 -524zM324 1423q122 0 194 -49t72 -133q0 -57 -33 -90t-113 -47q92 -14 134 -49t40 -118q0 -83 -84 -139t-231 -57q-190 0 -309 119l94 78
q94 -82 221 -82q156 0 156 96t-148 97h-94l17 88h69q131 0 131 84q0 90 -119 90t-223 -78l-78 84q130 106 304 106z" />
    <glyph glyph-name="questiondown" unicode="&#xbf;" 
d="M756 535v-80q0 -92 -37 -162t-90 -114t-107 -83q-128 -92 -129 -202q0 -86 68 -136t176 -49q168 0 291 150l121 -90q-176 -203 -431 -203q-180 0 -292 95t-111 222q0 76 28 135t68 94q41 34 89 70t89 70q97 78 97 211v72h170zM664 1020q57 0 97 -40t40 -96t-40 -96
t-97 -40t-97 39q-39 39 -39 97t39 97q40 39 97 39z" />
    <glyph glyph-name="Agrave" unicode="&#xc0;" 
d="M844 506l-234 756l-235 -756h469zM330 360l-115 -360h-172l459 1409h225l459 -1409h-185l-112 360h-559zM852 1638l-53 -90l-420 166l94 148z" />
    <glyph glyph-name="Aacute" unicode="&#xc1;" 
d="M844 506l-234 756l-235 -756h469zM330 360l-115 -360h-172l459 1409h225l459 -1409h-185l-112 360h-559zM860 1708l-436 -160l-45 90l405 215z" />
    <glyph glyph-name="Acircumflex" unicode="&#xc2;" 
d="M844 506l-234 756l-235 -756h469zM330 360l-115 -360h-172l459 1409h225l459 -1409h-185l-112 360h-559zM948 1645l-76 -89l-258 166l-256 -166l-77 89l278 219h115z" />
    <glyph glyph-name="Atilde" unicode="&#xc3;" 
d="M844 506l-234 756l-235 -756h469zM330 360l-115 -360h-172l459 1409h225l459 -1409h-185l-112 360h-559zM719 1579q-66 0 -132.5 50t-90.5 50q-53 0 -105 -90l-110 49q76 172 227 172q68 0 133.5 -49t89.5 -49q53 0 105 90l110 -49q-80 -174 -227 -174z" />
    <glyph glyph-name="Adieresis" unicode="&#xc4;" 
d="M844 506l-234 756l-235 -756h469zM330 360l-115 -360h-172l459 1409h225l459 -1409h-185l-112 360h-559zM825 1571q-47 0 -78.5 31.5t-31.5 77.5t30.5 78t78.5 32t80 -32t32 -79t-32 -77.5t-79 -30.5zM401.5 1571q-47.5 0 -79 30.5t-31.5 77.5t31.5 79t79 32t79 -32
t31.5 -78t-31.5 -77.5t-79 -31.5z" />
    <glyph glyph-name="Aring" unicode="&#xc5;" 
d="M844 506l-234 756l-235 -756h469zM330 360l-115 -360h-172l459 1409h225l459 -1409h-185l-112 360h-559zM615 1835q-52 0 -81.5 -30.5t-29.5 -85t29.5 -85t81 -30.5t81 30.5t29.5 84.5t-29 85t-81 31zM614.5 1929q98.5 0 163 -60.5t64.5 -148.5t-64.5 -148.5t-163 -60.5
t-163 60.5t-64.5 148.5t64.5 148.5t163 60.5z" />
    <glyph glyph-name="AE" unicode="&#xc6;" 
d="M643 508l-151 764l-189 -764h340zM1141 786v-143h-355l107 -500h352v-143h-495l-74 360h-420l-100 -360h-181l414 1409h770l-20 -143h-486l107 -480h381z" />
    <glyph glyph-name="Ccedilla" unicode="&#xc7;" 
d="M946 -287q0 -96 -71.5 -148t-188.5 -52t-203 49l56 98q61 -33 139 -33q123 0 123 86q0 51 -44 69.5t-134 18.5l14 185q-227 37 -366.5 224t-139.5 513t173 518.5t419 192.5t418 -138l-99 -114q-127 104 -308.5 104t-301 -138t-119.5 -439t118 -441.5t305 -140.5t335 119
l90 -117q-149 -146 -403 -152v-94q94 -8 141 -56t47 -114z" />
    <glyph glyph-name="Egrave" unicode="&#xc8;" 
d="M434 788h522v-145h-522v-502h641v-141h-817v1409h799l-21 -143h-602v-478zM895 1638l-53 -90l-420 166l94 148z" />
    <glyph glyph-name="Eacute" unicode="&#xc9;" 
d="M434 788h522v-145h-522v-502h641v-141h-817v1409h799l-21 -143h-602v-478zM903 1708l-436 -160l-45 90l405 215z" />
    <glyph glyph-name="Ecircumflex" unicode="&#xca;" 
d="M434 788h522v-145h-522v-502h641v-141h-817v1409h799l-21 -143h-602v-478zM991 1645l-76 -89l-258 166l-256 -166l-77 89l278 219h115z" />
    <glyph glyph-name="Edieresis" unicode="&#xcb;" 
d="M434 788h522v-145h-522v-502h641v-141h-817v1409h799l-21 -143h-602v-478zM867 1571q-48 0 -78.5 31.5t-30.5 77.5t30.5 78t78.5 32t80 -32t32 -79t-32 -77.5t-80 -30.5zM444.5 1571q-47.5 0 -79 30.5t-31.5 77.5t31.5 79t79 32t79 -32t31.5 -78t-31.5 -77.5t-79 -31.5z
" />
    <glyph glyph-name="Igrave" unicode="&#xcc;" 
d="M1018 1270h-316v-1129h316v-141h-807v141h315v1129h-315v139h807v-139zM852 1638l-53 -90l-420 166l94 148z" />
    <glyph glyph-name="Iacute" unicode="&#xcd;" 
d="M1018 1270h-316v-1129h316v-141h-807v141h315v1129h-315v139h807v-139zM860 1708l-436 -160l-45 90l405 215z" />
    <glyph glyph-name="Icircumflex" unicode="&#xce;" 
d="M1018 1270h-316v-1129h316v-141h-807v141h315v1129h-315v139h807v-139zM948 1645l-76 -89l-258 166l-256 -166l-77 89l278 219h115z" />
    <glyph glyph-name="Idieresis" unicode="&#xcf;" 
d="M1018 1270h-316v-1129h316v-141h-807v141h315v1129h-315v139h807v-139zM825 1571q-47 0 -78.5 31.5t-31.5 77.5t30.5 78t78.5 32t80 -32t32 -79t-32 -77.5t-79 -30.5zM401.5 1571q-47.5 0 -79 30.5t-31.5 77.5t31.5 79t79 32t79 -32t31.5 -78t-31.5 -77.5t-79 -31.5z" />
    <glyph glyph-name="Eth" unicode="&#xd0;" 
d="M367 141h170q426 0 426 572q1 349 -143 463q-68 54 -133.5 72t-151.5 18h-168v-475h325v-136h-325v-514zM190 1409h302q109 0 196.5 -15.5t176.5 -61.5t149.5 -120.5t98.5 -201.5t38 -297t-39 -300q-38 -130 -100 -207q-165 -206 -498 -206h-324v655h-149v136h149v618z
" />
    <glyph glyph-name="Ntilde" unicode="&#xd1;" 
d="M336 709v-709h-164v1409h238l499 -1212h9q-25 295 -25 505v707h164v-1409h-246l-492 1206h-8q25 -319 25 -497zM715 1579q-66 0 -132.5 50t-90.5 50q-53 0 -105 -90l-111 49q76 172 228 172q68 0 133 -49t90 -49q53 0 104 90l111 -49q-80 -174 -227 -174z" />
    <glyph glyph-name="Ograve" unicode="&#xd2;" 
d="M950 704.5q0 288.5 -79.5 434t-256 145.5t-256 -146.5t-79.5 -437.5q0 -575 335 -575q174 0 255 145.5t81 434zM1133 707q0 -332 -134.5 -531t-385.5 -199t-384 195t-133 527.5t134.5 533.5t384 201t384 -197.5t134.5 -529.5zM852 1638l-53 -90l-420 166l94 148z" />
    <glyph glyph-name="Oacute" unicode="&#xd3;" 
d="M950 704.5q0 288.5 -79.5 434t-256 145.5t-256 -146.5t-79.5 -437.5q0 -575 335 -575q174 0 255 145.5t81 434zM1133 707q0 -332 -134.5 -531t-385.5 -199t-384 195t-133 527.5t134.5 533.5t384 201t384 -197.5t134.5 -529.5zM860 1708l-436 -160l-45 90l405 215z" />
    <glyph glyph-name="Ocircumflex" unicode="&#xd4;" 
d="M950 704.5q0 288.5 -79.5 434t-256 145.5t-256 -146.5t-79.5 -437.5q0 -575 335 -575q174 0 255 145.5t81 434zM1133 707q0 -332 -134.5 -531t-385.5 -199t-384 195t-133 527.5t134.5 533.5t384 201t384 -197.5t134.5 -529.5zM948 1645l-76 -89l-258 166l-256 -166
l-77 89l278 219h115z" />
    <glyph glyph-name="Otilde" unicode="&#xd5;" 
d="M950 704.5q0 288.5 -79.5 434t-256 145.5t-256 -146.5t-79.5 -437.5q0 -575 335 -575q174 0 255 145.5t81 434zM1133 707q0 -332 -134.5 -531t-385.5 -199t-384 195t-133 527.5t134.5 533.5t384 201t384 -197.5t134.5 -529.5zM719 1579q-66 0 -132.5 50t-90.5 50
q-53 0 -105 -90l-110 49q76 172 227 172q68 0 133.5 -49t89.5 -49q53 0 105 90l110 -49q-80 -174 -227 -174z" />
    <glyph glyph-name="Odieresis" unicode="&#xd6;" 
d="M950 704.5q0 288.5 -79.5 434t-256 145.5t-256 -146.5t-79.5 -437.5q0 -575 335 -575q174 0 255 145.5t81 434zM1133 707q0 -332 -134.5 -531t-385.5 -199t-384 195t-133 527.5t134.5 533.5t384 201t384 -197.5t134.5 -529.5zM825 1571q-47 0 -78.5 31.5t-31.5 77.5
t30.5 78t78.5 32t80 -32t32 -79t-32 -77.5t-79 -30.5zM401.5 1571q-47.5 0 -79 30.5t-31.5 77.5t31.5 79t79 32t79 -32t31.5 -78t-31.5 -77.5t-79 -31.5z" />
    <glyph glyph-name="multiply" unicode="&#xd7;" 
d="M973 881l-252 -252l252 -252l-107 -107l-252 252l-252 -252l-106 107l252 252l-252 252l106 108l252 -254l252 254z" />
    <glyph glyph-name="Oslash" unicode="&#xd8;" 
d="M614 125q174 0 254 145.5t80 434.5q0 387 -123 507l-311 -1075q47 -12 100 -12zM281 700q0 -379 122 -501l310 1073q-43 12 -99 12q-174 0 -253.5 -146.5t-79.5 -437.5zM1133 705q0 -330 -134.5 -529t-384.5 -199q-66 0 -131 17l-65 -219l-152 39l76 245
q-246 174 -246 641q0 332 134.5 533t383.5 201q68 0 134 -17l65 228l154 -39l-80 -254q246 -178 246 -647z" />
    <glyph glyph-name="Ugrave" unicode="&#xd9;" 
d="M1079 1409v-952q0 -215 -127 -347.5t-341 -132.5t-337.5 131.5t-123.5 348.5v952h174v-960q0 -160 74.5 -240t214.5 -80t215 80t75 240v960h176zM852 1638l-53 -90l-420 166l94 148z" />
    <glyph glyph-name="Uacute" unicode="&#xda;" 
d="M1079 1409v-952q0 -215 -127 -347.5t-341 -132.5t-337.5 131.5t-123.5 348.5v952h174v-960q0 -160 74.5 -240t214.5 -80t215 80t75 240v960h176zM860 1708l-436 -160l-45 90l405 215z" />
    <glyph glyph-name="Ucircumflex" unicode="&#xdb;" 
d="M1079 1409v-952q0 -215 -127 -347.5t-341 -132.5t-337.5 131.5t-123.5 348.5v952h174v-960q0 -160 74.5 -240t214.5 -80t215 80t75 240v960h176zM948 1645l-76 -89l-258 166l-256 -166l-77 89l278 219h115z" />
    <glyph glyph-name="Udieresis" unicode="&#xdc;" 
d="M1079 1409v-952q0 -215 -127 -347.5t-341 -132.5t-337.5 131.5t-123.5 348.5v952h174v-960q0 -160 74.5 -240t214.5 -80t215 80t75 240v960h176zM825 1571q-47 0 -78.5 31.5t-31.5 77.5t30.5 78t78.5 32t80 -32t32 -79t-32 -77.5t-79 -30.5zM401.5 1571q-47.5 0 -79 30.5
t-31.5 77.5t31.5 79t79 32t79 -32t31.5 -78t-31.5 -77.5t-79 -31.5z" />
    <glyph glyph-name="Yacute" unicode="&#xdd;" 
d="M702 0h-176v543l-477 866h195l374 -707l379 707h183l-478 -864v-545zM866 1708l-436 -160l-45 90l406 215z" />
    <glyph glyph-name="Thorn" unicode="&#xde;" 
d="M395 1032v-629h228q157 0 243 73t86 247q0 309 -331 309h-226zM395 1171h205q536 1 536 -451q0 -230 -144 -344t-394 -114h-203v-262h-174v1409h174v-238z" />
    <glyph glyph-name="germandbls" unicode="&#xdf;" 
d="M197 1092q0 214 108 328q109 114 285 114t274 -82t99 -213q0 -68 -37 -123t-80 -85q-117 -82 -117 -159q0 -78 147 -162q60 -36 120 -80t104 -118t43 -170q0 -172 -110 -268q-111 -96 -269 -96t-268 69l69 117q88 -49 186 -49t158 55q59 54 59 144q1 150 -143 242
q-59 38 -119 76q-145 92 -145 226q0 66 38 118t82 81t82 73t38 102q0 60 -46 112t-157 52q-231 1 -231 -292v-1104h-170v1092z" />
    <glyph glyph-name="agrave" unicode="&#xe0;" 
d="M532 106q80 0 153 40t120 114v279h-156q-326 0 -325 -228q-1 -205 208 -205zM977 754v-521q0 -61 20.5 -91.5t67.5 -45.5l-41 -121q-154 20 -197 154q-117 -152 -338 -152q-162 0 -255 90.5t-93 248.5t130 248.5t376 90.5h158v90q0 213 -256 213q-129 0 -281 -53l-45 127
q187 70 367 70t283.5 -92t103.5 -256zM362 1464l91 148l378 -240l-55 -94z" />
    <glyph glyph-name="aacute" unicode="&#xe1;" 
d="M532 106q80 0 153 40t120 114v279h-156q-326 0 -325 -228q-1 -205 208 -205zM977 754v-521q0 -61 20.5 -91.5t67.5 -45.5l-41 -121q-154 20 -197 154q-117 -152 -338 -152q-162 0 -255 90.5t-93 248.5t130 248.5t376 90.5h158v90q0 213 -256 213q-129 0 -281 -53l-45 127
q187 70 367 70t283.5 -92t103.5 -256zM741 1608l90 -146l-411 -184l-58 94z" />
    <glyph glyph-name="acircumflex" unicode="&#xe2;" 
d="M532 106q80 0 153 40t120 114v279h-156q-326 0 -325 -228q-1 -205 208 -205zM977 754v-521q0 -61 20.5 -91.5t67.5 -45.5l-41 -121q-154 20 -197 154q-117 -152 -338 -152q-162 0 -255 90.5t-93 248.5t130 248.5t376 90.5h158v90q0 213 -256 213q-129 0 -281 -53l-45 127
q187 70 367 70t283.5 -92t103.5 -256zM264 1372l279 244h114l275 -244l-78 -84l-254 187l-254 -187z" />
    <glyph glyph-name="atilde" unicode="&#xe3;" 
d="M532 106q80 0 153 40t120 114v279h-156q-326 0 -325 -228q-1 -205 208 -205zM977 754v-521q0 -61 20.5 -91.5t67.5 -45.5l-41 -121q-154 20 -197 154q-117 -152 -338 -152q-162 0 -255 90.5t-93 248.5t130 248.5t376 90.5h158v90q0 213 -256 213q-129 0 -281 -53l-45 127
q187 70 367 70t283.5 -92t103.5 -256zM702 1335q-66 0 -132 50.5t-91 50.5q-53 0 -104 -90l-111 49q76 172 228 172q68 0 133 -49.5t90 -49.5q53 0 104 91l111 -50q-81 -174 -228 -174z" />
    <glyph glyph-name="adieresis" unicode="&#xe4;" 
d="M532 106q80 0 153 40t120 114v279h-156q-326 0 -325 -228q-1 -205 208 -205zM977 754v-521q0 -61 20.5 -91.5t67.5 -45.5l-41 -121q-154 20 -197 154q-117 -152 -338 -152q-162 0 -255 90.5t-93 249t130 248.5t376 90h158v90q0 213 -256 213q-129 0 -281 -53l-45 127
q186 70 366.5 70t284 -92t103.5 -256zM809 1327q-47 0 -79 31t-32 78t31 78.5t79 31.5t80 -31.5t32 -78.5t-32 -78t-79 -31zM385 1327q-47 0 -79 31t-32 78t32 78.5t79 31.5t79 -31.5t32 -77.5t-32 -78t-79 -32z" />
    <glyph glyph-name="aring" unicode="&#xe5;" 
d="M532 106q80 0 153 40t120 114v279h-156q-326 0 -325 -228q-1 -205 208 -205zM977 754v-521q0 -61 20.5 -91.5t67.5 -45.5l-41 -121q-154 20 -197 154q-117 -152 -338 -152q-162 0 -255 90.5t-93 249t130 248.5t376 90h158v90q0 213 -256 213q-129 0 -281 -53l-45 127
q186 70 366.5 70t284 -92t103.5 -256zM599 1591q-52 0 -82 -30.5t-30 -84.5t30 -85t81 -31t81 30.5t30 85t-29 85t-81 30.5zM598 1686q98 0 162.5 -60.5t64.5 -148.5t-64.5 -148.5t-162.5 -60.5t-162.5 60.5t-64.5 148.5t64.5 148.5t162.5 60.5z" />
    <glyph glyph-name="ae" unicode="&#xe6;" 
d="M520 539h-88q-260 0 -260 -220q0 -102 41 -156t109 -54t117.5 47t109.5 151q-29 95 -29 232zM889 958q-98 0 -143.5 -78.5t-59.5 -269.5h389q-4 178 -46 263t-140 85zM891 1102q352 0 352 -531q0 -45 -4 -94h-553q14 -184 69.5 -270t157 -86t209.5 80l78 -117
q-133 -106 -285 -107q-197 0 -303 183q-72 -98 -142.5 -140.5t-170.5 -42.5q-143 0 -227 90.5t-84 250t111.5 248.5t326.5 89h94v90q0 213 -186 213q-86 0 -215 -55l-45 129q145 70 276 70q211 0 283 -180q29 84 95.5 132t162.5 48z" />
    <glyph glyph-name="ccedilla" unicode="&#xe7;" 
d="M924 -287q0 -96 -72 -148t-188.5 -52t-202.5 49l55 98q61 -33 139 -33q123 0 123 86q0 51 -44 69.5t-134 18.5l14 181q-203 25 -314.5 172t-111.5 389t135.5 400.5t355.5 158.5t376 -127l-86 -117q-133 100 -277.5 100t-231.5 -108.5t-87 -315t87 -309t236.5 -102.5
t278.5 102l82 -119q-129 -110 -322 -126v-97q94 -8 141.5 -56t47.5 -114z" />
    <glyph glyph-name="egrave" unicode="&#xe8;" 
d="M631 961q-125 0 -203 -89.5t-88 -261.5h565q-2 172 -75.5 261.5t-198.5 89.5zM670.5 119q148.5 0 273.5 100l80 -117q-162 -125 -382 -125t-350 153t-130 404t128 409.5t336 158.5t325.5 -142.5t117.5 -388.5q0 -47 -4 -92h-725q6 -180 94 -270t236.5 -90zM399 1464
l90 148l379 -240l-55 -94z" />
    <glyph glyph-name="eacute" unicode="&#xe9;" 
d="M631 961q-125 0 -203 -89.5t-88 -261.5h565q-2 172 -75.5 261.5t-198.5 89.5zM670.5 119q148.5 0 273.5 100l80 -117q-162 -125 -382 -125t-350 153t-130 404t128 409.5t336 158.5t325.5 -142.5t117.5 -388.5q0 -47 -4 -92h-725q6 -180 94 -270t236.5 -90zM778 1608
l90 -146l-411 -184l-58 94z" />
    <glyph glyph-name="ecircumflex" unicode="&#xea;" 
d="M631 961q-125 0 -203 -89.5t-88 -261.5h565q-2 172 -75.5 261.5t-198.5 89.5zM670.5 119q148.5 0 273.5 100l80 -117q-162 -125 -382 -125t-350 153t-130 404t128 409.5t336 158.5t325.5 -142.5t117.5 -388.5q0 -47 -4 -92h-725q6 -180 94 -270t236.5 -90zM301 1372
l279 244h114l275 -244l-78 -84l-254 187l-254 -187z" />
    <glyph glyph-name="edieresis" unicode="&#xeb;" 
d="M631 961q-125 0 -203 -89.5t-88 -261.5h565q-2 172 -75.5 261.5t-198.5 89.5zM670.5 119q148.5 0 273.5 100l80 -117q-162 -125 -382 -125t-350 153t-130 404t128 409.5t336 158.5t325.5 -142.5t117.5 -388.5q0 -47 -4 -92h-725q6 -180 94 -270t236.5 -90zM846 1327
q-47 0 -79 31t-32 78t31 78.5t79 31.5t79.5 -31.5t31.5 -78.5t-31.5 -78t-78.5 -31zM422 1327q-47 0 -79 31t-32 78t32 78.5t79 31.5t78.5 -31.5t31.5 -77.5t-31.5 -78t-78.5 -32z" />
    <glyph glyph-name="igrave" unicode="&#xec;" 
d="M752 135h303v-135h-807v135h334v809h-324v133h494v-942zM381 1464l90 148l379 -240l-55 -94z" />
    <glyph glyph-name="iacute" unicode="&#xed;" 
d="M752 135h303v-135h-807v135h334v809h-324v133h494v-942zM760 1608l90 -146l-412 -184l-57 94z" />
    <glyph glyph-name="icircumflex" unicode="&#xee;" 
d="M752 135h303v-135h-807v135h334v809h-324v133h494v-942zM283 1372l278 244h115l274 -244l-78 -84l-254 187l-253 -187z" />
    <glyph glyph-name="idieresis" unicode="&#xef;" 
d="M752 135h303v-135h-807v135h334v809h-324v133h494v-942zM826 1327q-48 0 -78.5 31t-30.5 78t30.5 78.5t78.5 31.5t80 -31.5t32 -78.5t-32 -78t-80 -31zM403.5 1327q-47.5 0 -79 31t-31.5 78t31.5 78.5t79 31.5t79 -31.5t31.5 -77.5t-31.5 -78t-79 -32z" />
    <glyph glyph-name="eth" unicode="&#xf0;" 
d="M918 547q0 72 -7 135q-106 166 -317 166q-121 0 -202 -91t-81 -269t80 -275q80 -98 219 -98t224 111q84 112 84 321zM1090 557q0 -276 -132 -428t-344 -152q-211 1 -344 135t-133 362t128 370q129 142 319 141q190 0 313 -141q-53 256 -266 411l-162 -165l-121 61
l166 174q-94 45 -240 74l37 135q197 -43 307 -102l142 151l104 -90l-127 -131q353 -245 353 -805z" />
    <glyph glyph-name="ntilde" unicode="&#xf1;" 
d="M207 1077h145l13 -149q66 82 162 128t194 46q303 0 303 -320v-782h-170v655q0 178 -34 245t-136 67t-181 -53.5t-126 -127.5v-786h-170v1077zM719 1339q-66 0 -132.5 50.5t-90.5 50.5q-53 0 -105 -90l-110 49q76 172 227 172q68 0 133.5 -49t89.5 -49q53 0 105 90
l110 -50q-80 -174 -227 -174z" />
    <glyph glyph-name="ograve" unicode="&#xf2;" 
d="M614.5 117q280.5 0 280.5 423t-281 423t-280.5 -423t281 -423zM617 1102q222 0 341 -150.5t119 -407.5t-120.5 -412t-343 -155t-342 151t-119.5 409t121.5 411.5t343.5 153.5zM379 1464l90 148l379 -240l-55 -94z" />
    <glyph glyph-name="oacute" unicode="&#xf3;" 
d="M614.5 117q280.5 0 280.5 423t-281 423t-280.5 -423t281 -423zM617 1102q222 0 341 -150.5t119 -407.5t-120.5 -412t-343 -155t-342 151t-119.5 409t121.5 411.5t343.5 153.5zM758 1608l90 -146l-412 -184l-57 94z" />
    <glyph glyph-name="ocircumflex" unicode="&#xf4;" 
d="M614.5 117q280.5 0 280.5 423t-281 423t-280.5 -423t281 -423zM617 1102q222 0 341 -150.5t119 -407.5t-120.5 -412t-343 -155t-342 151t-119.5 409t121.5 411.5t343.5 153.5zM281 1372l278 244h115l274 -244l-78 -84l-254 187l-254 -187z" />
    <glyph glyph-name="otilde" unicode="&#xf5;" 
d="M614.5 117q280.5 0 280.5 423t-281 423t-280.5 -423t281 -423zM617 1102q222 0 341 -150.5t119 -407.5t-120.5 -412t-343 -155t-342 151t-119.5 409t121.5 411.5t343.5 153.5zM719 1335q-66 0 -132.5 50.5t-90.5 50.5q-53 0 -105 -90l-110 49q76 172 227 172
q68 0 133.5 -49.5t89.5 -49.5q53 0 105 91l110 -50q-80 -174 -227 -174z" />
    <glyph glyph-name="odieresis" unicode="&#xf6;" 
d="M614.5 117q280.5 0 280.5 423t-281 423t-280.5 -423t281 -423zM617 1102q222 0 341 -150.5t119 -407.5t-120.5 -412t-343 -155t-342 151t-119.5 409t121.5 411.5t343.5 153.5zM825 1327q-47 0 -78.5 31t-31.5 78t30.5 78.5t78.5 31.5t80 -31.5t32 -78.5t-32 -78t-79 -31z
M401.5 1327q-47.5 0 -79 31t-31.5 78t31.5 78.5t79 31.5t79 -31.5t31.5 -77.5t-31.5 -78t-79 -32z" />
    <glyph glyph-name="divide" unicode="&#xf7;" 
d="M614 375q58 0 98 -40t40 -97q0 -58 -40 -98t-98 -40t-97 40q-40 40 -40 98t40 97q40 40 97 40zM991 565h-753v146h753v-146zM614 1176q58 0 98 -40t40 -96t-40 -96q-40 -39 -98 -39t-97 39q-40 39 -40 95q0 57 40 97t97 40z" />
    <glyph glyph-name="oslash" unicode="&#xf8;" 
d="M614 117q281 0 281 424q0 268 -107 362l-241 -780q30 -6 67 -6zM616 961q-283 0 -282 -422q0 -274 108 -367l242 782q-31 7 -68 7zM1077 541q0 -254 -120.5 -409t-342.5 -155q-47 0 -102 11l-76 -254l-143 41l86 264q-227 137 -227 500q0 256 121.5 409.5t342.5 153.5
q45 0 101 -10l78 247l143 -41l-84 -258q223 -137 223 -499z" />
    <glyph glyph-name="ugrave" unicode="&#xf9;" 
d="M377 1077v-764q0 -104 44 -152t134 -48t171 50t126 122v792h170v-1077h-145l-15 145q-61 -80 -154.5 -124t-189.5 -44q-154 0 -232.5 82t-78.5 234v784h170zM379 1464l90 148l379 -240l-55 -94z" />
    <glyph glyph-name="uacute" unicode="&#xfa;" 
d="M377 1077v-764q0 -104 44 -152t134 -48t171 50t126 122v792h170v-1077h-145l-15 145q-61 -80 -154.5 -124t-189.5 -44q-154 0 -232.5 82t-78.5 234v784h170zM758 1608l90 -146l-412 -184l-57 94z" />
    <glyph glyph-name="ucircumflex" unicode="&#xfb;" 
d="M377 1077v-764q0 -104 44 -152t134 -48t171 50t126 122v792h170v-1077h-145l-15 145q-61 -80 -154.5 -124t-189.5 -44q-154 0 -232.5 82t-78.5 234v784h170zM281 1372l278 244h115l274 -244l-78 -84l-254 187l-254 -187z" />
    <glyph glyph-name="udieresis" unicode="&#xfc;" 
d="M377 1077v-764q0 -104 44 -152t134 -48t171 50t126 122v792h170v-1077h-145l-15 145q-61 -80 -154.5 -124t-189.5 -44q-154 0 -232.5 82t-78.5 234v784h170zM825 1327q-47 0 -78.5 31t-31.5 78t30.5 78.5t78.5 31.5t80 -31.5t32 -78.5t-32 -78t-79 -31zM401.5 1327
q-47.5 0 -79 31t-31.5 78t31.5 78.5t79 31.5t79 -31.5t31.5 -77.5t-31.5 -78t-79 -32z" />
    <glyph glyph-name="yacute" unicode="&#xfd;" 
d="M1102 1077l-379 -1083q-66 -186 -174.5 -297t-304.5 -131l-27 137q158 27 227.5 93.5t116.5 203.5h-57l-377 1077h182l312 -948l305 948h176zM758 1608l90 -146l-412 -184l-57 94z" />
    <glyph glyph-name="thorn" unicode="&#xfe;" 
d="M647 965q-154 0 -270 -174v-537q88 -135 248 -135q270 0 270 423t-248 423zM688 1102q389 0 389 -561q0 -256 -106 -410q-107 -154 -297 -154t-297 123v-514l-170 -20v1947l170 21v-590q121 158 311 158z" />
    <glyph glyph-name="ydieresis" unicode="&#xff;" 
d="M1102 1077l-379 -1083q-66 -186 -174.5 -297t-304.5 -131l-27 137q158 27 227.5 93.5t116.5 203.5h-57l-377 1077h182l312 -948l305 948h176zM825 1327q-47 0 -78.5 31t-31.5 78t30.5 78.5t78.5 31.5t80 -31.5t32 -78.5t-32 -78t-79 -31zM401.5 1327q-47.5 0 -79 31
t-31.5 78t31.5 78.5t79 31.5t79 -31.5t31.5 -77.5t-31.5 -78t-79 -32z" />
    <glyph glyph-name="Amacron" unicode="&#x100;" 
d="M844 506l-234 756l-235 -756h469zM330 360l-115 -360h-172l459 1409h225l459 -1409h-185l-112 360h-559zM338 1628v131h551v-131h-551z" />
    <glyph glyph-name="amacron" unicode="&#x101;" 
d="M532 106q80 0 153 40t120 114v279h-156q-326 0 -325 -228q-1 -205 208 -205zM977 754v-521q0 -61 20.5 -91.5t67.5 -45.5l-41 -121q-154 20 -197 154q-117 -152 -338 -152q-162 0 -255 90.5t-93 248.5t130 248.5t376 90.5h158v90q0 213 -256 213q-129 0 -281 -53l-45 127
q187 70 367 70t283.5 -92t103.5 -256zM322 1384v132h550v-132h-550z" />
    <glyph glyph-name="Abreve" unicode="&#x102;" 
d="M844 506l-234 756l-235 -756h469zM330 360l-115 -360h-172l459 1409h225l459 -1409h-185l-112 360h-559zM611 1554q-120 0 -204.5 67t-97.5 177l117 25q49 -137 187 -137t188 137l117 -25q-12 -111 -99.5 -177.5t-207.5 -66.5z" />
    <glyph glyph-name="abreve" unicode="&#x103;" 
d="M532 106q80 0 153 40t120 114v279h-156q-326 0 -325 -228q-1 -205 208 -205zM977 754v-521q0 -61 20.5 -91.5t67.5 -45.5l-41 -121q-154 20 -197 154q-117 -152 -338 -152q-162 0 -255 90.5t-93 249t130 248.5t376 90h158v90q0 213 -256 213q-129 0 -281 -53l-45 127
q186 70 366.5 70t284 -92t103.5 -256zM595 1290q-130 0 -209 85t-93 192l117 26q49 -172 186 -172t188 172l117 -26q-14 -106 -95 -191.5t-211 -85.5z" />
    <glyph glyph-name="Aogonek" unicode="&#x104;" 
d="M844 506l-234 756l-235 -756h469zM850 -236q0 -96 113 -96q68 0 127 15l-17 -138q-72 -14 -131 -14q-115 0 -181.5 57.5t-66.5 143.5q0 195 297 303l-102 325h-559l-115 -360h-172l459 1409h225l459 -1409h-82q-147 -66 -200.5 -120t-53.5 -116z" />
    <glyph glyph-name="aogonek" unicode="&#x105;" 
d="M805 539h-156q-326 0 -325 -228q0 -205 208 -205q80 0 153 40t120 114v279zM770 -260q0 -96 113 -96q68 0 127 14l-17 -137q-72 -14 -131 -15q-115 0 -181.5 57.5t-66.5 143.5q0 197 304 305q-68 41 -91 117q-117 -152 -338 -152q-162 0 -255 90.5t-93 249t130 248.5
t376 90h158v90q0 213 -256 213q-129 0 -281 -53l-45 127q186 70 366.5 70t284 -92t103.5 -256v-521q0 -61 20.5 -92t67.5 -45l-41 -121q-147 -66 -200.5 -120t-53.5 -115z" />
    <glyph glyph-name="Cacute" unicode="&#x106;" 
d="M723 1434q246 0 418 -138l-99 -114q-127 104 -308.5 104t-301 -138t-119.5 -439t118 -441.5t305 -140.5t335 119l90 -117q-156 -152 -422 -152t-437 191.5t-171 536t173 537t419 192.5zM993 1708l-436 -160l-45 90l406 215z" />
    <glyph glyph-name="cacute" unicode="&#x107;" 
d="M696.5 123q149.5 0 278.5 102l82 -119q-70 -59 -169.5 -94t-195.5 -35q-238 0 -371 151t-133 404t135.5 411.5t355.5 158.5t376 -127l-86 -117q-133 100 -277.5 100t-231.5 -108.5t-87 -315t87 -309t236.5 -102.5zM848 1591l90 -145l-412 -184l-57 94z" />
    <glyph glyph-name="Ccircumflex" unicode="&#x108;" 
d="M723 1434q246 0 418 -138l-99 -114q-127 104 -308.5 104t-301 -138t-119.5 -439t118 -441.5t305 -140.5t335 119l90 -117q-156 -152 -422 -152t-437 191.5t-171 536t173 537t419 192.5zM1083 1645l-75 -89l-258 166l-256 -166l-78 89l278 219h115z" />
    <glyph glyph-name="ccircumflex" unicode="&#x109;" 
d="M696.5 123q149.5 0 278.5 102l82 -119q-70 -59 -169.5 -94t-195.5 -35q-238 0 -371 151t-133 404t135.5 411.5t355.5 158.5t376 -127l-86 -117q-133 100 -277.5 100t-231.5 -108.5t-87 -315t87 -309t236.5 -102.5zM371 1356l278 243h115l274 -243l-77 -84l-254 186
l-254 -186z" />
    <glyph glyph-name="Cdotaccent" unicode="&#x10a;" 
d="M723 1434q246 0 418 -138l-99 -114q-127 104 -308.5 104t-301 -138t-119.5 -439t118 -441.5t305 -140.5t335 119l90 -117q-156 -152 -422 -152t-437 191.5t-171 536t173 537t419 192.5zM745.5 1827q55.5 0 90 -35t34.5 -87t-34.5 -86t-90 -34t-89 34t-33.5 86t33.5 87
t89 35z" />
    <glyph glyph-name="cdotaccent" unicode="&#x10b;" 
d="M696.5 123q149.5 0 278.5 102l82 -119q-70 -59 -169.5 -94t-195.5 -35q-238 0 -371 151t-133 404t135.5 411.5t355.5 158.5t376 -127l-86 -117q-133 100 -277.5 100t-231.5 -108.5t-87 -315t87 -309t236.5 -102.5zM702.5 1567q55.5 0 90 -35t34.5 -87t-34.5 -86t-90 -34
t-89 34t-33.5 86t33.5 87t89 35z" />
    <glyph glyph-name="Ccaron" unicode="&#x10c;" 
d="M723 1434q246 0 418 -138l-99 -114q-127 104 -308.5 104t-301 -138t-119.5 -439t118 -441.5t305 -140.5t335 119l90 -117q-156 -152 -422 -152t-437 191.5t-171 536t173 537t419 192.5zM1083 1765l-274 -221h-115l-278 221l78 86l256 -165l258 165z" />
    <glyph glyph-name="ccaron" unicode="&#x10d;" 
d="M696.5 123q149.5 0 278.5 102l82 -119q-70 -59 -169.5 -94t-195.5 -35q-238 0 -371 151t-133 404t135.5 411.5t355.5 158.5t376 -127l-86 -117q-133 100 -277.5 100t-231.5 -108.5t-87 -315t87 -309t236.5 -102.5zM1038 1516l-274 -244h-115l-278 244l82 83l254 -186
l254 186z" />
    <glyph glyph-name="Dcaron" unicode="&#x10e;" 
d="M800 1176q-68 54 -134 72t-152 18h-168v-1125h170q168 1 288 109q140 127 140 470t-144 456zM1130 713q0 -170 -38 -300t-100 -207q-165 -206 -498 -206h-322v1409h299q109 0 197 -15.5t177 -61.5t149.5 -120.5t98 -201.5t37.5 -297zM915 1765l-274 -221h-115l-278 221
l78 86l256 -165l258 165z" />
    <glyph glyph-name="dcaron" unicode="&#x10f;" 
d="M547 965q-281 0 -281 -425t260 -425q154 0 269 170v540q-96 140 -248 140zM1253 1511l-108 -364l-96 14l51 369zM963 0h-148l-16 141q-119 -164 -315 -164t-300 150q-102 150 -102 405q0 254 113 412t300 158t300 -129v561l168 -21v-1513z" />
    <glyph glyph-name="Dcroat" unicode="&#x110;" 
d="M367 141h170q426 0 426 572q1 349 -143 463q-68 54 -133.5 72t-151.5 18h-168v-475h325v-136h-325v-514zM190 1409h302q109 0 196.5 -15.5t176.5 -61.5t149.5 -120.5t98.5 -201.5t38 -297t-39 -300q-38 -130 -100 -207q-165 -206 -498 -206h-324v655h-149v136h149v618z
" />
    <glyph glyph-name="dcroat" unicode="&#x111;" 
d="M592 115q151 0 266 170v540q-96 139 -240 139t-216 -107q-73 -108 -72 -318q0 -424 262 -424zM1190 1225h-162v-1225h-149l-17 141q-118 -164 -314 -164t-299 150t-103 405q0 254 112 412q113 158 300 158t300 -129v252h-352v135h352v174l170 -21v-153h162v-135z" />
    <glyph glyph-name="Emacron" unicode="&#x112;" 
d="M434 788h522v-145h-522v-502h641v-141h-817v1409h799l-21 -143h-602v-478zM381 1628v131h551v-131h-551z" />
    <glyph glyph-name="emacron" unicode="&#x113;" 
d="M631 961q-125 0 -203 -89.5t-88 -261.5h565q-2 172 -75.5 261.5t-198.5 89.5zM670.5 119q148.5 0 273.5 100l80 -117q-162 -125 -382 -125t-350 153t-130 404t128 409.5t336 158.5t325.5 -142.5t117.5 -388.5q0 -47 -4 -92h-725q6 -180 94 -270t236.5 -90zM358 1384v132
h551v-132h-551z" />
    <glyph glyph-name="Ebreve" unicode="&#x114;" 
d="M434 788h522v-145h-522v-502h641v-141h-817v1409h799l-21 -143h-602v-478zM654 1554q-120 0 -204.5 67t-97.5 177l117 25q49 -137 187 -137t188 137l117 -25q-12 -111 -99.5 -177.5t-207.5 -66.5z" />
    <glyph glyph-name="ebreve" unicode="&#x115;" 
d="M631 961q-125 0 -203 -89.5t-88 -261.5h565q-2 172 -75.5 261.5t-198.5 89.5zM670.5 119q148.5 0 273.5 100l80 -117q-162 -125 -382 -125t-350 153t-130 404t128 409.5t336 158.5t325.5 -142.5t117.5 -388.5q0 -47 -4 -92h-725q6 -180 94 -270t236.5 -90zM632 1290
q-130 0 -209 85t-93 192l116 26q49 -172 186.5 -172t188.5 172l117 -26q-14 -106 -95 -191.5t-211 -85.5z" />
    <glyph glyph-name="Edotaccent" unicode="&#x116;" 
d="M434 788h522v-145h-522v-502h641v-141h-817v1409h799l-21 -143h-602v-478zM655.5 1827q55.5 0 90 -35t34.5 -87t-34.5 -86t-90 -34t-89.5 34t-34 86t34 87t89.5 35z" />
    <glyph glyph-name="edotaccent" unicode="&#x117;" 
d="M631 961q-125 0 -203 -89.5t-88 -261.5h565q-2 172 -75.5 261.5t-198.5 89.5zM670.5 119q148.5 0 273.5 100l80 -117q-162 -125 -382 -125t-350 153t-130 404t128 409.5t336 158.5t325.5 -142.5t117.5 -388.5q0 -47 -4 -92h-725q6 -180 94 -270t236.5 -90zM633 1583
q55 0 90 -35t35 -87t-35 -86t-90 -34t-89 34t-34 86t34 87t89 35z" />
    <glyph glyph-name="Eogonek" unicode="&#x118;" 
d="M1075 141v-141h-117q-147 -66 -200 -120t-53 -116q0 -96 112 -96q68 0 127 15l-16 -138q-72 -14 -131 -14q-115 0 -181.5 57.5t-66.5 143.5q0 168 215 268h-506v1409h799l-21 -143h-602v-478h522v-145h-522v-502h641z" />
    <glyph glyph-name="eogonek" unicode="&#x119;" 
d="M631 961q-125 0 -203 -89.5t-88 -261.5h565q-2 172 -75.5 261.5t-198.5 89.5zM1069 571q0 -47 -4 -92h-725q6 -180 94 -270t236.5 -90t273.5 100l80 -117q-94 -72 -207 -102q-147 -66 -200.5 -120t-53.5 -116q0 -96 113 -96q68 0 127 15l-17 -138q-72 -14 -131 -14
q-115 0 -181 57.5t-66 143.5q0 162 208 248q-215 12 -334.5 162.5t-119.5 396t128 404.5t336 159t325.5 -142.5t117.5 -388.5z" />
    <glyph glyph-name="Ecaron" unicode="&#x11a;" 
d="M434 788h522v-145h-522v-502h641v-141h-817v1409h799l-21 -143h-602v-478zM991 1765l-274 -221h-115l-278 221l77 86l256 -165l258 165z" />
    <glyph glyph-name="ecaron" unicode="&#x11b;" 
d="M631 961q-125 0 -203 -89.5t-88 -261.5h565q-2 172 -75.5 261.5t-198.5 89.5zM670.5 119q148.5 0 273.5 100l80 -117q-162 -125 -382 -125t-350 153t-130 404t128 409.5t336 158.5t325.5 -142.5t117.5 -388.5q0 -47 -4 -92h-725q6 -180 94 -270t236.5 -90zM969 1532
l-275 -244h-114l-279 244l82 84l254 -186l254 186z" />
    <glyph glyph-name="Gcircumflex" unicode="&#x11c;" 
d="M630.5 -23q-243.5 0 -390 185.5t-146.5 538t173 543t417 190.5q131 0 222 -38t179 -118l-106 -111q-125 117 -297 117t-286.5 -138t-114.5 -440t94 -441.5t282 -139.5q147 0 271 68v432h-279l-20 145h473v-672q-228 -121 -471.5 -121zM1010 1645l-76 -89l-258 166
l-256 -166l-78 89l279 219h114z" />
    <glyph glyph-name="gcircumflex" unicode="&#x11d;" 
d="M590 977q-125 0 -190 -68q-64 -69 -64 -183t66 -182t186 -69q121 0 181 67t60 187q1 248 -239 248zM385 276q0 -90 143 -90h195q161 0 271 -84t110 -208q0 -158 -134 -243t-383 -85t-350 78t-102 247h154q0 -100 62 -143t237 -43q344 0 344 178q0 74 -69 115t-175 41
h-192q-133 0 -203 58t-70 145q0 111 119 188q-180 92 -180 297q0 166 120 270q120 105 308 105t284 20t207 70l54 -162q-106 -31 -316 -31q189 -86 189 -260t-109 -276t-297 -103q-90 0 -162 23q-55 -41 -55 -107zM285 1372l278 244h115l274 -244l-78 -84l-253 187
l-254 -187z" />
    <glyph glyph-name="Gbreve" unicode="&#x11e;" 
d="M630.5 -23q-243.5 0 -390 185.5t-146.5 538t173 543t417 190.5q131 0 222 -38t179 -118l-106 -111q-125 117 -297 117t-286.5 -138t-114.5 -440t94 -441.5t282 -139.5q147 0 271 68v432h-279l-20 145h473v-672q-228 -121 -471.5 -121zM673 1554q-120 0 -205 67t-97 177
l116 25q49 -137 187.5 -137t187.5 137l117 -25q-12 -111 -99 -177.5t-207 -66.5z" />
    <glyph glyph-name="gbreve" unicode="&#x11f;" 
d="M590 977q-125 0 -190 -68q-64 -69 -64 -183t66 -182t186 -69q121 0 181 67t60 187q1 248 -239 248zM385 276q0 -90 143 -90h195q161 0 271 -84t110 -208q0 -158 -134 -243t-383 -85t-350 78t-102 247h154q0 -100 62 -143t237 -43q344 0 344 178q0 74 -69 115t-175 41
h-192q-133 0 -203 58t-70 145q0 111 119 188q-180 92 -180 297q0 166 120 270q120 105 308 105t284 20t207 70l54 -162q-106 -31 -316 -31q189 -86 189 -260t-109 -276t-297 -103q-90 0 -162 23q-55 -41 -55 -107zM615 1290q-131 0 -209 85t-93 192l117 26q49 -172 186 -172
t189 172l117 -26q-14 -105 -96 -191t-211 -86z" />
    <glyph glyph-name="Gdotaccent" unicode="&#x120;" 
d="M630.5 -23q-243.5 0 -390 185.5t-146.5 538t173 543t417 190.5q131 0 222 -38t179 -118l-106 -111q-125 117 -297 117t-286.5 -138t-114.5 -440t94 -441.5t282 -139.5q147 0 271 68v432h-279l-20 145h473v-672q-228 -121 -471.5 -121zM673.5 1827q55.5 0 90.5 -35t35 -87
t-35 -86t-90.5 -34t-89 34t-33.5 86t33.5 87t89 35z" />
    <glyph glyph-name="gdotaccent" unicode="&#x121;" 
d="M590 977q-125 0 -190 -68q-64 -69 -64 -183t66 -182t186 -69q121 0 181 67t60 187q1 248 -239 248zM385 276q0 -90 143 -90h195q161 0 271 -84t110 -208q0 -158 -134 -243t-383 -85t-350 78t-102 247h154q0 -100 62 -143t237 -43q344 0 344 178q0 74 -69 115t-175 41
h-192q-133 0 -203 58t-70 145q0 111 119 188q-180 92 -180 297q0 166 120 270q120 105 308 105t284 20t207 70l54 -162q-106 -31 -316 -31q189 -86 189 -260t-109 -276t-297 -103q-90 0 -162 23q-55 -41 -55 -107zM616 1583q54 0 90 -35t36 -87t-36 -86q-34 -34 -90 -34
t-89 34t-33 86t33 87q34 35 89 35z" />
    <glyph glyph-name="Gcommaaccent" unicode="&#x122;" 
d="M684 -145q47 0 79 -31t32 -78t-31 -111l-102 -221h-103l59 242q-45 35 -45 86t32 82t79 31zM630.5 -23q-243.5 0 -390 185.5t-146.5 538t173 543t417 190.5q131 0 222 -38t179 -118l-106 -111q-125 117 -297 117t-286.5 -138t-114.5 -440t94 -441.5t282 -139.5
q147 0 271 68v432h-279l-20 145h473v-672q-228 -121 -471.5 -121z" />
    <glyph glyph-name="gcommaaccent" unicode="&#x123;" 
d="M590 977q-125 0 -190 -68q-64 -69 -64 -183t66 -182t186 -69q121 0 181 67t60 187q1 248 -239 248zM385 276q0 -90 143 -90h195q161 0 271 -84t110 -208q0 -158 -134 -243t-383 -85t-350 78t-102 247h154q0 -100 62 -143t237 -43q344 0 344 178q0 74 -69 115t-175 41
h-192q-133 0 -203 58t-70 145q0 111 119 188q-180 92 -180 297q0 166 120 270q120 105 308 105t284 20t207 70l54 -162q-106 -31 -316 -31q189 -86 189 -260t-109 -276t-297 -103q-90 0 -162 23q-55 -41 -55 -107zM612 1223q-46 1 -78 31t-32 77t30 111l103 221h102
l-59 -242q45 -35 45 -86t-32 -81t-79 -31z" />
    <glyph glyph-name="Hcircumflex" unicode="&#x124;" 
d="M883 672h-537v-672h-174v1409h174v-596h537v596h174v-1409h-174v672zM948 1645l-76 -89l-258 166l-256 -166l-77 89l278 219h115z" />
    <glyph glyph-name="hcircumflex" unicode="&#x125;" 
d="M854 780q0 187 -181 187q-91 0 -170 -54.5t-126 -126.5v-786h-170v1509l170 21v-600q61 82 153.5 127t190.5 45q303 0 303 -320v-782h-170v780zM948 1747l-76 -88l-258 166l-256 -166l-77 88l278 219h115z" />
    <glyph glyph-name="Hbar" unicode="&#x126;" 
d="M883 1042h-537v-227h537v227zM1225 1042h-166v-1042h-176v670h-537v-670h-176v1042h-166v136h166v231h176v-231h537v231h176v-231h166v-136z" />
    <glyph glyph-name="hbar" unicode="&#x127;" 
d="M854 780q0 187 -181 187q-91 0 -170 -54.5t-126 -126.5v-786h-170v1225h-168v135h168v149l170 21v-170h346v-135h-346v-295q61 82 153.5 127t190.5 45q303 0 303 -320v-782h-170v780z" />
    <glyph glyph-name="Itilde" unicode="&#x128;" 
d="M1018 1270h-316v-1129h316v-141h-807v141h315v1129h-315v139h807v-139zM719 1579q-66 0 -132.5 50t-90.5 50q-53 0 -105 -90l-110 49q76 172 227 172q68 0 133.5 -49t89.5 -49q53 0 105 90l110 -49q-80 -174 -227 -174z" />
    <glyph glyph-name="itilde" unicode="&#x129;" 
d="M752 135h303v-135h-807v135h334v809h-324v133h494v-942zM721 1335q-66 0 -132.5 50.5t-90.5 50.5q-53 0 -105 -90l-110 49q76 172 227 172q68 0 133.5 -49.5t89.5 -49.5q53 0 105 91l110 -50q-80 -174 -227 -174z" />
    <glyph glyph-name="Imacron" unicode="&#x12a;" 
d="M1018 1270h-316v-1129h316v-141h-807v141h315v1129h-315v139h807v-139zM338 1628v131h551v-131h-551z" />
    <glyph glyph-name="imacron" unicode="&#x12b;" 
d="M752 135h303v-135h-807v135h334v809h-324v133h494v-942zM340 1384v132h551v-132h-551z" />
    <glyph glyph-name="Ibreve" unicode="&#x12c;" 
d="M1018 1270h-316v-1129h316v-141h-807v141h315v1129h-315v139h807v-139zM611 1554q-120 0 -204.5 67t-97.5 177l117 25q49 -137 187 -137t188 137l117 -25q-12 -111 -99.5 -177.5t-207.5 -66.5z" />
    <glyph glyph-name="ibreve" unicode="&#x12d;" 
d="M752 135h303v-135h-807v135h334v809h-324v133h494v-942zM613 1290q-130 0 -208.5 85t-93.5 192l117 26q49 -172 186 -172t189 172l117 -26q-14 -106 -95.5 -191.5t-211.5 -85.5z" />
    <glyph glyph-name="Iogonek" unicode="&#x12e;" 
d="M702 1270v-1129h316v-141h-313q-147 -66 -200.5 -120t-53.5 -116q0 -96 112 -96q68 0 127 15l-16 -138q-72 -14 -131 -14q-115 0 -181.5 57.5t-66.5 143.5q0 168 215 268h-299v141h315v1129h-315v139h807v-139h-316z" />
    <glyph glyph-name="iogonek" unicode="&#x12f;" 
d="M1055 135v-135h-303q-147 -66 -200.5 -120t-53.5 -116q0 -96 112 -96q68 0 127 15l-16 -138q-72 -14 -131 -14q-115 0 -181.5 57.5t-66.5 143.5q0 168 215 268h-309v135h334v809h-324v133h494v-942h303zM614.5 1341q-55.5 0 -89 34t-33.5 86t33.5 87t89 35t90 -35
t34.5 -87t-34.5 -86t-90 -34z" />
    <glyph glyph-name="Idotaccent" unicode="&#x130;" 
d="M1018 1270h-316v-1129h316v-141h-807v141h315v1129h-315v139h807v-139zM612.5 1827q55.5 0 90 -35t34.5 -87t-34.5 -86t-90 -34t-89.5 34t-34 86t34 87t89.5 35z" />
    <glyph glyph-name="dotlessi" unicode="&#x131;" 
d="M752 135h303v-135h-807v135h334v809h-324v133h494v-942z" />
    <glyph glyph-name="IJ" unicode="&#x132;" 
d="M913 1264h-503v-1119h163v-145h-550v145h206v1119h-206v145h1067v-1024q0 -255 -131 -430q-151 -199 -539 -231l-21 131q295 29 405 161t109 381v867z" />
    <glyph glyph-name="ij" unicode="&#x133;" 
d="M100 0v135h193v813h-182v129h913v-966q0 -207 -140 -336t-382 -209l-51 133q164 64 273 142q134 96 134 259v848h-403v-813h198v-135h-553zM867 1548q34 48 100 58t116 -24t61 -95t-25 -111q-35 -50 -101 -59t-115 25t-59 96t23 110zM177 1548q33 48 99 58t116 -24
t62 -95q11 -61 -25 -111q-35 -50 -101 -59t-114 25t-59 96t22 110z" />
    <glyph glyph-name="Jcircumflex" unicode="&#x134;" 
d="M1016 1409v-942q0 -192 -100 -332q-52 -74 -149 -117t-230 -43q-217 0 -387 129l77 117q156 -98 304.5 -98t229.5 94t81 260v789h-418v143h592zM1051 1645l-76 -89l-258 166l-256 -166l-78 89l279 219h114z" />
    <glyph glyph-name="jcircumflex" unicode="&#x135;" 
d="M911 1077v-907q0 -260 -174 -403.5t-512 -200.5l-28 131q260 43 402 150.5t142 312.5v784h-450v133h620zM420 1372l278 244h115l274 -244l-77 -84l-254 187l-254 -187z" />
    <glyph glyph-name="Kcommaaccent" unicode="&#x136;" 
d="M668 -145q47 0 78.5 -31t31.5 -78t-30 -111l-103 -221h-102l59 242q-45 35 -45 86t32 82t79 31zM958 1409h203l-553 -645l592 -764h-219l-580 754zM217 0v1409h174v-1409h-174z" />
    <glyph glyph-name="kcommaaccent" unicode="&#x137;" 
d="M633 -145q47 0 78.5 -31t31.5 -78t-30 -111l-103 -221h-102l59 242q-45 35 -45 86t32 82t79 31zM621 592l544 -592h-225l-532 590l479 487h221zM387 0h-170v1513l170 21v-1534z" />
    <glyph glyph-name="kgreenlandic" unicode="&#x138;" 
d="M606 590l547 -590h-225l-533 580l479 497h222zM377 0h-170v1077h170v-1077z" />
    <glyph glyph-name="Lacute" unicode="&#x139;" 
d="M279 1409h176v-1251h643l-21 -158h-798v1409zM612 1708l-436 -160l-45 90l406 215z" />
    <glyph glyph-name="lacute" unicode="&#x13a;" 
d="M625 1513v-1249q0 -145 178 -145q86 0 182 37l45 -123q-102 -55 -250 -55t-236.5 79.5t-88.5 216.5v1104h-332v135h502zM686 2042l90 -146l-411 -184l-58 94z" />
    <glyph glyph-name="Lcommaaccent" unicode="&#x13b;" 
d="M686 -145q47 0 79 -31t32 -78t-31 -111l-102 -221h-103l60 242q-45 35 -45 86t31.5 82t78.5 31zM279 1409h176v-1251h643l-21 -158h-798v1409z" />
    <glyph glyph-name="lcommaaccent" unicode="&#x13c;" 
d="M745.5 -145q47.5 0 79 -31t31.5 -78t-31 -111l-102 -221h-102l59 242q-45 35 -45 86t31.5 82t79 31zM625 1513v-1249q0 -145 178 -145q86 0 182 37l45 -123q-102 -55 -250 -55t-236.5 79.5t-88.5 216.5v1104h-332v135h502z" />
    <glyph glyph-name="Lcaron" unicode="&#x13d;" 
d="M279 1409h176v-1251h643l-21 -158h-798v1409zM782 1407l-108 -363l-96 15l51 366z" />
    <glyph glyph-name="lcaron" unicode="&#x13e;" 
d="M625 1513v-1249q0 -145 178 -145q86 0 182 37l45 -123q-102 -55 -250 -55t-236.5 79.5t-88.5 216.5v1104h-332v135h502zM934 1511l-109 -362l-96 14l51 367z" />
    <glyph glyph-name="Ldot" unicode="&#x13f;" 
d="M966.5 895q55.5 0 90.5 -35t35 -87t-35 -86t-90.5 -34t-89 34t-33.5 86t33.5 87t89 35zM279 1409h176v-1251h643l-21 -158h-798v1409z" />
    <glyph glyph-name="ldot" unicode="&#x140;" 
d="M1147 903q55 0 90 -34.5t35 -86.5t-35 -86t-90 -34t-89 33.5t-34 85.5t34 87t89 35zM625 1513v-1249q0 -145 178 -145q86 0 182 37l45 -123q-102 -55 -250 -55t-236.5 79.5t-88.5 216.5v1104h-332v135h502z" />
    <glyph glyph-name="Lslash" unicode="&#x141;" 
d="M274 0v549l-116 -72l-74 115l190 117v700h177v-592l337 211l76 -113l-413 -256v-501h643l-21 -158h-799z" />
    <glyph glyph-name="lslash" unicode="&#x142;" 
d="M455 274v353l-140 -84l-71 110l211 127v598h-332v135h502v-626l184 114l72 -110l-256 -160v-467q0 -145 178 -145q86 0 182 37l45 -123q-102 -55 -250.5 -55.5t-236.5 79.5t-88 217z" />
    <glyph glyph-name="Nacute" unicode="&#x143;" 
d="M336 709v-709h-164v1409h238l499 -1212h9q-25 295 -25 505v707h164v-1409h-246l-492 1206h-8q25 -319 25 -497zM858 1708l-436 -160l-45 90l405 215z" />
    <glyph glyph-name="nacute" unicode="&#x144;" 
d="M207 1077h145l13 -149q66 82 162 128t194 46q303 0 303 -320v-782h-170v655q0 178 -34 245t-136 67t-181 -53.5t-126 -127.5v-786h-170v1077zM758 1612l90 -146l-412 -184l-57 94z" />
    <glyph glyph-name="Ncommaaccent" unicode="&#x145;" 
d="M620.5 -145q47.5 0 79 -31t31.5 -78t-31 -111l-102 -221h-102l59 242q-45 35 -45 86t31.5 82t79 31zM336 709v-709h-164v1409h238l499 -1212h9q-25 295 -25 505v707h164v-1409h-246l-492 1206h-8q25 -319 25 -497z" />
    <glyph glyph-name="ncommaaccent" unicode="&#x146;" 
d="M622.5 -145q47.5 0 79 -31t31.5 -78t-31 -111l-102 -221h-102l59 242q-45 35 -45 86t31.5 82t79 31zM207 1077h145l13 -149q66 82 162 128t194 46q303 0 303 -320v-782h-170v655q0 178 -34 245t-136 67t-181 -53.5t-126 -127.5v-786h-170v1077z" />
    <glyph glyph-name="Ncaron" unicode="&#x147;" 
d="M336 709v-709h-164v1409h238l499 -1212h9q-25 295 -25 505v707h164v-1409h-246l-492 1206h-8q25 -319 25 -497zM946 1765l-274 -221h-115l-278 221l77 86l256 -165l258 165z" />
    <glyph glyph-name="ncaron" unicode="&#x148;" 
d="M207 1077h145l13 -149q66 82 162 128t194 46q303 0 303 -320v-782h-170v655q0 178 -34 245t-136 67t-181 -53.5t-126 -127.5v-786h-170v1077zM948 1536l-274 -244h-115l-278 244l81 84l254 -186l254 186z" />
    <glyph glyph-name="napostrophe" unicode="&#x149;" 
d="M223 1077h146l14 -149q63 82 160.5 128t195.5 46q303 0 303 -320v-782h-170v655q0 178 -34 245q-36 67 -138 67t-180 -53.5t-127 -127.5v-786h-170v1077zM201 1534q47 0 78.5 -32t31.5 -78t-53 -156l-86 -183h-100l61 248q-47 43 -47 90t34 79t81 32z" />
    <glyph glyph-name="Eng" unicode="&#x14a;" 
d="M1057 1409v-1421q0 -299 -355 -422l-47 139q135 51 183 117q47 66 45 178h-72l-492 1206h-8q25 -319 25 -497v-709h-164v1409h238l499 -1212h9q-25 295 -25 505v707h164z" />
    <glyph glyph-name="eng" unicode="&#x14b;" 
d="M1024 782v-725q0 -271 -137 -386q-61 -50 -178 -103l-64 125q119 55 164 122t45 232v608q0 180 -34 246t-136 66q-102 -1 -181 -55t-126 -126v-786h-170v1077h145l13 -149q65 82 161 128t195 46q303 -1 303 -320z" />
    <glyph glyph-name="Omacron" unicode="&#x14c;" 
d="M950 704.5q0 288.5 -79.5 434t-256 145.5t-256 -146.5t-79.5 -437.5q0 -575 335 -575q174 0 255 145.5t81 434zM1133 707q0 -332 -134.5 -531t-385.5 -199t-384 195t-133 527.5t134.5 533.5t384 201t384 -197.5t134.5 -529.5zM338 1628v131h551v-131h-551z" />
    <glyph glyph-name="omacron" unicode="&#x14d;" 
d="M614.5 117q280.5 0 280.5 423t-281 423t-280.5 -423t281 -423zM617 1102q222 0 341 -150.5t119 -407.5t-120.5 -412t-343 -155t-342 151t-119.5 409t121.5 411.5t343.5 153.5zM338 1384v132h551v-132h-551z" />
    <glyph glyph-name="Obreve" unicode="&#x14e;" 
d="M950 704.5q0 288.5 -79.5 434t-256 145.5t-256 -146.5t-79.5 -437.5q0 -575 335 -575q174 0 255 145.5t81 434zM1133 707q0 -332 -134.5 -531t-385.5 -199t-384 195t-133 527.5t134.5 533.5t384 201t384 -197.5t134.5 -529.5zM611 1554q-120 0 -204.5 67t-97.5 177
l117 25q49 -137 187 -137t188 137l117 -25q-12 -111 -99.5 -177.5t-207.5 -66.5z" />
    <glyph glyph-name="obreve" unicode="&#x14f;" 
d="M614.5 117q280.5 0 280.5 423t-281 423t-280.5 -423t281 -423zM617 1102q222 0 341 -150.5t119 -407.5t-120.5 -412t-343 -155t-342 151t-119.5 409t121.5 411.5t343.5 153.5zM611 1290q-130 0 -208.5 85t-93.5 192l117 26q49 -172 186 -172t189 172l117 -26
q-14 -106 -95.5 -191.5t-211.5 -85.5z" />
    <glyph glyph-name="Ohungarumlaut" unicode="&#x150;" 
d="M950 704.5q0 288.5 -79.5 434t-256 145.5t-256 -146.5t-79.5 -437.5q0 -575 335 -575q174 0 255 145.5t81 434zM1133 707q0 -332 -134.5 -531t-385.5 -199t-384 195t-133 527.5t134.5 533.5t384 201t384 -197.5t134.5 -529.5zM889 1954l149 -78l-221 -334l-106 57z
M532 1954l152 -72l-199 -336l-110 53z" />
    <glyph glyph-name="ohungarumlaut" unicode="&#x151;" 
d="M614.5 117q280.5 0 280.5 423t-281 423t-280.5 -423t281 -423zM617 1102q222 0 341 -150.5t119 -407.5t-120.5 -412t-343 -155t-342 151t-119.5 409t121.5 411.5t343.5 153.5zM877 1710l149 -78l-221 -334l-107 58zM520 1710l152 -72l-199 -335l-111 53z" />
    <glyph glyph-name="OE" unicode="&#x152;" 
d="M435 1288q-130 0 -189 -138q-60 -138 -60 -448t60 -445q60 -136 189 -136q128 0 189 136q60 135 60 447t-59 448q-60 136 -190 136zM432 1434q76 0 146 -25h667l-20 -143h-500q119 -141 133 -480h316v-143h-316q-8 -348 -141 -500h549v-143h-693q-74 -23 -141 -23
q-434 0 -434 723q0 358 110 546t324 188z" />
    <glyph glyph-name="oe" unicode="&#x153;" 
d="M916 958q-95 0 -141 -78t-58 -270h377q-4 180 -43 264q-40 84 -135 84zM362 965q-98 1 -141 -103t-43 -325t43 -321t142 -99q99 0 141 95q41 96 41 322q-1 226 -43 328t-140 103zM920 1102q340 0 340 -531q0 -45 -5 -94h-538q14 -186 66 -271q51 -85 151 -85t205 80
l80 -117q-133 -106 -279 -107q-223 0 -307 207q-41 -100 -109 -153t-182 -54q-174 1 -260 149t-86 412t85 414t261 150q122 0 188 -54t105 -159q84 213 285 213z" />
    <glyph glyph-name="Racute" unicode="&#x154;" 
d="M911 1016q0 133 -77.5 193.5t-243.5 60.5h-205v-527h207q319 1 319 273zM1100 1016q0 -154 -95.5 -253t-250.5 -136l420 -627h-211l-385 606h-193v-606h-176v1409h360q531 0 531 -393zM860 1708l-436 -160l-45 90l405 215z" />
    <glyph glyph-name="racute" unicode="&#x155;" 
d="M193 0v135h251v809h-251v133h399l20 -207q47 112 129 172q81 60 169 60t155 -17l-31 -167q-70 18 -125 18q-104 0 -185 -86t-110 -205v-510h304v-135h-725zM776 1608l90 -146l-411 -184l-58 94z" />
    <glyph glyph-name="Rcommaaccent" unicode="&#x156;" 
d="M618.5 -145q47.5 0 79 -31t31.5 -78t-31 -111l-102 -221h-102l59 242q-45 35 -45 86t31.5 82t79 31zM911 1016q0 133 -77.5 193.5t-243.5 60.5h-205v-527h207q319 1 319 273zM1100 1016q0 -154 -95.5 -253t-250.5 -136l420 -627h-211l-385 606h-193v-606h-176v1409h360
q531 0 531 -393z" />
    <glyph glyph-name="rcommaaccent" unicode="&#x157;" 
d="M534.5 -145q47.5 0 79 -31t31.5 -78t-31 -111l-102 -221h-102l59 242q-45 35 -45 86t31.5 82t79 31zM193 0v135h251v809h-251v133h399l20 -207q47 112 129 172q81 60 169 60t155 -17l-31 -167q-70 18 -125 18q-104 0 -185 -86t-110 -205v-510h304v-135h-725z" />
    <glyph glyph-name="Rcaron" unicode="&#x158;" 
d="M911 1016q0 133 -77.5 193.5t-243.5 60.5h-205v-527h207q319 1 319 273zM1100 1016q0 -154 -95.5 -253t-250.5 -136l420 -627h-211l-385 606h-193v-606h-176v1409h360q531 0 531 -393zM948 1765l-274 -221h-115l-278 221l77 86l256 -165l258 165z" />
    <glyph glyph-name="rcaron" unicode="&#x159;" 
d="M193 0v135h251v809h-251v133h399l20 -207q47 112 129 172q81 60 169 60t155 -17l-31 -167q-70 18 -125 18q-104 0 -185 -86t-110 -205v-510h304v-135h-725zM967 1532l-275 -244h-114l-279 244l82 84l254 -186l254 186z" />
    <glyph glyph-name="Sacute" unicode="&#x15a;" 
d="M1098 389q0 -184 -136.5 -298t-377.5 -114q-309 0 -494 179l105 118q160 -150 393 -149q137 0 232 67.5t95 183t-64.5 175t-269 120.5t-317 151.5t-112.5 249.5t127 260.5t329 101.5q260 0 449 -162l-105 -115q-143 129 -340 129q-123 0 -202.5 -54t-79.5 -150.5
t76.5 -152t276.5 -113.5t307.5 -150.5t107.5 -276.5zM870 1708l-436 -160l-45 90l406 215z" />
    <glyph glyph-name="sacute" unicode="&#x15b;" 
d="M573 117q123 0 196 47t73 126t-49.5 123t-224 88t-265 109.5t-90.5 198.5t112.5 213t295.5 80q229 0 391 -121l-76 -115q-139 96 -311 97q-236 0 -236 -142q0 -72 57.5 -107.5t231.5 -82.5t261 -120t87 -198t-68 -199q-124 -136 -381.5 -136.5t-424.5 145.5l96 110
q141 -116 325 -116zM772 1608l90 -146l-411 -184l-58 94z" />
    <glyph glyph-name="Scircumflex" unicode="&#x15c;" 
d="M1098 389q0 -184 -136.5 -298t-377.5 -114q-309 0 -494 179l105 118q160 -150 393 -149q137 0 232 67.5t95 183t-64.5 175t-269 120.5t-317 151.5t-112.5 249.5t127 260.5t329 101.5q260 0 449 -162l-105 -115q-143 129 -340 129q-123 0 -202.5 -54t-79.5 -150.5
t76.5 -152t276.5 -113.5t307.5 -150.5t107.5 -276.5zM958 1645l-75 -89l-258 166l-256 -166l-78 89l278 219h115z" />
    <glyph glyph-name="scircumflex" unicode="&#x15d;" 
d="M573 117q123 0 196 47t73 126t-49.5 123t-224 88t-265 109.5t-90.5 198.5t112.5 213t295.5 80q229 0 391 -121l-76 -115q-139 96 -311 97q-236 0 -236 -142q0 -72 57.5 -107.5t231.5 -82.5t261 -120t87 -198t-68 -199q-124 -136 -381.5 -136.5t-424.5 145.5l96 110
q141 -116 325 -116zM295 1372l278 244h115l275 -244l-78 -84l-254 187l-254 -187z" />
    <glyph glyph-name="Scedilla" unicode="&#x15e;" 
d="M1098 396q0 -177 -118 -288.5t-331 -127.5v-97q94 -8 141.5 -56t47.5 -114q0 -96 -72 -148t-188.5 -52t-202.5 49l55 98q61 -33 139 -33q123 0 123 86q0 51 -44 69.5t-134 18.5l14 179q-270 16 -438 176l105 118q160 -150 393 -149q137 0 232 67.5t95 183t-64.5 175
t-269 120.5t-317 151.5t-112.5 249.5t127 260.5t329 101.5q260 0 449 -162l-105 -115q-143 129 -340 129q-123 0 -202.5 -54t-79.5 -150.5t76.5 -152t276.5 -113.5t307.5 -150.5t107.5 -269.5z" />
    <glyph glyph-name="scedilla" unicode="&#x15f;" 
d="M1026 296q0 -142 -106.5 -221t-272.5 -93v-99q94 -8 141.5 -56t47.5 -114q0 -96 -72 -148t-188.5 -52t-202.5 49l55 98q61 -33 139 -33q123 0 123 86q0 51 -44 69.5t-134 18.5l14 179q-223 10 -374 143l96 110q141 -117 325 -116q123 0 196 47t73 126t-49.5 123t-224 88
t-265 109.5t-90.5 198.5t112.5 213t295.5 80q229 0 391 -121l-76 -115q-139 96 -311 97q-236 0 -236 -142q0 -72 57.5 -107.5t231.5 -82.5t261 -120t87 -215z" />
    <glyph glyph-name="Scaron" unicode="&#x160;" 
d="M1098 389q0 -184 -136.5 -298t-377.5 -114q-309 0 -494 179l105 118q160 -150 393 -149q137 0 232 67.5t95 183t-64.5 175t-269 120.5t-317 151.5t-112.5 249.5t127 260.5t329 101.5q260 0 449 -162l-105 -115q-143 129 -340 129q-123 0 -202.5 -54t-79.5 -150.5
t76.5 -152t276.5 -113.5t307.5 -150.5t107.5 -276.5zM958 1765l-274 -221h-115l-278 221l78 86l256 -165l258 165z" />
    <glyph glyph-name="scaron" unicode="&#x161;" 
d="M573 117q123 0 196 47t73 126t-49.5 123t-224 88t-265 109.5t-90.5 198.5t112.5 213t295.5 80q229 0 391 -121l-76 -115q-139 96 -311 97q-236 0 -236 -142q0 -72 57.5 -107.5t231.5 -82.5t261 -120t87 -198t-68 -199q-124 -136 -381.5 -136.5t-424.5 145.5l96 110
q141 -116 325 -116zM963 1532l-275 -244h-115l-278 244l82 84l254 -186l254 186z" />
    <glyph glyph-name="Tcedilla" unicode="&#x162;" 
d="M672 0v-117q94 -8 141 -56t47 -114q0 -96 -71.5 -148t-188.5 -52t-203 49l56 98q61 -33 139 -33q123 0 123 86q0 51 -44 69.5t-134 18.5l16 199h-29v1260h-442v149h1063l-19 -149h-428v-1260h-26z" />
    <glyph glyph-name="tcedilla" unicode="&#x163;" 
d="M989 -287q0 -96 -71.5 -148t-188.5 -52t-203 49l56 98q61 -33 139 -33q123 0 123 86q0 51 -44 69.5t-134 18.5l14 185q-127 23 -197.5 106.5t-70.5 208.5v645h-248v131h248v246l170 20v-266h372l-20 -131h-352v-643q0 -92 49 -138t157.5 -46t206.5 51l66 -117
q-102 -66 -260 -76v-94q94 -8 141 -56t47 -114z" />
    <glyph glyph-name="Tcaron" unicode="&#x164;" 
d="M698 0h-174v1260h-442v149h1063l-19 -149h-428v-1260zM946 1765l-274 -221h-115l-278 221l77 86l256 -165l258 165z" />
    <glyph glyph-name="tcaron" unicode="&#x165;" 
d="M772 -23q-170 0 -265 89.5t-95 234.5v645h-248v131h248v246l170 20v-266h372l-20 -131h-352v-643q0 -92 49 -138t157.5 -46t206.5 51l66 -117q-119 -76 -289 -76zM903 1559l-110 -373l-99 14l51 377z" />
    <glyph glyph-name="Tbar" unicode="&#x166;" 
d="M698 1260v-406h271v-137h-271v-717h-174v717h-268v137h268v406h-442v149h1063l-19 -149h-428z" />
    <glyph glyph-name="tbar" unicode="&#x167;" 
d="M772 -23q-170 0 -265 89.5t-95 234.5v289h-226v131h226v225h-248v131h248v246l170 20v-266h372l-20 -131h-352v-225h354v-131h-354v-287q0 -92 49 -138t157.5 -46t206.5 51l66 -117q-119 -76 -289 -76z" />
    <glyph glyph-name="Utilde" unicode="&#x168;" 
d="M1079 1409v-952q0 -215 -127 -347.5t-341 -132.5t-337.5 131.5t-123.5 348.5v952h174v-960q0 -160 74.5 -240t214.5 -80t215 80t75 240v960h176zM719 1579q-66 0 -132.5 50t-90.5 50q-53 0 -105 -90l-110 49q76 172 227 172q68 0 133.5 -49t89.5 -49q53 0 105 90l110 -49
q-80 -174 -227 -174z" />
    <glyph glyph-name="utilde" unicode="&#x169;" 
d="M377 1077v-764q0 -104 44 -152t134 -48t171 50t126 122v792h170v-1077h-145l-15 145q-61 -80 -154.5 -124t-189.5 -44q-154 0 -232.5 82t-78.5 234v784h170zM719 1335q-66 0 -132.5 50.5t-90.5 50.5q-53 0 -105 -90l-110 49q76 172 227 172q68 0 133.5 -49.5t89.5 -49.5
q53 0 105 91l110 -50q-80 -174 -227 -174z" />
    <glyph glyph-name="Umacron" unicode="&#x16a;" 
d="M1079 1409v-952q0 -215 -127 -347.5t-341 -132.5t-337.5 131.5t-123.5 348.5v952h174v-960q0 -160 74.5 -240t214.5 -80t215 80t75 240v960h176zM338 1628v131h551v-131h-551z" />
    <glyph glyph-name="umacron" unicode="&#x16b;" 
d="M377 1077v-764q0 -104 44 -152t134 -48t171 50t126 122v792h170v-1077h-145l-15 145q-61 -80 -154.5 -124t-189.5 -44q-154 0 -232.5 82t-78.5 234v784h170zM338 1384v132h551v-132h-551z" />
    <glyph glyph-name="Ubreve" unicode="&#x16c;" 
d="M1079 1409v-952q0 -215 -127 -347.5t-341 -132.5t-337.5 131.5t-123.5 348.5v952h174v-960q0 -160 74.5 -240t214.5 -80t215 80t75 240v960h176zM611 1554q-120 0 -204.5 67t-97.5 177l117 25q49 -137 187 -137t188 137l117 -25q-12 -111 -99.5 -177.5t-207.5 -66.5z" />
    <glyph glyph-name="ubreve" unicode="&#x16d;" 
d="M377 1077v-764q0 -104 44 -152t134 -48t171 50t126 122v792h170v-1077h-145l-15 145q-61 -80 -154.5 -124t-189.5 -44q-154 0 -232.5 82t-78.5 234v784h170zM611 1290q-130 0 -208.5 85t-93.5 192l117 26q49 -172 186 -172t189 172l117 -26q-14 -106 -95.5 -191.5
t-211.5 -85.5z" />
    <glyph glyph-name="Uring" unicode="&#x16e;" 
d="M1079 1409v-952q0 -215 -127 -347.5t-341 -132.5t-337.5 131.5t-123.5 348.5v952h174v-960q0 -160 74.5 -240t214.5 -80t215 80t75 240v960h176zM615 1835q-52 0 -81.5 -30.5t-29.5 -85t29.5 -85t81 -30.5t81 30.5t29.5 84.5t-29 85t-81 31zM614.5 1929q98.5 0 163 -60.5
t64.5 -148.5t-64.5 -148.5t-163 -60.5t-163 60.5t-64.5 148.5t64.5 148.5t163 60.5z" />
    <glyph glyph-name="uring" unicode="&#x16f;" 
d="M377 1077v-764q0 -104 44 -152t134 -48t171 50t126 122v792h170v-1077h-145l-15 145q-61 -80 -154.5 -124t-189.5 -44q-154 0 -232.5 82t-78.5 234v784h170zM615 1591q-52 0 -81.5 -30.5t-29.5 -84.5t29.5 -85t81 -31t81 30.5t29.5 85t-29 85t-81 30.5zM614.5 1686
q98.5 0 163 -60.5t64.5 -148.5t-64.5 -148.5t-163 -60.5t-163 60.5t-64.5 148.5t64.5 148.5t163 60.5z" />
    <glyph glyph-name="Uhungarumlaut" unicode="&#x170;" 
d="M1079 1409v-952q0 -215 -127 -347.5t-341 -132.5t-337.5 131.5t-123.5 348.5v952h174v-960q0 -160 74.5 -240t214.5 -80t215 80t75 240v960h176zM889 1954l149 -78l-221 -334l-106 57zM532 1954l152 -72l-199 -336l-110 53z" />
    <glyph glyph-name="uhungarumlaut" unicode="&#x171;" 
d="M377 1077v-764q0 -104 44 -152t134 -48t171 50t126 122v792h170v-1077h-145l-15 145q-61 -80 -154.5 -124t-189.5 -44q-154 0 -232.5 82t-78.5 234v784h170zM877 1710l149 -78l-221 -334l-107 58zM520 1710l152 -72l-199 -335l-111 53z" />
    <glyph glyph-name="Uogonek" unicode="&#x172;" 
d="M1079 1409v-952q0 -172 -83 -293t-228 -164q-147 -66 -199.5 -120t-52.5 -116q0 -96 113 -96q68 0 127 15l-17 -138q-72 -14 -131 -14q-115 0 -181.5 57.5t-66.5 143.5q0 152 179 250q-182 23 -285.5 150.5t-103.5 324.5v952h174v-960q0 -160 74.5 -240t214.5 -80t215 80
t75 240v960h176z" />
    <glyph glyph-name="uogonek" unicode="&#x173;" 
d="M1022 1077v-1077q-147 -66 -200.5 -120t-53.5 -116q0 -96 113 -96q68 0 127 15l-17 -138q-72 -14 -131 -14q-115 0 -181.5 57.5t-66.5 143.5q0 182 262 288l-12 125q-61 -80 -154.5 -124t-189.5 -44q-154 0 -232.5 82t-78.5 234v784h170v-764q0 -104 44 -152t134 -48
t171 50t126 122v792h170z" />
    <glyph glyph-name="Wcircumflex" unicode="&#x174;" 
d="M1004 0h-232l-158 1034h-8l-160 -1034h-237l-199 1409h176l146 -1198h8l168 1034h217l156 -1026h8l168 1190h162zM948 1645l-76 -89l-258 166l-256 -166l-77 89l278 219h115z" />
    <glyph glyph-name="wcircumflex" unicode="&#x175;" 
d="M762 0l-139 774h-9l-145 -774h-236l-196 1077h174l139 -946h8l164 809h203l154 -805h8l139 942h166l-188 -1077h-242zM281 1372l278 244h115l274 -244l-78 -84l-254 187l-254 -187z" />
    <glyph glyph-name="Ycircumflex" unicode="&#x176;" 
d="M702 0h-176v543l-477 866h195l374 -707l379 707h183l-478 -864v-545zM954 1645l-75 -89l-258 166l-256 -166l-78 89l278 219h115z" />
    <glyph glyph-name="ycircumflex" unicode="&#x177;" 
d="M1102 1077l-379 -1083q-66 -186 -174.5 -297t-304.5 -131l-27 137q158 27 227.5 93.5t116.5 203.5h-57l-377 1077h182l312 -948l305 948h176zM281 1372l278 244h115l274 -244l-78 -84l-254 187l-254 -187z" />
    <glyph glyph-name="Ydieresis" unicode="&#x178;" 
d="M702 0h-176v543l-477 866h195l374 -707l379 707h183l-478 -864v-545zM830 1571q-48 0 -78.5 31.5t-30.5 77.5t30.5 78t78.5 32t80 -32t32 -79t-32 -77.5t-80 -30.5zM407.5 1571q-47.5 0 -79 30.5t-31.5 77.5t31.5 79t79 32t79 -32t31.5 -78t-31.5 -77.5t-79 -31.5z" />
    <glyph glyph-name="Zacute" unicode="&#x179;" 
d="M147 0v143l746 1117h-672v149h860v-143l-741 -1114h739l-20 -152h-912zM899 1708l-436 -160l-45 90l405 215z" />
    <glyph glyph-name="zacute" unicode="&#x17a;" 
d="M211 0v129l598 801h-551v147h756v-131l-596 -801h602l-23 -145h-786zM778 1608l90 -146l-411 -184l-58 94z" />
    <glyph glyph-name="Zdotaccent" unicode="&#x17b;" 
d="M147 0v143l746 1117h-672v149h860v-143l-741 -1114h739l-20 -152h-912zM649.5 1827q55.5 0 90 -35t34.5 -87t-34.5 -86t-90 -34t-89.5 34t-34 86t34 87t89.5 35z" />
    <glyph glyph-name="zdotaccent" unicode="&#x17c;" 
d="M211 0v129l598 801h-551v147h756v-131l-596 -801h602l-23 -145h-786zM633 1583q55 0 90 -35t35 -87t-35 -86t-90 -34t-89 34t-34 86t34 87t89 35z" />
    <glyph glyph-name="Zcaron" unicode="&#x17d;" 
d="M147 0v143l746 1117h-672v149h860v-143l-741 -1114h739l-20 -152h-912zM987 1765l-274 -221h-115l-279 221l78 86l256 -165l258 165z" />
    <glyph glyph-name="zcaron" unicode="&#x17e;" 
d="M211 0v129l598 801h-551v147h756v-131l-596 -801h602l-23 -145h-786zM969 1532l-275 -244h-114l-279 244l82 84l254 -186l254 186z" />
    <glyph glyph-name="florin" unicode="&#x192;" 
d="M740 1534q138 0 266 -55l-58 -125q-90 41 -183 41t-131 -39t-38 -121v-158h264l-20 -133h-244v-864q0 -228 -68 -330t-245 -182l-62 123q117 55 162 123t45 233v897h-172v133h172v154q0 135 87 219t225 84z" />
    <glyph glyph-name="AEacute" unicode="&#x1fc;" 
d="M643 508l-151 764l-189 -764h340zM1141 786v-143h-355l107 -500h352v-143h-495l-74 360h-420l-100 -360h-181l414 1409h770l-20 -143h-486l107 -480h381zM985 1708l-436 -160l-45 90l405 215z" />
    <glyph glyph-name="aeacute" unicode="&#x1fd;" 
d="M520 539h-88q-260 0 -260 -220q0 -102 41 -156t109 -54t117.5 47t109.5 151q-29 95 -29 232zM889 958q-98 0 -143.5 -78.5t-59.5 -269.5h389q-4 178 -46 263t-140 85zM891 1102q352 0 352 -531q0 -45 -4 -94h-553q14 -184 69.5 -270t157 -86t209.5 80l78 -117
q-133 -106 -285 -107q-197 0 -303 183q-72 -98 -142.5 -140.5t-170.5 -42.5q-143 0 -227 90.5t-84 250t111.5 248.5t326.5 89h94v90q0 213 -186 213q-86 0 -215 -55l-45 129q145 70 276 70q211 0 283 -180q29 84 95.5 132t162.5 48zM776 1608l90 -146l-411 -184l-58 94z" />
    <glyph glyph-name="Oslashacute" unicode="&#x1fe;" 
d="M614 125q174 0 254 145.5t80 434.5q0 387 -123 507l-311 -1075q47 -12 100 -12zM281 700q0 -379 122 -501l310 1073q-43 12 -99 12q-174 0 -253.5 -146.5t-79.5 -437.5zM1133 705q0 -330 -134.5 -529t-384.5 -199q-66 0 -131 17l-65 -219l-152 39l76 245
q-246 174 -246 641q0 332 134.5 533t383.5 201q68 0 134 -17l65 228l154 -39l-80 -254q246 -178 246 -647zM424 1548l-45 90l405 215l76 -145z" />
    <glyph glyph-name="oslashacute" unicode="&#x1ff;" 
d="M614 117q281 0 281 424q0 268 -107 362l-241 -780q30 -6 67 -6zM616 961q-283 0 -282 -422q0 -274 108 -367l242 782q-31 7 -68 7zM1077 541q0 -254 -120.5 -409t-342.5 -155q-47 0 -102 11l-76 -254l-143 41l86 264q-227 137 -227 500q0 256 121.5 409.5t342.5 153.5
q45 0 101 -10l78 247l143 -41l-84 -258q223 -137 223 -499zM436 1278l-57 94l379 236l90 -146z" />
    <glyph glyph-name="Scommaaccent" unicode="&#x218;" 
d="M614.5 -145q47.5 0 79 -31t31.5 -78t-31 -111l-102 -221h-103l60 242q-45 35 -45 86t31.5 82t79 31zM1098 389q0 -184 -136.5 -298t-377.5 -114q-309 0 -494 179l105 118q160 -150 393 -149q137 0 232 67.5t95 183t-64.5 175t-269 120.5t-317 151.5t-112.5 249.5
t127 260.5t329 101.5q260 0 449 -162l-105 -115q-143 129 -340 129q-123 0 -202.5 -54t-79.5 -150.5t76.5 -152t276.5 -113.5t307.5 -150.5t107.5 -276.5z" />
    <glyph glyph-name="scommaaccent" unicode="&#x219;" 
d="M614.5 -145q47.5 0 79 -31t31.5 -78t-31 -111l-102 -221h-103l60 242q-45 35 -45 86t31.5 82t79 31zM573 117q123 0 196 47t73 126t-49.5 123t-224 88t-265 109.5t-90.5 198.5t112.5 213t295.5 80q229 0 391 -121l-76 -115q-139 96 -311 97q-236 0 -236 -142
q0 -72 57.5 -107.5t231.5 -82.5t261 -120t87 -198t-68 -199q-124 -136 -381.5 -136.5t-424.5 145.5l96 110q141 -116 325 -116z" />
    <glyph glyph-name="uni021A" unicode="&#x21a;" 
d="M618.5 -145q47.5 0 79 -31t31.5 -78t-31 -111l-102 -221h-102l59 242q-45 35 -45 86t31.5 82t79 31zM698 0h-174v1260h-442v149h1063l-19 -149h-428v-1260z" />
    <glyph glyph-name="uni021B" unicode="&#x21b;" 
d="M766 -145q47 0 79 -31t32 -78t-31 -111l-103 -221h-102l59 242q-45 35 -45 86t32 82t79 31zM772 -23q-170 0 -265 89.5t-95 234.5v645h-248v131h248v246l170 20v-266h372l-20 -131h-352v-643q0 -92 49 -138t157.5 -46t206.5 51l66 -117q-119 -76 -289 -76z" />
    <glyph glyph-name="dotlessj" unicode="&#x237;" 
d="M911 1077v-907q0 -260 -174 -403.5t-512 -200.5l-28 131q260 43 402 150.5t142 312.5v784h-450v133h620z" />
    <glyph glyph-name="uni02BC" unicode="&#x2bc;" 
d="M600 1534q47 0 79 -32t32 -77t-52 -157l-86 -183h-100l62 248q-47 43 -47 90t32.5 79t79.5 32z" />
    <glyph glyph-name="circumflex" unicode="&#x2c6;" 
d="M281 1372l278 244h115l274 -244l-78 -84l-254 187l-254 -187z" />
    <glyph glyph-name="caron" unicode="&#x2c7;" 
d="M948 1532l-274 -244h-115l-278 244l81 84l254 -186l254 186z" />
    <glyph glyph-name="firsttonechinese" unicode="&#x2c9;" 
d="M338 1399v131h551v-131h-551z" />
    <glyph glyph-name="breve" unicode="&#x2d8;" 
d="M611 1290q-130 0 -209 85t-93 192l117 26q49 -172 186 -172t189 172l117 -26q-14 -105 -96 -191t-211 -86z" />
    <glyph glyph-name="dotaccent" unicode="&#x2d9;" 
d="M612 1583q55 0 90 -35t35 -87t-35 -86t-90 -34t-89 34t-34 86t34 87t89 35z" />
    <glyph glyph-name="ring" unicode="&#x2da;" 
d="M725 1476q0 54 -29 84t-81 31q-51 -1 -81 -31t-30 -84t30 -85t80 -31t81 31q30 31 30 85zM614 1686q98 0 163 -60t65 -149t-65 -149t-163 -60t-162 60t-65 148q1 88 65 150q64 60 162 60z" />
    <glyph glyph-name="ogonek" unicode="&#x2db;" 
d="M682 -332q68 0 127 15l-16 -138q-72 -14 -131 -14q-115 0 -182 57t-66 144q0 218 381 329l28 -61q-147 -66 -200 -120t-54 -116q0 -96 113 -96z" />
    <glyph glyph-name="tilde" unicode="&#x2dc;" 
d="M719 1335q-67 0 -133 50t-90 51q-53 0 -105 -90l-110 49q76 172 227 172q68 0 134 -49t89 -50q53 0 105 91l110 -50q-80 -174 -227 -174z" />
    <glyph glyph-name="hungarumlaut" unicode="&#x2dd;" 
d="M797 1710l149 -78l-221 -334l-107 58zM440 1710l152 -72l-199 -335l-110 53z" />
    <glyph glyph-name="gravecomb" unicode="&#x300;" horiz-adv-x="0" 
d="M850 1284l-51 -92l-420 168l94 145z" />
    <glyph glyph-name="acutecomb" unicode="&#x301;" horiz-adv-x="0" 
d="M856 1427l-436 -161l-47 92l405 215z" />
    <glyph glyph-name="uni0302" unicode="&#x302;" horiz-adv-x="0" 
d="M948 1313l-76 -88l-258 166l-256 -166l-77 88l276 219h115z" />
    <glyph glyph-name="tildecomb" unicode="&#x303;" horiz-adv-x="0" 
d="M723 1225q-66 0 -133.5 50t-91.5 50q-53 0 -105 -90l-110 49q76 172 227 172q68 0 133.5 -49t89.5 -49q53 0 105 90l110 -49q-75 -174 -225 -174z" />
    <glyph glyph-name="uni0304" unicode="&#x304;" horiz-adv-x="0" 
d="M340 1274v131h551v-131h-551z" />
    <glyph glyph-name="uni0306" unicode="&#x306;" horiz-adv-x="0" 
d="M612 1200q-121 0 -205.5 66.5t-97.5 175.5l117 26q47 -137 188 -137t189 137l117 -26q-12 -109 -99.5 -175.5t-208.5 -66.5z" />
    <glyph glyph-name="uni0307" unicode="&#x307;" horiz-adv-x="0" 
d="M614.5 1473q55.5 0 90 -35t34.5 -87t-34.5 -86t-90 -34t-89 33.5t-33.5 85.5t33.5 87.5t89 35.5z" />
    <glyph glyph-name="uni0308" unicode="&#x308;" horiz-adv-x="0" 
d="M827 1217q-47 0 -78.5 30.5t-31.5 77.5t31.5 79t78.5 32t79 -32t32 -79t-32 -77.5t-79 -30.5zM404 1217q-47 0 -79 30.5t-32 77.5t31.5 79t80 32t79 -32t30.5 -79t-31.5 -77.5t-78.5 -30.5z" />
    <glyph glyph-name="uni030A" unicode="&#x30a;" horiz-adv-x="0" 
d="M615 1481q-52 0 -81.5 -31t-29.5 -85t29.5 -85t81 -31t81 31t29.5 85t-29 85t-81 31zM614.5 1575q98.5 0 163 -60.5t64.5 -148.5t-64.5 -148.5t-163 -60.5t-163 60.5t-64.5 148.5t64.5 148.5t163 60.5z" />
    <glyph glyph-name="uni030B" unicode="&#x30b;" horiz-adv-x="0" 
d="M797 1599l149 -77l-221 -334l-107 57zM440 1599l152 -71l-199 -336l-110 53z" />
    <glyph glyph-name="uni030C" unicode="&#x30c;" horiz-adv-x="0" 
d="M948 1409l-276 -219h-115l-276 219l77 88l256 -166l258 166z" />
    <glyph glyph-name="uni0313" unicode="&#x313;" horiz-adv-x="0" 
d="M655 1561q47 0 79 -31t32 -74t-31 -115l-102 -221h-105l62 242q-45 33 -45 85t31.5 83t78.5 31z" />
    <glyph glyph-name="uni0314" unicode="&#x314;" horiz-adv-x="0" 
d="M807 1145q-47 0 -79 30.5t-32 78.5t31 112l102 219h103l-60 -239q46 -38 46 -88t-32 -81.5t-79 -31.5z" />
    <glyph glyph-name="uni0326" unicode="&#x326;" horiz-adv-x="0" 
d="M620.5 -145q47.5 0 79 -31t31.5 -78t-31 -111l-102 -221h-102l59 242q-45 35 -45 86t31.5 82t79 31z" />
    <glyph glyph-name="uni0327" unicode="&#x327;" horiz-adv-x="0" 
d="M700 -311q0 51 -44 69.5t-134 18.5l19 233h116v-149q94 -8 142.5 -57.5t48.5 -114.5q0 -94 -73 -146.5t-191 -52.5t-199 49l53 99q61 -33 140 -33q122 0 122 84z" />
    <glyph glyph-name="uni0335" unicode="&#x335;" horiz-adv-x="0" 
d="M262 567v138h703v-138h-703z" />
    <glyph glyph-name="uni0336" unicode="&#x336;" horiz-adv-x="0" 
d="M-51 567v138h1333v-138h-1333z" />
    <glyph glyph-name="tonos" unicode="&#x384;" 
d="M559 1651l189 -33l-138 -410l-129 23z" />
    <glyph glyph-name="dieresistonos" unicode="&#x385;" 
d="M843 1475q48 0 80 -32q31 -32 31 -79t-32 -78t-79 -31q-48 0 -80 31t-32 78t32 79t80 32zM383 1475q47 0 79 -32t32 -79t-32 -78t-79 -31t-80 31t-33 78t33 79t80 32zM803 1808l-123 -346l-133 21l59 360z" />
    <glyph glyph-name="Alphatonos" unicode="&#x386;" 
d="M844 506l-234 756l-235 -756h469zM330 360l-115 -360h-172l459 1409h225l459 -1409h-185l-112 360h-559zM199 1440l186 -31l-152 -369l-131 23z" />
    <glyph glyph-name="Epsilontonos" unicode="&#x388;" 
d="M434 788h522v-145h-522v-502h641v-141h-817v1409h799l-21 -143h-602v-478zM53 1628l187 -31l-152 -368l-131 22z" />
    <glyph glyph-name="Etatonos" unicode="&#x389;" 
d="M883 672h-537v-672h-174v1409h174v-596h537v596h174v-1409h-174v672zM-80 1440l186 -31l-151 -369l-131 23z" />
    <glyph glyph-name="Iotatonos" unicode="&#x38a;" 
d="M1018 1270h-316v-1129h316v-141h-807v141h315v1129h-315v139h807v-139zM-20 1440l186 -31l-152 -369l-131 23z" />
    <glyph glyph-name="Omicrontonos" unicode="&#x38c;" 
d="M950 704.5q0 288.5 -79.5 434t-256 145.5t-256 -146.5t-79.5 -437.5q0 -575 335 -575q174 0 255 145.5t81 434zM1133 707q0 -332 -134.5 -531t-385.5 -199t-384 195t-133 527.5t134.5 533.5t384 201t384 -197.5t134.5 -529.5zM-14 1440l186 -31l-152 -369l-131 23z" />
    <glyph glyph-name="Upsilontonos" unicode="&#x38e;" 
d="M702 0h-176v543l-475 862l-149 -365l-131 23l96 377l186 -31h191l374 -707l379 707h183l-478 -864v-545z" />
    <glyph glyph-name="Omegatonos" unicode="&#x38f;" 
d="M614 1286q-168 0 -251.5 -135t-83.5 -436q0 -453 266 -584v-131h-426v141h229v9q-252 131 -252 565q0 342 139.5 530.5t379 188.5t379 -188.5t139.5 -530.5q0 -426 -256 -565v-9h233v-141h-424v131q264 131 264 584q0 299 -84 435t-252 136zM-16 1440l186 -31l-152 -369
l-131 23z" />
    <glyph glyph-name="iotadieresistonos" unicode="&#x390;" 
d="M664 1077v-811q0 -147 178 -147q86 0 182 37l45 -123q-94 -55 -247.5 -55.5t-240.5 81.5t-87 226v649h-365l21 143h514zM787 1475q48 0 80 -32t32 -79t-31.5 -78t-80 -31t-80 31t-31.5 78t31.5 79t79.5 32zM328 1475q47 0 78.5 -32t31.5 -79t-31.5 -78t-78.5 -31t-80 31
t-33 78t33 79t80 32zM748 1808l-123 -346l-133 21l59 360z" />
    <glyph glyph-name="Alpha" unicode="&#x391;" 
d="M844 506l-234 756l-235 -756h469zM330 360l-115 -360h-172l459 1409h225l459 -1409h-185l-112 360h-559z" />
    <glyph glyph-name="Beta" unicode="&#x392;" 
d="M920 395q0 268 -304 269h-243v-519h235q312 0 312 250zM862 1044q0 223 -276 224h-213v-459h229q260 -1 260 235zM769 20q-89 -20 -194 -20h-376v1409h346q201 0 340 -73q157 -81 157 -281q0 -127 -74 -205t-188 -102q324 -56 324 -352q0 -297 -335 -376z" />
    <glyph glyph-name="Gamma" unicode="&#x393;" 
d="M455 1255v-1255h-174v1409h833l-18 -154h-641z" />
    <glyph glyph-name="Delta" unicode="&#x394;" 
d="M262 143h692l-344 1114zM1186 0h-1143l459 1409h225z" />
    <glyph glyph-name="Epsilon" unicode="&#x395;" 
d="M434 788h522v-145h-522v-502h641v-141h-817v1409h799l-21 -143h-602v-478z" />
    <glyph glyph-name="Zeta" unicode="&#x396;" 
d="M147 0v143l746 1117h-672v149h860v-143l-741 -1114h739l-20 -152h-912z" />
    <glyph glyph-name="Eta" unicode="&#x397;" 
d="M883 672h-537v-672h-174v1409h174v-596h537v596h174v-1409h-174v672z" />
    <glyph glyph-name="Theta" unicode="&#x398;" 
d="M403 647v148h420v-148h-420zM948 705q0 289 -79 434t-255 145t-255 -146t-78 -438q0 -575 333 -575q174 -1 254 145t80 435zM614 1434q250 0 384 -198t135 -529q-1 -332 -135 -531t-385 -199t-384 195q-133 196 -133 528t134 533t384 201z" />
    <glyph glyph-name="Iota" unicode="&#x399;" 
d="M1018 1270h-316v-1129h316v-141h-807v141h315v1129h-315v139h807v-139z" />
    <glyph glyph-name="Kappa" unicode="&#x39a;" 
d="M958 1409h203l-553 -645l592 -764h-219l-580 754zM217 0v1409h174v-1409h-174z" />
    <glyph glyph-name="Lambda" unicode="&#x39b;" 
d="M1176 0h-185l-381 1247l-385 -1247h-174l451 1409h225z" />
    <glyph glyph-name="Mu" unicode="&#x39c;" 
d="M940 1208h-4l-234 -954h-178l-241 954h-9q0 -293 -8 -469l-39 -739h-164l80 1409h246l229 -965l220 965h247l80 -1409h-168l-45 739q-12 233 -12 469z" />
    <glyph glyph-name="Nu" unicode="&#x39d;" 
d="M336 709v-709h-164v1409h238l499 -1212h9q-25 295 -25 505v707h164v-1409h-246l-492 1206h-8q25 -319 25 -497z" />
    <glyph glyph-name="Xi" unicode="&#x39e;" 
d="M1071 0h-913v164h913v-164zM948 633h-688v164h688v-164zM158 1249v160h893l-25 -160h-868z" />
    <glyph glyph-name="Omicron" unicode="&#x39f;" 
d="M950 704.5q0 288.5 -79.5 434t-256 145.5t-256 -146.5t-79.5 -437.5q0 -575 335 -575q174 0 255 145.5t81 434zM1133 707q0 -332 -134.5 -531t-385.5 -199t-384 195t-133 527.5t134.5 533.5t384 201t384 -197.5t134.5 -529.5z" />
    <glyph glyph-name="Pi" unicode="&#x3a0;" 
d="M883 1257h-537v-1257h-174v1409h885v-1409h-174v1257z" />
    <glyph glyph-name="Rho" unicode="&#x3a1;" 
d="M952 975q0 295 -334 295h-204v-604h198q162 0 251 70t89 239zM596 1409q258 -1 402 -109t143 -334q1 -226 -145 -334t-400 -108h-182v-524h-174v1409h356z" />
    <glyph glyph-name="Sigma" unicode="&#x3a3;" 
d="M1079 147v-147h-929v147l522 558l-522 555v149h929v-147h-727l475 -490v-125l-471 -500h723z" />
    <glyph glyph-name="Tau" unicode="&#x3a4;" 
d="M698 0h-174v1260h-442v149h1063l-19 -149h-428v-1260z" />
    <glyph glyph-name="Upsilon" unicode="&#x3a5;" 
d="M702 0h-176v543l-477 866h195l374 -707l379 707h183l-478 -864v-545z" />
    <glyph glyph-name="Phi" unicode="&#x3a6;" 
d="M1028 716q0 218 -79 308t-251 92v-819q174 10 252 106q78 95 78 313zM201 716q-1 -216 77 -312t252 -107v819q-172 -4 -250 -94t-79 -306zM700 1409v-162q506 -25 506 -536q0 -261 -129 -399t-377 -146v-166h-172v166q-246 8 -376 146t-129 399q0 512 505 536v162h172z
" />
    <glyph glyph-name="Chi" unicode="&#x3a7;" 
d="M303 1409l311 -543l312 543h190l-401 -647l450 -762h-202l-353 639l-358 -639h-189l445 752l-406 657h201z" />
    <glyph glyph-name="Psi" unicode="&#x3a8;" 
d="M524 0v393q-250 17 -374 149t-123 339v528h180v-518q0 -160 73 -246t246 -102v866h179v-864q169 16 243 101t74 245v518h180v-528q0 -205 -125 -335t-370 -151v-395h-183z" />
    <glyph glyph-name="Omega" unicode="&#x3a9;" 
d="M614 1286q-168 0 -251.5 -135t-83.5 -436q0 -453 266 -584v-131h-426v141h229v9q-252 131 -252 565q0 342 139.5 530.5t379 188.5t379 -188.5t139.5 -530.5q0 -426 -256 -565v-9h233v-141h-424v131q264 131 264 584q0 299 -84 435t-252 136z" />
    <glyph glyph-name="Iotadieresis" unicode="&#x3aa;" 
d="M1018 1270h-316v-1129h316v-141h-807v141h315v1129h-315v139h807v-139zM825 1571q-47 0 -78.5 31.5t-31.5 77.5t30.5 78t78.5 32t80 -32t32 -79t-32 -77.5t-79 -30.5zM401.5 1571q-47.5 0 -79 30.5t-31.5 77.5t31.5 79t79 32t79 -32t31.5 -78t-31.5 -77.5t-79 -31.5z" />
    <glyph glyph-name="Upsilondieresis" unicode="&#x3ab;" 
d="M702 0h-176v543l-477 866h195l374 -707l379 707h183l-478 -864v-545zM830 1571q-48 0 -78.5 31.5t-30.5 77.5t30.5 78t78.5 32t80 -32t32 -79t-32 -77.5t-80 -30.5zM407.5 1571q-47.5 0 -79 30.5t-31.5 77.5t31.5 79t79 32t79 -32t31.5 -78t-31.5 -77.5t-79 -31.5z" />
    <glyph glyph-name="alphatonos" unicode="&#x3ac;" 
d="M534 965q-110 0 -170.5 -113t-60.5 -324q0 -414 223 -413q209 0 293 432q-41 238 -108 328t-177 90zM522 1102q143 0 225 -77t115 -263l56 315h155l-104 -575l53 -279q12 -76 92 -104l-61 -144q-68 10 -122 61.5t-67 133.5l-16 115q-106 -307 -336 -308
q-188 0 -289.5 138.5t-101.5 404.5t103 424t298 158zM571 1651l189 -33l-137 -410l-129 23z" />
    <glyph glyph-name="epsilontonos" unicode="&#x3ad;" 
d="M616 494q-137 0 -199.5 -42t-62.5 -134.5t78 -146.5t213 -54q209 0 381 119l92 -115q-193 -143 -483 -144q-205 0 -335 88.5t-130 245.5q0 121 68.5 184.5t201.5 82.5q-111 23 -168 84t-57 151q0 137 123 213t309 76q252 0 410 -111l-86 -106q-131 80 -318 80
q-262 0 -262 -168q0 -76 63.5 -120t172.5 -44h194l-20 -139h-185zM651 1651l189 -33l-138 -410l-129 23z" />
    <glyph glyph-name="etatonos" unicode="&#x3ae;" 
d="M719 1102q305 0 305 -320v-1196l-170 -20v1089q0 178 -35 245t-153 67q-84 0 -163 -54.5t-128 -126.5v-786h-170v725q0 172 -55 354l159 23q35 -63 49 -180q68 86 165.5 133t195.5 47zM614 1651l189 -33l-137 -410l-129 23z" />
    <glyph glyph-name="iotatonos" unicode="&#x3af;" 
d="M664 1077v-811q0 -147 178 -147q86 0 182 37l45 -123q-94 -55 -247.5 -55.5t-240.5 81.5t-87 226v649h-365l21 143h514zM586 1651l188 -33l-137 -410l-129 23z" />
    <glyph glyph-name="upsilondieresistonos" unicode="&#x3b0;" 
d="M1075 519q0 -265 -142 -403.5t-327.5 -138.5t-289 90.5t-103.5 262.5v747h170v-733q0 -227 213 -227q127 0 217 97t90 338.5t-53 524.5h172q53 -293 53 -558zM849 1475q48 0 80 -32t32 -79t-32 -78t-80 -31t-80 31t-32 78t32 79t80 32zM389 1475q47 0 79 -32t32 -79
t-32 -78t-79 -31t-80 31t-33 78t33 79t80 32zM809 1808l-123 -346l-133 21l59 360z" />
    <glyph glyph-name="alpha" unicode="&#x3b1;" 
d="M534 965q-110 0 -170.5 -113t-60.5 -324q0 -414 223 -413q209 0 293 432q-41 238 -108 328t-177 90zM522 1102q143 0 225 -77t115 -263l56 315h155l-104 -575l53 -279q12 -76 92 -104l-61 -144q-68 10 -122 61.5t-67 133.5l-16 115q-106 -307 -336 -308
q-188 0 -289.5 138.5t-101.5 404.5t103 424t298 158z" />
    <glyph glyph-name="beta" unicode="&#x3b2;" 
d="M649 117q129 0 213 78q84 77 84 231t-95 239t-276 85h-110l20 131h109q114 -1 186 67t72 198t-69 190t-183 61q-244 0 -244 -293v-881q107 -106 293 -106zM1120 414q0 -195 -135 -316t-315 -121t-314 107v-496l-168 -22v1540q0 202 109 314t291 112t301 -97t119 -257
t-88 -248q-88 -87 -222 -103q422 -49 422 -413z" />
    <glyph glyph-name="gamma" unicode="&#x3b3;" 
d="M1141 1063l-445 -1028q-80 -185 -24 -447l-137 -22q-49 98 -52 228q-2 130 43 247q-72 305 -194 595q-123 290 -244 402l174 62q106 -125 202 -361t159 -520l344 883z" />
    <glyph glyph-name="delta" unicode="&#x3b4;" 
d="M324 488q0 -168 78 -270q80 -101 220 -101t218 98q78 99 78 281t-67 269t-255 165q-144 -66 -208 -170t-64 -272zM268 1251q0 133 108 208t285 75q178 0 328 -123l-86 -100q-121 92 -262 92q-92 0 -144 -38q-53 -38 -53 -106q0 -67 48 -103t196 -97q218 -90 316 -213
t98 -343t-131 -373t-351 -153t-351 150q-130 150 -130 371q0 178 91 305t237 184q-109 55 -154 117t-45 147z" />
    <glyph glyph-name="epsilon" unicode="&#x3b5;" 
d="M616 494q-137 0 -199.5 -42t-62.5 -134.5t78 -146.5t213 -54q209 0 381 119l92 -115q-193 -143 -483 -144q-205 0 -335 88.5t-130 245.5q0 121 68.5 184.5t201.5 82.5q-111 23 -168 84t-57 151q0 137 123 213t309 76q252 0 410 -111l-86 -106q-131 80 -318 80
q-262 0 -262 -168q0 -76 63.5 -120t172.5 -44h194l-20 -139h-185z" />
    <glyph glyph-name="zeta" unicode="&#x3b6;" 
d="M1071 -94q0 -113 -79 -201t-242 -162l-70 123q104 52 156 102t51 113q0 63 -44 90t-190 78q-229 78 -327 175t-98 298t161 402q162 201 531 475q-66 -27 -297 -27h-310l21 141h727l24 -116q-367 -315 -519 -501t-152 -376q0 -143 70 -210t253 -127q184 -60 259 -112
t75 -165z" />
    <glyph glyph-name="eta" unicode="&#x3b7;" 
d="M719 1102q305 0 305 -320v-1196l-170 -20v1089q0 178 -35 245t-153 67q-84 0 -163 -54.5t-128 -126.5v-786h-170v725q0 172 -55 354l159 23q35 -63 49 -180q68 86 165.5 133t195.5 47z" />
    <glyph glyph-name="theta" unicode="&#x3b8;" 
d="M614 117q138 0 207 137q68 137 76 440h-567q8 -301 77 -439t207 -138zM616 1391q-140 1 -210 -133t-76 -427h569q-6 293 -74 427t-209 133zM617 1534q224 0 342 -203t118 -567t-121 -576t-343 -211q-222 0 -342 207q-119 208 -119 572t120 571q121 207 345 207z" />
    <glyph glyph-name="iota" unicode="&#x3b9;" 
d="M664 1077v-811q0 -147 178 -147q86 0 182 37l45 -123q-94 -55 -247.5 -55.5t-240.5 81.5t-87 226v649h-365l21 143h514z" />
    <glyph glyph-name="kappa" unicode="&#x3ba;" 
d="M401 666v-666h-170v696q0 184 -53 381h168q55 -154 55 -411zM1079 1001l-463 -417l304 -320q66 -70 114 -102t113 -45l-60 -140q-82 13 -143 51t-129 109l-405 443l526 522z" />
    <glyph glyph-name="lambda" unicode="&#x3bb;" 
d="M498 1077h69q-45 154 -122 228t-238 98l26 135q236 -34 352 -150t175 -366q98 -406 182 -635t201 -344l-174 -66q-219 268 -361 969l-346 -971l-162 35z" />
    <glyph glyph-name="mu" unicode="&#x3bc;" 
d="M989 1077v-735q0 -166 58 -342l-160 -25q-37 61 -51 175q-47 -78 -127 -126t-162 -48t-127 23q-45 24 -86 81q18 -133 18 -178v-316l-170 -20v1511h170v-604q0 -184 34 -265t149 -81q168 0 284 164v786h170z" />
    <glyph glyph-name="nu" unicode="&#x3bd;" 
d="M694 0h-209q-80 340 -190 636q-111 296 -229 400l172 64q209 -242 364 -948l346 950l172 -39z" />
    <glyph glyph-name="xi" unicode="&#x3be;" 
d="M752 1534q210 0 376 -121l-81 -102q-141 90 -294 90q-298 0 -296 -209q0 -100 65 -156q66 -55 180 -55h248l-20 -156h-246q-135 0 -216 -80t-81 -196q-1 -82 19 -135q34 -93 192 -159q61 -27 217 -73q155 -46 229 -104t74 -171q0 -114 -79 -201t-242 -163l-70 123
q103 52 155 104t52 116t-37 88q-37 26 -149 62t-183 62q-180 68 -272 173t-90 272q0 85 33 155q55 116 187 179q52 25 103 32q-114 43 -180 107t-65 172q0 158 130 252q131 94 341 94z" />
    <glyph glyph-name="omicron" unicode="&#x3bf;" 
d="M614.5 117q280.5 0 280.5 423t-281 423t-280.5 -423t281 -423zM617 1102q222 0 341 -150.5t119 -407.5t-120.5 -412t-343 -155t-342 151t-119.5 409t121.5 411.5t343.5 153.5z" />
    <glyph glyph-name="pi" unicode="&#x3c0;" 
d="M971 936v-657q1 -80 23 -115t79 -47l-61 -140q-117 29 -165 93t-48 188v678h-393v-936h-173v936q-102 -2 -182 -25l-39 131q74 35 269 35h862v-141h-172z" />
    <glyph glyph-name="rho" unicode="&#x3c1;" 
d="M623 967q-141 0 -201 -110t-60 -331v-272q90 -135 238 -135q290 0 289 424q0 424 -266 424zM627 1102q446 0 446 -561q1 -242 -109 -403t-300 -161t-302 123v-514l-169 -20v987q0 268 110 409q111 140 324 140z" />
    <glyph glyph-name="sigmafinal" unicode="&#x3c2;" 
d="M713 1102q115 0 197 -26t169 -89l-86 -113q-70 44 -129 64t-145 20q-139 0 -233 -106t-95 -276t61 -238q62 -66 250 -136t265 -128q75 -59 75 -170t-74 -190t-243 -152l-74 123q102 41 155 85q52 44 52 110t-45 96t-231 97t-279 177q-94 110 -94 305q1 255 141 401
t363 146z" />
    <glyph glyph-name="sigma" unicode="&#x3c3;" 
d="M614 117q276 0 277 424q0 299 -148 417q-99 0 -167 -16q-161 -38 -214 -190q-29 -86 -28 -213q-1 -422 280 -422zM613 -23q-218 0 -340 152q-121 152 -121 407q0 254 135 404t372 150q147 0 486 -11v-143l-254 18q176 -109 182 -411q4 -254 -119 -410t-341 -156z" />
    <glyph glyph-name="tau" unicode="&#x3c4;" 
d="M467 285v651h-92q-131 0 -266 -37l-29 135q127 43 319 43h637v-141h-399v-670q0 -147 176 -147q86 0 182 37l45 -123q-94 -55 -248 -55t-239 80q-86 81 -86 227z" />
    <glyph glyph-name="upsilon" unicode="&#x3c5;" 
d="M1075 519q0 -265 -142 -403.5t-327.5 -138.5t-289 90.5t-103.5 262.5v747h170v-733q0 -227 213 -227q127 0 217 97t90 338.5t-53 524.5h172q53 -293 53 -558z" />
    <glyph glyph-name="phi" unicode="&#x3c6;" 
d="M821 967q-72 0 -101 -56q-30 -56 -36 -124q-6 -69 -6 -171v-505q170 18 238 122q68 105 69 323q0 218 -36 314t-128 97zM516 651q0 221 70 336t241 115q170 0 251 -137t81 -416q0 -526 -481 -569v-392l-162 -22v414q-446 39 -446 509q0 291 112 588h172
q-114 -336 -114 -540t60 -304t216 -118v536z" />
    <glyph glyph-name="chi" unicode="&#x3c7;" 
d="M1130 -416l-176 -14l-325 684l-332 -680l-176 12l405 789q-125 279 -208 405t-205 256l166 64q100 -102 180 -238t172 -375l282 605l179 -9l-361 -698z" />
    <glyph glyph-name="psi" unicode="&#x3c8;" 
d="M696 1077v-948q176 19 236 115t61 316q0 220 -55 517h174q53 -289 53 -557q0 -494 -469 -532v-402l-159 -20v422q-225 16 -338 129t-113 278v682h170v-667q0 -131 63 -198t218 -83v948h159z" />
    <glyph glyph-name="omega" unicode="&#x3c9;" 
d="M862 -23q-219 0 -250 238q-49 -238 -250 -238q-309 0 -309 512q0 332 103 588h151q-84 -264 -84 -510t34 -348t122 -102q154 0 153 356v258l164 23v-283q0 -172 33 -263t120 -91t122 102.5t34.5 337.5t-90.5 520h156q104 -276 105 -588q0 -242 -80 -377t-234 -135z" />
    <glyph glyph-name="iotadieresis" unicode="&#x3ca;" 
d="M664 1077v-811q0 -147 178 -147q86 0 182 37l45 -123q-94 -55 -247.5 -55.5t-240.5 81.5t-87 226v649h-365l21 143h514zM793 1327q-47 0 -79 31t-32 78t30.5 78.5t79 31.5t80 -31.5t31.5 -78.5t-31.5 -78t-78.5 -31zM369 1327q-47 0 -79 31t-32 78t32 78.5t79 31.5
t78.5 -31.5t31.5 -77.5t-31.5 -78t-78.5 -32z" />
    <glyph glyph-name="upsilondieresis" unicode="&#x3cb;" 
d="M1075 519q0 -265 -142 -403.5t-327.5 -138.5t-289 90.5t-103.5 262.5v747h170v-733q0 -227 213 -227q127 0 217 97t90 338.5t-53 524.5h172q53 -293 53 -558zM825 1327q-47 0 -78.5 31t-31.5 78t30.5 78.5t78.5 31.5t80 -31.5t32 -78.5t-32 -78t-79 -31zM401.5 1327
q-47.5 0 -79 31t-31.5 78t31.5 78.5t79 31.5t79 -31.5t31.5 -77.5t-31.5 -78t-79 -32z" />
    <glyph glyph-name="omicrontonos" unicode="&#x3cc;" 
d="M614.5 117q280.5 0 280.5 423t-281 423t-280.5 -423t281 -423zM617 1102q222 0 341 -150.5t119 -407.5t-120.5 -412t-343 -155t-342 151t-119.5 409t121.5 411.5t343.5 153.5zM618 1651l189 -33l-137 -410l-129 23z" />
    <glyph glyph-name="upsilontonos" unicode="&#x3cd;" 
d="M1075 519q0 -265 -142 -403.5t-327.5 -138.5t-289 90.5t-103.5 262.5v747h170v-733q0 -227 213 -227q127 0 217 97t90 338.5t-53 524.5h172q53 -293 53 -558zM618 1651l189 -33l-137 -410l-129 23z" />
    <glyph glyph-name="omegatonos" unicode="&#x3ce;" 
d="M862 -23q-219 0 -250 238q-49 -238 -250 -238q-309 0 -309 512q0 332 103 588h151q-84 -264 -84 -510t34 -348t122 -102q154 0 153 356v258l164 23v-283q0 -172 33 -263t120 -91t122 102.5t34.5 337.5t-90.5 520h156q104 -276 105 -588q0 -242 -80 -377t-234 -135z
M618 1651l189 -33l-137 -410l-129 23z" />
    <glyph glyph-name="uni0401" unicode="&#x401;" 
d="M434 788h522v-145h-522v-502h641v-141h-817v1409h799l-21 -143h-602v-478zM867 1571q-48 0 -78.5 31.5t-30.5 77.5t30.5 78t78.5 32t80 -32t32 -79t-32 -77.5t-80 -30.5zM444.5 1571q-47.5 0 -79 30.5t-31.5 77.5t31.5 79t79 32t79 -32t31.5 -78t-31.5 -77.5t-79 -31.5z
" />
    <glyph glyph-name="uni0402" unicode="&#x402;" 
d="M498 1264v-465q139 121 297 121q365 0 364 -416v-307q0 -203 -86 -307t-266 -166l-45 141q133 53 177 122t44 208v297q0 148 -52 212t-182 64t-251 -111v-657h-176v1264h-332v145h856l-19 -145h-329z" />
    <glyph glyph-name="uni0403" unicode="&#x403;" 
d="M455 1255v-1255h-174v1409h833l-18 -154h-641zM961 1708l-437 -160l-45 90l406 215z" />
    <glyph glyph-name="uni0404" unicode="&#x404;" 
d="M719 -23q-266 1 -433 191t-167 536t173 538q174 192 418 192t420 -138l-100 -112q-125 106 -299 106t-291 -119t-135 -372h625v-148h-631q12 -268 130 -398t305 -130t323 123l94 -115q-166 -154 -432 -154z" />
    <glyph glyph-name="uni0405" unicode="&#x405;" 
d="M1098 389q0 -184 -136.5 -298t-377.5 -114q-309 0 -494 179l105 118q160 -150 393 -149q137 0 232 67.5t95 183t-64.5 175t-269 120.5t-317 151.5t-112.5 249.5t127 260.5t329 101.5q260 0 449 -162l-105 -115q-143 129 -340 129q-123 0 -202.5 -54t-79.5 -150.5
t76.5 -152t276.5 -113.5t307.5 -150.5t107.5 -276.5z" />
    <glyph glyph-name="uni0406" unicode="&#x406;" 
d="M1018 1270h-316v-1129h316v-141h-807v141h315v1129h-315v139h807v-139z" />
    <glyph glyph-name="uni0407" unicode="&#x407;" 
d="M1018 1270h-316v-1129h316v-141h-807v141h315v1129h-315v139h807v-139zM825 1571q-47 0 -78.5 31.5t-31.5 77.5t30.5 78t78.5 32t80 -32t32 -79t-32 -77.5t-79 -30.5zM401.5 1571q-47.5 0 -79 30.5t-31.5 77.5t31.5 79t79 32t79 -32t31.5 -78t-31.5 -77.5t-79 -31.5z" />
    <glyph glyph-name="uni0408" unicode="&#x408;" 
d="M1016 1409v-942q0 -192 -100 -332q-52 -74 -149 -117t-230 -43q-217 0 -387 129l77 117q156 -98 304.5 -98t229.5 94t81 260v789h-418v143h592z" />
    <glyph glyph-name="uni0409" unicode="&#x409;" 
d="M727 750v-607h31q147 0 217 65q69 65 69 235q0 171 -70 239t-214 68h-33zM727 1409v-522q254 1 378 -105t124 -329q0 -453 -486 -453h-190v1264h-195l-47 -627q-32 -437 -113 -557q-34 -49 -104 -103l-90 117q55 60 86 166t51 381l64 768h522z" />
    <glyph glyph-name="uni040A" unicode="&#x40a;" 
d="M725 715v-576h33q150 -1 218 59t68 225t-69 228q-70 63 -217 64h-33zM725 1409v-563q256 2 380 -98t124 -322t-125 -324t-361 -102h-192v715h-293v-715h-172v1409h172v-563h293v563h174z" />
    <glyph glyph-name="uni040B" unicode="&#x40b;" 
d="M498 1264v-465q127 121 297 121q365 0 364 -416v-504h-176v492q0 148 -52 212t-182 64t-251 -111v-657h-176v1264h-332v145h856l-19 -145h-329z" />
    <glyph glyph-name="uni040C" unicode="&#x40c;" 
d="M371 668v-668h-176v1409h176v-594h166l434 594h190l-475 -664l514 -745h-213l-452 668h-164zM989 1896l-436 -159l-45 90l405 215z" />
    <glyph glyph-name="uni040E" unicode="&#x40e;" 
d="M1188 1409l-434 -1042q-78 -184 -184.5 -273.5t-319.5 -116.5l-27 140q178 27 253 86t120 186h-76l-465 1020h183l403 -907l369 907h178zM632 1554q-120 0 -205 67t-97 177l116 25q49 -137 187.5 -137t187.5 137l117 -25q-12 -111 -99 -177.5t-207 -66.5z" />
    <glyph glyph-name="uni040F" unicode="&#x40f;" 
d="M1057 0h-359v-301h-139l-29 301h-358v1409h174v-1264h152v2h200v-2h185v1264h174v-1409z" />
    <glyph glyph-name="uni0410" unicode="&#x410;" 
d="M844 506l-234 756l-235 -756h469zM330 360l-115 -360h-172l459 1409h225l459 -1409h-185l-112 360h-559z" />
    <glyph glyph-name="uni0411" unicode="&#x411;" 
d="M383 721v-578h205q164 1 251 63t87 230q0 285 -338 285h-205zM383 1264v-404h178q549 0 549 -422q0 -438 -547 -438h-356v1409h786l-16 -145h-594z" />
    <glyph glyph-name="uni0412" unicode="&#x412;" 
d="M920 395q0 268 -304 269h-243v-519h235q312 0 312 250zM862 1044q0 223 -276 224h-213v-459h229q260 -1 260 235zM769 20q-89 -20 -194 -20h-376v1409h346q201 0 340 -73q157 -81 157 -281q0 -127 -74 -205t-188 -102q324 -56 324 -352q0 -297 -335 -376z" />
    <glyph glyph-name="uni0413" unicode="&#x413;" 
d="M455 1255v-1255h-174v1409h833l-18 -154h-641z" />
    <glyph glyph-name="uni0414" unicode="&#x414;" 
d="M872 1262h-372l-31 -271q-53 -463 -88 -613t-123 -231h614v1115zM1157 147v-448h-141l-29 301h-817l-31 -301h-139v448h88q74 74 105 203t63 374t37 282l53 403h707v-1262h104z" />
    <glyph glyph-name="uni0415" unicode="&#x415;" 
d="M434 788h522v-145h-522v-502h641v-141h-817v1409h799l-21 -143h-602v-478z" />
    <glyph glyph-name="uni0416" unicode="&#x416;" 
d="M535 813v596h159v-596h125l189 596h166l-222 -664l252 -745h-174l-211 670h-125v-670h-159v670h-127l-213 -670h-170l251 745l-221 664h168l187 -596h125z" />
    <glyph glyph-name="uni0417" unicode="&#x417;" 
d="M573 1434q221 0 353.5 -102.5t132.5 -266.5q0 -125 -82 -202t-209 -95q141 -14 239.5 -104.5t98.5 -243.5q0 -195 -145.5 -319t-387.5 -124q-326 0 -501 201l114 96q139 -150 383 -149q166 0 257.5 77t91.5 212t-90.5 201.5t-239.5 66.5h-250l20 149h215
q129 0 217.5 58.5t88.5 171.5t-85 171t-221 58q-215 0 -372 -141l-101 108q199 177 473 177z" />
    <glyph glyph-name="uni0418" unicode="&#x418;" 
d="M172 1409h174v-715q0 -266 -24 -504h8l501 1219h226v-1409h-174v719q0 260 24 495h-8l-498 -1214h-229v1409z" />
    <glyph glyph-name="uni0419" unicode="&#x419;" 
d="M172 1409h174v-715q0 -266 -24 -504h8l501 1219h226v-1409h-174v719q0 260 24 495h-8l-498 -1214h-229v1409zM611 1583q-122 0 -205.5 60.5t-96.5 168.5l117 27q41 -123 187.5 -123t187.5 123l117 -27q-12 -109 -98.5 -169t-208.5 -60z" />
    <glyph glyph-name="uni041A" unicode="&#x41a;" 
d="M371 668v-668h-176v1409h176v-594h166l434 594h190l-475 -664l514 -745h-213l-452 668h-164z" />
    <glyph glyph-name="uni041B" unicode="&#x41b;" 
d="M1057 0h-174v1260h-383l-49 -422q-71 -580 -187 -722q-51 -65 -155 -139l-78 132q45 37 67 65q76 93 116 292q26 126 52 320l82 623h709v-1409z" />
    <glyph glyph-name="uni041C" unicode="&#x41c;" 
d="M940 1208h-4l-234 -954h-178l-241 954h-9q0 -293 -8 -469l-39 -739h-164l80 1409h246l229 -965l220 965h247l80 -1409h-168l-45 739q-12 233 -12 469z" />
    <glyph glyph-name="uni041D" unicode="&#x41d;" 
d="M883 672h-537v-672h-174v1409h174v-596h537v596h174v-1409h-174v672z" />
    <glyph glyph-name="uni041E" unicode="&#x41e;" 
d="M950 704.5q0 288.5 -79.5 434t-256 145.5t-256 -146.5t-79.5 -437.5q0 -575 335 -575q174 0 255 145.5t81 434zM1133 707q0 -332 -134.5 -531t-385.5 -199t-384 195t-133 527.5t134.5 533.5t384 201t384 -197.5t134.5 -529.5z" />
    <glyph glyph-name="uni041F" unicode="&#x41f;" 
d="M883 1257h-537v-1257h-174v1409h885v-1409h-174v1257z" />
    <glyph glyph-name="uni0420" unicode="&#x420;" 
d="M952 975q0 295 -334 295h-204v-604h198q162 0 251 70t89 239zM596 1409q258 -1 402 -109t143 -334q1 -226 -145 -334t-400 -108h-182v-524h-174v1409h356z" />
    <glyph glyph-name="uni0421" unicode="&#x421;" 
d="M723 1434q246 0 418 -138l-99 -114q-127 104 -308.5 104t-301 -138t-119.5 -439t118 -441.5t305 -140.5t335 119l90 -117q-156 -152 -422 -152t-437 191.5t-171 536t173 537t419 192.5z" />
    <glyph glyph-name="uni0422" unicode="&#x422;" 
d="M698 0h-174v1260h-442v149h1063l-19 -149h-428v-1260z" />
    <glyph glyph-name="uni0423" unicode="&#x423;" 
d="M1188 1409l-434 -1042q-78 -184 -184.5 -273.5t-319.5 -116.5l-27 140q178 27 253 86t120 186h-76l-465 1020h183l403 -907l369 907h178z" />
    <glyph glyph-name="uni0424" unicode="&#x424;" 
d="M1024 716q0 265 -78 382t-248 121v-1024q172 14 249 135t77 386zM205 716q1 -265 77 -386t248 -135v1024q-170 -4 -248 -121t-77 -382zM700 1470v-120q256 -18 379 -178t123 -466t-129 -468t-373 -175v-122h-172v122q-502 23 -501 648q0 303 123 461t378 178v120h172z
" />
    <glyph glyph-name="uni0425" unicode="&#x425;" 
d="M303 1409l311 -543l312 543h190l-401 -647l450 -762h-202l-353 639l-358 -639h-189l445 752l-406 657h201z" />
    <glyph glyph-name="uni0426" unicode="&#x426;" 
d="M1184 147v-448h-140l-30 301h-842v1409h174v-1264h537v1264h174v-1262h127z" />
    <glyph glyph-name="uni0427" unicode="&#x427;" 
d="M1057 1409v-1409h-174v578q-96 -68 -178 -97.5t-191 -29.5q-184 0 -297 113.5t-113 301.5v543h177v-528q0 -276 276 -277q197 0 326 125v680h174z" />
    <glyph glyph-name="uni0428" unicode="&#x428;" 
d="M1135 0h-1041v1409h166v-1262h275v1262h159v-1262h275v1262h166v-1409z" />
    <glyph glyph-name="uni0429" unicode="&#x429;" 
d="M1262 147v-448h-140l-30 301h-998v1409h166v-1262h275v1262h159v-1262h275v1262h166v-1262h127z" />
    <glyph glyph-name="uni042A" unicode="&#x42a;" 
d="M428 745v-602h250q158 0 244 67t86 241q0 295 -332 294h-248zM428 887h217q545 0 545 -434q0 -237 -146 -345t-397 -108h-397v1255h-250v154h428v-522z" />
    <glyph glyph-name="uni042B" unicode="&#x42b;" 
d="M244 752v-611h151q150 0 224.5 73t74.5 237q0 301 -301 301h-149zM1165 0h-180v1409h180v-1409zM244 885h129q508 0 508 -432q0 -225 -130 -339t-374 -114h-314v1409h181v-524z" />
    <glyph glyph-name="uni042C" unicode="&#x42c;" 
d="M369 748v-605h237q160 0 247 67t87 241q0 297 -332 297h-239zM369 887h215q545 0 544 -434q0 -233 -145 -343t-397 -110h-391v1409h174v-522z" />
    <glyph glyph-name="uni042D" unicode="&#x42d;" 
d="M557 1434q254 0 399.5 -180.5t145.5 -536.5t-150.5 -548t-419.5 -192t-446 181l107 100q152 -135 334.5 -135t281 129t113.5 399h-623v148h623q-14 260 -109.5 375.5t-269.5 115.5q-106 0 -184 -34.5t-158 -98.5l-99 103q201 174 455 174z" />
    <glyph glyph-name="uni042E" unicode="&#x42e;" 
d="M793 1288q-113 0 -160 -129t-47 -453t47 -455q47 -130 160 -130t163 131q50 132 50 452t-51 452q-49 132 -162 132zM805 1434q205 0 293 -178t88 -545q0 -365 -93 -549t-303 -184t-300 188q-81 169 -87 491h-137v-657h-170v1409h170v-606h140q12 317 103 474t296 157z
" />
    <glyph glyph-name="uni042F" unicode="&#x42f;" 
d="M883 1270h-217q-164 0 -244 -67t-80 -210q0 -283 285 -282h256v559zM1057 0h-174v567h-318l-299 -567h-196l331 608q-246 111 -245 383q0 201 137 309t395 109h369v-1409z" />
    <glyph glyph-name="uni0430" unicode="&#x430;" 
d="M532 106q80 0 153 40t120 114v279h-156q-326 0 -325 -228q-1 -205 208 -205zM977 754v-521q0 -61 20.5 -91.5t67.5 -45.5l-41 -121q-154 20 -197 154q-117 -152 -338 -152q-162 0 -255 90.5t-93 248.5t130 248.5t376 90.5h158v90q0 213 -256 213q-129 0 -281 -53l-45 127
q187 70 367 70t283.5 -92t103.5 -256z" />
    <glyph glyph-name="uni0431" unicode="&#x431;" 
d="M342 522q0 -193 72 -299t199 -106q126 0 199 87t73 306q0 356 -232 356q-205 0 -311 -211v-133zM680 1008q178 0 284 -132t107 -374q0 -242 -126 -383t-332 -141q-205 0 -331 153q-126 155 -126 483t83 507t307 256t339 159l76 -133q-131 -83 -277 -137t-202 -95
q-120 -90 -146 -364q119 201 344 201z" />
    <glyph glyph-name="uni0432" unicode="&#x432;" 
d="M399 139h197q132 1 195 21t90 58t26 99q0 186 -272 187h-236v-365zM614 965q-116 0 -215 -13v-313h224q115 0 174 37t59 126t-62 126q-64 37 -180 37zM629 0h-400v1063q190 39 380 39q191 0 307 -74t116 -209q0 -88 -49 -146t-168 -89q274 -25 275 -267q0 -157 -132 -237
t-329 -80z" />
    <glyph glyph-name="uni0433" unicode="&#x433;" 
d="M324 0v1077h749l-20 -141h-559v-936h-170z" />
    <glyph glyph-name="uni0434" unicode="&#x434;" 
d="M842 940h-367l-12 -199q-21 -297 -59 -415t-132 -187h570v801zM1094 139v-440h-142l-28 301h-699l-28 -301h-142v440h72q76 66 113 188t57 402l25 348h694v-938h78z" />
    <glyph glyph-name="uni0435" unicode="&#x435;" 
d="M631 961q-125 0 -203 -89.5t-88 -261.5h565q-2 172 -75.5 261.5t-198.5 89.5zM670.5 119q148.5 0 273.5 100l80 -117q-162 -125 -382 -125t-350 153t-130 404t128 409.5t336 158.5t325.5 -142.5t117.5 -388.5q0 -47 -4 -92h-725q6 -180 94 -270t236.5 -90z" />
    <glyph glyph-name="uni0436" unicode="&#x436;" 
d="M539 506h-117l-213 -506h-168l250 580l-230 497h172l191 -438h115v438h151v-438h115l194 438h168l-229 -497l250 -580h-174l-213 506h-111v-506h-151v506z" />
    <glyph glyph-name="uni0437" unicode="&#x437;" 
d="M588 633q106 0 169.5 45t63.5 119q0 168 -256 168q-193 0 -329 -101l-84 107q168 131 417 131q190 0 309 -73t119 -218q0 -84 -59 -145.5t-158 -90.5q279 -47 279 -264q0 -158 -135.5 -246t-345.5 -88q-281 0 -467 150l86 113q156 -123 387 -123q139 0 214.5 54t75.5 146
q0 176 -276 177h-217l12 139h195z" />
    <glyph glyph-name="uni0438" unicode="&#x438;" 
d="M1022 0h-164v506q0 268 19 385h-9l-456 -891h-205v1077h164v-506q0 -213 -17 -376h8l451 882h209v-1077z" />
    <glyph glyph-name="uni0439" unicode="&#x439;" 
d="M1022 0h-164v506q0 268 19 385h-9l-456 -891h-205v1077h164v-506q0 -213 -17 -376h8l451 882h209v-1077zM611 1325q-122 0 -205.5 60.5t-96.5 168.5l117 27q41 -123 187.5 -123t187.5 123l117 -27q-12 -109 -98.5 -169t-208.5 -60z" />
    <glyph glyph-name="uni043A" unicode="&#x43a;" 
d="M217 1077h170v-436h217l311 436h193l-363 -497l420 -580h-207l-358 504h-213v-504h-170v1077z" />
    <glyph glyph-name="uni043B" unicode="&#x43b;" 
d="M1044 0h-170v936h-407l-23 -287q-20 -241 -52 -367t-81 -186t-151 -119l-74 109q59 37 90 76q75 95 105 479l32 436h731v-1077z" />
    <glyph glyph-name="uni043C" unicode="&#x43c;" 
d="M1141 0h-162l-43 528q-12 184 -10 381h-8l-216 -727h-170l-239 727h-8q8 -154 -4 -377l-31 -532h-162l76 1077h225l232 -737l215 737h227z" />
    <glyph glyph-name="uni043D" unicode="&#x43d;" 
d="M852 481h-475v-481h-170v1077h170v-456h475v456h170v-1077h-170v481z" />
    <glyph glyph-name="uni043E" unicode="&#x43e;" 
d="M614.5 117q280.5 0 280.5 423t-281 423t-280.5 -423t281 -423zM617 1102q222 0 341 -150.5t119 -407.5t-120.5 -412t-343 -155t-342 151t-119.5 409t121.5 411.5t343.5 153.5z" />
    <glyph glyph-name="uni043F" unicode="&#x43f;" 
d="M852 938h-475v-938h-170v1077h815v-1077h-170v938z" />
    <glyph glyph-name="uni0440" unicode="&#x440;" 
d="M647 965q-154 0 -270 -174v-537q88 -135 248 -135q270 0 270 423t-248 423zM688 1102q389 0 389 -561q0 -256 -106 -410q-107 -154 -297 -154t-297 123v-514l-170 -20v1511h143l15 -149q124 174 323 174z" />
    <glyph glyph-name="uni0441" unicode="&#x441;" 
d="M696.5 123q149.5 0 278.5 102l82 -119q-70 -59 -169.5 -94t-195.5 -35q-238 0 -371 151t-133 404t135.5 411.5t355.5 158.5t376 -127l-86 -117q-133 100 -277.5 100t-231.5 -108.5t-87 -315t87 -309t236.5 -102.5z" />
    <glyph glyph-name="uni0442" unicode="&#x442;" 
d="M698 936v-936h-168v936h-395v141h971l-21 -141h-387z" />
    <glyph glyph-name="uni0443" unicode="&#x443;" 
d="M1102 1077l-379 -1083q-66 -186 -174.5 -297t-304.5 -131l-27 137q158 27 227.5 93.5t116.5 203.5h-57l-377 1077h182l312 -948l305 948h176z" />
    <glyph glyph-name="uni0444" unicode="&#x444;" 
d="M851 967q-79 0 -159 -101v-649q76 -104 148 -104q156 0 155 428q-1 229 -33 327t-111 99zM383 967q-76 -1 -112 -101q-35 -100 -35 -325t35 -327q36 -101 112 -101q43 -1 75 23t79 81v653q-45 53 -77 75t-77 22zM893 1102q152 0 214 -144t62 -410q-1 -265 -77 -418
t-218 -153q-104 0 -182 115v-504l-155 -22v526q-78 -115 -187 -115q-139 0 -215 152t-76 412q0 561 287 561q111 0 191 -107v539l155 -23v-520q86 111 201 111z" />
    <glyph glyph-name="uni0445" unicode="&#x445;" 
d="M115 0l399 569l-350 508h201l251 -401l254 401h195l-348 -499l397 -578h-209l-297 463l-299 -463h-194z" />
    <glyph glyph-name="uni0446" unicode="&#x446;" 
d="M1178 139v-440h-142l-30 301h-811v1077h170v-936h475v936h170v-938h168z" />
    <glyph glyph-name="uni0447" unicode="&#x447;" 
d="M344 672q0 -201 180 -201q88 0 173 34t134 89v483h168v-1077h-168v457q-135 -121 -339 -121q-156 0 -236 83t-80 234v424h168v-405z" />
    <glyph glyph-name="uni0448" unicode="&#x448;" 
d="M1128 0h-1028v1077h160v-936h275v936h159v-936h275v936h159v-1077z" />
    <glyph glyph-name="uni0449" unicode="&#x449;" 
d="M1276 139v-440h-141l-31 301h-1004v1077h160v-936h275v936h159v-936h275v936h159v-938h148z" />
    <glyph glyph-name="uni044A" unicode="&#x44a;" 
d="M496 604v-467h147q139 0 215 51q76 50 76 180t-74 183t-215 53h-149zM496 739h129q492 0 491 -362q0 -377 -493 -377h-297v946h-258v131h428v-338z" />
    <glyph glyph-name="uni044B" unicode="&#x44b;" 
d="M291 600v-467h80q137 0 205.5 52.5t68.5 181.5t-65.5 181t-208.5 52h-80zM1102 0h-166v1077h166v-1077zM291 727h74q459 0 458 -354q0 -190 -120.5 -281.5t-337.5 -91.5h-238v1077h164v-350z" />
    <glyph glyph-name="uni044C" unicode="&#x44c;" 
d="M430 604v-467h232q248 0 247 234q0 121 -59 177t-211 56h-209zM430 739h211q242 0 346 -96q105 -96 105 -274q0 -177 -120 -273t-292 -96h-420v1077h170v-338z" />
    <glyph glyph-name="uni044D" unicode="&#x44d;" 
d="M579.5 1102q231.5 0 354.5 -148.5t123 -408.5t-129 -414t-358.5 -154t-381.5 129l82 111q134 -98 282 -98q303 0 329 366h-510v136h508q-31 342 -310 342q-162 0 -290 -97l-80 111q149 125 380.5 125z" />
    <glyph glyph-name="uni044E" unicode="&#x44e;" 
d="M786 961q-106 -1 -148 -101t-42 -316t41 -322t151 -105q110 0 152 104q41 103 41 321q-1 218 -45 318t-150 101zM794 1102q180 0 274 -146t95 -412q0 -265 -93 -416q-92 -151 -276 -151q-184 1 -274 137t-100 365h-137v-479h-168v1077h168v-454h137q25 479 374 479z" />
    <glyph glyph-name="uni044F" unicode="&#x44f;" 
d="M602 965q-121 -1 -179 -51t-58 -156q0 -203 247 -203h211v397q-100 13 -221 13zM635 1102q182 0 358 -39v-1063h-170v418h-286l-232 -418h-192l258 457q-186 88 -187 301q0 344 451 344z" />
    <glyph glyph-name="uni0451" unicode="&#x451;" 
d="M631 961q-125 0 -203 -89.5t-88 -261.5h565q-2 172 -75.5 261.5t-198.5 89.5zM670.5 119q148.5 0 273.5 100l80 -117q-162 -125 -382 -125t-350 153t-130 404t128 409.5t336 158.5t325.5 -142.5t117.5 -388.5q0 -47 -4 -92h-725q6 -180 94 -270t236.5 -90zM846 1327
q-47 0 -79 31t-32 78t31 78.5t79 31.5t79.5 -31.5t31.5 -78.5t-31.5 -78t-78.5 -31zM422 1327q-47 0 -79 31t-32 78t32 78.5t79 31.5t78.5 -31.5t31.5 -77.5t-31.5 -78t-78.5 -32z" />
    <glyph glyph-name="uni0452" unicode="&#x452;" 
d="M854 774q0 193 -181 193q-91 -1 -170 -55t-126 -126v-786h-170v1225h-168v135h168v149l170 21v-170h346v-135h-346v-287q63 76 155 120t189 44q303 0 303 -320v-731q0 -268 -138 -382q-62 -50 -177 -101l-64 125q119 53 164 121t45 235v725z" />
    <glyph glyph-name="uni0453" unicode="&#x453;" 
d="M324 0v1077h749l-20 -141h-559v-936h-170zM932 1753l90 -145l-412 -185l-57 95z" />
    <glyph glyph-name="uni0454" unicode="&#x454;" 
d="M683 -23q-227 0 -361 151t-134 404q0 254 135 412t359 158t375 -119l-86 -113q-129 92 -269 92t-228 -88q-89 -88 -107 -253h493v-136h-495q12 -186 100 -276q89 -90 237 -90t271 94l84 -115q-147 -121 -374 -121z" />
    <glyph glyph-name="uni0455" unicode="&#x455;" 
d="M573 117q123 0 196 47t73 126t-49.5 123t-224 88t-265 109.5t-90.5 198.5t112.5 213t295.5 80q229 0 391 -121l-76 -115q-139 96 -311 97q-236 0 -236 -142q0 -72 57.5 -107.5t231.5 -82.5t261 -120t87 -198t-68 -199q-124 -136 -381.5 -136.5t-424.5 145.5l96 110
q141 -116 325 -116z" />
    <glyph glyph-name="uni0456" unicode="&#x456;" 
d="M752 135h303v-135h-807v135h334v809h-324v133h494v-942zM614.5 1583q55.5 0 90 -35t34.5 -87t-34.5 -86t-90 -34t-89 34t-33.5 86t33.5 87t89 35z" />
    <glyph glyph-name="uni0457" unicode="&#x457;" 
d="M752 135h303v-135h-807v135h334v809h-324v133h494v-942zM826 1327q-48 0 -78.5 31t-30.5 78t30.5 78.5t78.5 31.5t80 -31.5t32 -78.5t-32 -78t-80 -31zM403.5 1327q-47.5 0 -79 31t-31.5 78t31.5 78.5t79 31.5t79 -31.5t31.5 -77.5t-31.5 -78t-79 -32z" />
    <glyph glyph-name="uni0458" unicode="&#x458;" 
d="M911 1077v-907q0 -260 -174 -403.5t-512 -200.5l-28 131q260 43 402 150.5t142 312.5v784h-450v133h620zM751.5 1583q55.5 0 90.5 -35t35 -87t-35 -86t-90.5 -34t-89 34t-33.5 86t33.5 87t89 35z" />
    <glyph glyph-name="uni0459" unicode="&#x459;" 
d="M743 602v-469h41q127 0 189 53q61 52 61 182t-59 182t-195 52h-37zM743 729h27q442 0 442 -354q0 -186 -116 -281q-117 -94 -324 -94h-194v942h-218l-14 -285q-18 -424 -127 -558q-51 -62 -149 -122l-64 115q49 41 77 79t56 158q29 120 39 316l23 432h542v-348z" />
    <glyph glyph-name="uni045A" unicode="&#x45a;" 
d="M750 545v-412h38q131 0 191 39q59 39 59 161t-59 167t-195 45h-34zM750 672h26q442 0 443 -334q0 -338 -437 -338h-196v547h-269v-547h-167v1077h167v-405h269v405h164v-405z" />
    <glyph glyph-name="uni045B" unicode="&#x45b;" 
d="M854 780q0 187 -181 187q-91 0 -170 -54.5t-126 -126.5v-786h-170v1225h-168v135h168v149l170 21v-170h346v-135h-346v-295q61 82 153.5 127t190.5 45q303 0 303 -320v-782h-170v780z" />
    <glyph glyph-name="uni045C" unicode="&#x45c;" 
d="M217 1077h170v-436h217l311 436h193l-363 -497l420 -580h-207l-358 504h-213v-504h-170v1077zM799 1608l90 -146l-412 -184l-57 94z" />
    <glyph glyph-name="uni045E" unicode="&#x45e;" 
d="M1102 1077l-379 -1083q-66 -186 -174.5 -297t-304.5 -131l-27 137q158 27 227.5 93.5t116.5 203.5h-57l-377 1077h182l312 -948l305 948h176zM611 1325q-122 0 -205.5 60.5t-96.5 168.5l117 27q41 -123 187.5 -123t187.5 123l117 -27q-12 -109 -98.5 -169t-208.5 -60z
" />
    <glyph glyph-name="uni045F" unicode="&#x45f;" horiz-adv-x="1234" 
d="M1022 0h-322v-301h-141l-29 301h-323v1077h170v-936h475v936h170v-1077z" />
    <glyph glyph-name="uni0462" unicode="&#x462;" 
d="M508 139h162q166 0 255 66t89 231q0 287 -344 287h-162v-584zM508 860h137q553 0 553 -422q0 -438 -545 -438h-321v1264h-332v145h854l-18 -145h-328v-404z" />
    <glyph glyph-name="uni0463" unicode="&#x463;" 
d="M469 594v-457h162q139 0 215 49t76 183q0 225 -289 225h-164zM469 1098h272l-22 -137h-250v-234h143q492 0 492 -358q0 -369 -494 -369h-311v961h-178v137h178v221l170 22v-243z" />
    <glyph glyph-name="uni0472" unicode="&#x472;" 
d="M614 125q166 0 246 132t86 394h-665q11 -526 333 -526zM614.5 1284q-159.5 0 -239.5 -124t-92 -374h661q-10 250 -90 374t-239.5 124zM1133 707q0 -332 -134.5 -531t-385.5 -199t-384 195t-133 527.5t134.5 533.5t384 201t384 -197.5t134.5 -529.5z" />
    <glyph glyph-name="uni0473" unicode="&#x473;" 
d="M614 117q252 0 277 362h-553q12 -186 79.5 -274t196.5 -88zM614 961q-258 0 -276 -343h553q-19 343 -277 343zM617 1102q222 0 341 -150.5t119 -407.5t-120.5 -412t-343 -155t-342 151t-119.5 409t121.5 411.5t343.5 153.5z" />
    <glyph glyph-name="uni0474" unicode="&#x474;" 
d="M1022 1436l174 -33q-74 -104 -135 -299l-352 -1104h-185l-473 1409h189l378 -1219l285 959q53 183 119 287z" />
    <glyph glyph-name="uni0475" unicode="&#x475;" 
d="M956 1090l166 -23q-68 -104 -131 -279l-280 -788h-197l-389 1077h180l313 -930l226 697q64 193 112 246z" />
    <glyph glyph-name="uni0490" unicode="&#x490;" 
d="M1114 1708v-299l-18 -154h-641v-1255h-174v1409h661v299h172z" />
    <glyph glyph-name="uni0491" unicode="&#x491;" 
d="M1073 1350v-273l-20 -141h-559v-936h-170v1077h575v273h174z" />
    <glyph glyph-name="uni0492" unicode="&#x492;" 
d="M518 1255v-368h324v-135h-324v-752h-176v752h-207v135h207v522h836l-19 -154h-641z" />
    <glyph glyph-name="uni0493" unicode="&#x493;" 
d="M557 936v-318h256v-135h-256v-483h-170v483h-192v135h192v459h750l-21 -141h-559z" />
    <glyph glyph-name="uni0496" unicode="&#x496;" 
d="M1241 147v-448h-117l-24 301h-70l-211 670h-125v-670h-159v670h-127l-213 -670h-170l251 745l-221 664h168l187 -596h125v596h159v-596h125l189 596h166l-222 -664l203 -598h86z" />
    <glyph glyph-name="uni0497" unicode="&#x497;" 
d="M1249 139v-440h-141l-31 301h-71l-205 506h-111v-506h-151v506h-117l-205 -506h-168l242 580l-221 497h174l180 -438h115v438h151v-438h115l186 438h168l-221 -497l182 -441h129z" />
    <glyph glyph-name="uni0498" unicode="&#x498;" 
d="M1106 418q0 -156 -98.5 -269.5t-270.5 -152.5v-113q94 -8 141.5 -56t47.5 -114q0 -96 -72 -148t-188.5 -52t-202.5 49l55 98q61 -33 139 -33q123 0 123 86q0 51 -44 69.5t-134 18.5l14 179l-43 -3q-326 0 -501 201l114 96q139 -150 383 -149q166 0 257.5 77t91.5 212
t-90.5 201.5t-239.5 66.5h-250l20 149h215q129 0 217.5 58.5t88.5 171.5t-85 171t-221 58q-215 0 -372 -141l-101 108q199 176 473 177q221 0 353.5 -102.5t132.5 -266.5q0 -125 -82 -202t-209 -95q141 -14 239.5 -104t98.5 -246z" />
    <glyph glyph-name="uni0499" unicode="&#x499;" 
d="M1059 311q0 -141 -110.5 -227t-291.5 -102v-99q94 -8 141.5 -56t47.5 -114q0 -96 -72 -148t-188 -52t-203 49l55 98q61 -33 140 -33q123 0 122 86q0 51 -44 69.5t-134 18.5l15 176q-250 10 -426 150l86 113q156 -123 387 -123q139 0 214.5 54t75.5 146q0 176 -276 177
h-217l12 139h195q106 0 169.5 45t63.5 119q0 168 -256 168q-193 0 -329 -101l-84 107q168 131 417 131q190 0 309 -73t119 -218q0 -84 -59 -145.5t-158 -90.5q279 -47 279 -264z" />
    <glyph glyph-name="uni049A" unicode="&#x49a;" 
d="M1202 147v-448h-139l-31 301h-45l-452 668h-164v-668h-176v1409h176v-594h166l434 594h190l-475 -664l412 -598h104z" />
    <glyph glyph-name="uni049B" unicode="&#x49b;" 
d="M1202 139v-440h-141l-31 301h-72l-358 504h-213v-504h-170v1077h170v-436h217l311 436h193l-363 -497l320 -441h137z" />
    <glyph glyph-name="uni049C" unicode="&#x49c;" 
d="M467 668h-100v-668h-172v1409h172v-594h100v352h111v-352h53l348 594h184l-393 -664l432 -745h-196l-375 668h-53v-361h-111v361z" />
    <glyph glyph-name="uni049D" unicode="&#x49d;" 
d="M217 1077h172v-432h92v236h97v-236h57l295 432h178l-336 -495l393 -582h-186l-344 500h-57v-254h-97v254h-92v-500h-172v1077z" />
    <glyph glyph-name="uni04A0" unicode="&#x4a0;" 
d="M451 668v-668h-179v1255h-249v154h428v-592h145l401 592h191l-443 -664l482 -745h-213l-422 668h-141z" />
    <glyph glyph-name="uni04A1" unicode="&#x4a1;" 
d="M442 504v-504h-170v946h-256v131h426v-436h197l315 436h193l-367 -497l424 -580h-207l-360 504h-195z" />
    <glyph glyph-name="uni04A2" unicode="&#x4a2;" 
d="M1188 147v-448h-139l-31 301h-135v672h-537v-672h-174v1409h174v-596h537v596h174v-1262h131z" />
    <glyph glyph-name="uni04A3" unicode="&#x4a3;" 
d="M1159 139v-440h-141l-29 301h-166v481h-477v-481h-170v1077h170v-456h477v456h170v-938h166z" />
    <glyph glyph-name="uni04AA" unicode="&#x4aa;" 
d="M706.5 -489q-114.5 0 -200.5 51l43 104q82 -39 141 -39t90 32t31 85q0 137 -158 240q-236 33 -379 220t-143 516t173 521.5t419 192.5t418 -138l-99 -114q-127 104 -308.5 104t-301 -138t-119.5 -439t118 -441.5t305 -140.5t335 119l90 -117q-129 -129 -354 -149
q152 -98 151 -242q0 -102 -68.5 -164.5t-183 -62.5z" />
    <glyph glyph-name="uni04AB" unicode="&#x4ab;" 
d="M936 -262q0 -102 -68.5 -164.5t-183.5 -62.5t-201 51l43 104q82 -39 141.5 -39t90 32t30.5 85q0 137 -153 236q-211 18 -329 166.5t-118 393.5t135.5 403.5t355.5 158.5t376 -127l-86 -117q-133 100 -277.5 100t-231.5 -108.5t-87 -315t87 -309t236.5 -102.5t278.5 102
l82 -119q-117 -95 -281 -122q160 -100 160 -246z" />
    <glyph glyph-name="uni04AC" unicode="&#x4ac;" 
d="M698 1260v-1113h127v-448h-139l-31 301h-131v1260h-442v149h1063l-19 -149h-428z" />
    <glyph glyph-name="uni04AD" unicode="&#x4ad;" 
d="M698 936v-797h168v-440h-141l-31 301h-164v936h-395v141h971l-21 -141h-387z" />
    <glyph glyph-name="uni04AE" unicode="&#x4ae;" 
d="M702 0h-176v543l-477 866h195l374 -707l379 707h183l-478 -864v-545z" />
    <glyph glyph-name="uni04AF" unicode="&#x4af;" 
d="M530 33l-411 1044h180l319 -880l316 880h176l-412 -1044v-447l-168 -20v467z" />
    <glyph glyph-name="uni04B0" unicode="&#x4b0;" 
d="M967 653v-137h-265v-516h-176v516h-264v137h203l-416 756h195l374 -707l379 707h183l-418 -756h205z" />
    <glyph glyph-name="uni04B1" unicode="&#x4b1;" 
d="M913 147v-137h-215v-424l-168 -20v444h-215v137h170l-366 930h180l319 -880l316 880h176l-367 -930h170z" />
    <glyph glyph-name="uni04B2" unicode="&#x4b2;" 
d="M1178 147v-448h-140l-30 301h-45l-353 639l-358 -639h-189l445 752l-406 657h201l311 -543l312 543h190l-401 -647l362 -615h101z" />
    <glyph glyph-name="uni04B3" unicode="&#x4b3;" 
d="M1149 139v-440h-141l-31 301h-72l-297 463l-299 -463h-194l399 569l-350 508h201l251 -401l254 401h195l-348 -499l301 -439h131z" />
    <glyph glyph-name="uni04B6" unicode="&#x4b6;" 
d="M1184 147v-448h-140l-30 301h-131v578q-96 -68 -178 -97.5t-191 -29.5q-184 0 -297 113.5t-113 301.5v543h177v-528q0 -276 276 -277q197 0 326 125v680h174v-1262h127z" />
    <glyph glyph-name="uni04B7" unicode="&#x4b7;" 
d="M324 672q0 -201 180 -201q88 0 173 34t134 89v483h168v-938h168v-440h-141l-29 301h-166v457q-135 -121 -340 -121q-156 0 -235.5 83t-79.5 234v424h168v-405z" />
    <glyph glyph-name="uni04B8" unicode="&#x4b8;" 
d="M1057 1409v-1409h-174v578q-121 -88 -232 -113v-221h-119v207h-18q-184 0 -297 113.5t-113 301.5v543h177v-528q0 -264 251 -277v498h119v-490q133 23 232 117v680h174z" />
    <glyph glyph-name="uni04B9" unicode="&#x4b9;" 
d="M999 1077v-1077h-168v457q-84 -76 -206 -105v-166h-111v150h-22q-156 0 -236 83t-80 234v424h168v-405q0 -102 41 -149.5t129 -51.5v326h111v-316q135 31 206 113v483h168z" />
    <glyph glyph-name="uni04BA" unicode="&#x4ba;" 
d="M692 920q212 0 322 -116t108 -321v-483h-176v481q0 285 -278 285q-193 0 -322 -164v-602h-174v1409h174v-635q134 146 346 146z" />
    <glyph glyph-name="uni04BB" unicode="&#x4bb;" 
d="M717 977q143 0 225 -89t82 -243v-645h-170v621q0 123 -47 172t-137 49q-166 0 -289 -197l-2 6v-651h-170v1509l170 21v-725q127 172 338 172z" />
    <glyph glyph-name="uni04C0" unicode="&#x4c0;" 
d="M1018 1270h-316v-1129h316v-141h-807v141h315v1129h-315v139h807v-139z" />
    <glyph glyph-name="uni04C1" unicode="&#x4c1;" 
d="M535 813v596h159v-596h125l189 596h166l-222 -664l252 -745h-174l-211 670h-125v-670h-159v670h-127l-213 -670h-170l251 745l-221 664h168l187 -596h125zM611 1583q-122 0 -205.5 60.5t-96.5 168.5l117 27q41 -123 187.5 -123t187.5 123l117 -27q-12 -109 -98.5 -169
t-208.5 -60z" />
    <glyph glyph-name="uni04C2" unicode="&#x4c2;" 
d="M539 506h-117l-213 -506h-168l250 580l-230 497h172l191 -438h115v438h151v-438h115l194 438h168l-229 -497l250 -580h-174l-213 506h-111v-506h-151v506zM611 1325q-122 0 -205.5 60.5t-96.5 168.5l117 27q41 -123 187.5 -123t187.5 123l117 -27q-12 -109 -98.5 -169
t-208.5 -60z" />
    <glyph glyph-name="uni04CB" unicode="&#x4cb;" 
d="M1057 1409v-1409h-150l-30 -301h-140v448h146v431q-96 -68 -178 -97.5t-191 -29.5q-184 0 -297 113.5t-113 301.5v543h177v-528q0 -276 276 -277q197 0 326 125v680h174z" />
    <glyph glyph-name="uni04CC" unicode="&#x4cc;" 
d="M344 672q0 -201 180 -201q88 0 173 34t134 89v483h168v-1077h-172l-30 -301h-142v440h176v318q-135 -121 -339 -121q-156 0 -236 83t-80 234v424h168v-405z" />
    <glyph glyph-name="uni04CF" unicode="&#x4cf;" 
d="M625 1513v-1249q0 -145 178 -145q86 0 182 37l45 -123q-102 -55 -250 -55t-236.5 79.5t-88.5 216.5v1104h-332v135h502z" />
    <glyph glyph-name="uni04D0" unicode="&#x4d0;" 
d="M844 506l-234 756l-235 -756h469zM330 360l-115 -360h-172l459 1409h225l459 -1409h-185l-112 360h-559zM611 1583q-122 0 -205.5 60.5t-96.5 168.5l117 27q41 -123 187.5 -123t187.5 123l117 -27q-12 -109 -98.5 -169t-208.5 -60z" />
    <glyph glyph-name="uni04D1" unicode="&#x4d1;" 
d="M532 106q80 0 153 40t120 114v279h-156q-326 0 -325 -228q-1 -205 208 -205zM977 754v-521q0 -61 20.5 -91.5t67.5 -45.5l-41 -121q-154 20 -197 154q-117 -152 -338 -152q-162 0 -255 90.5t-93 249t130 248.5t376 90h158v90q0 213 -256 213q-129 0 -281 -53l-45 127
q186 70 366.5 70t284 -92t103.5 -256zM595 1325q-122 0 -206 60.5t-96 168.5l117 27q41 -123 187.5 -123t186.5 123l117 -27q-12 -109 -98 -169t-208 -60z" />
    <glyph glyph-name="uni04D2" unicode="&#x4d2;" 
d="M844 506l-234 756l-235 -756h469zM330 360l-115 -360h-172l459 1409h225l459 -1409h-185l-112 360h-559zM825 1571q-47 0 -78.5 31.5t-31.5 77.5t30.5 78t78.5 32t80 -32t32 -79t-32 -77.5t-79 -30.5zM401.5 1571q-47.5 0 -79 30.5t-31.5 77.5t31.5 79t79 32t79 -32
t31.5 -78t-31.5 -77.5t-79 -31.5z" />
    <glyph glyph-name="uni04D3" unicode="&#x4d3;" 
d="M532 106q80 0 153 40t120 114v279h-156q-326 0 -325 -228q-1 -205 208 -205zM977 754v-521q0 -61 20.5 -91.5t67.5 -45.5l-41 -121q-154 20 -197 154q-117 -152 -338 -152q-162 0 -255 90.5t-93 249t130 248.5t376 90h158v90q0 213 -256 213q-129 0 -281 -53l-45 127
q186 70 366.5 70t284 -92t103.5 -256zM809 1327q-47 0 -79 31t-32 78t31 78.5t79 31.5t80 -31.5t32 -78.5t-32 -78t-79 -31zM385 1327q-47 0 -79 31t-32 78t32 78.5t79 31.5t79 -31.5t32 -77.5t-32 -78t-79 -32z" />
    <glyph glyph-name="uni04D4" unicode="&#x4d4;" 
d="M643 508l-151 764l-189 -764h340zM1141 786v-143h-355l107 -500h352v-143h-495l-74 360h-420l-100 -360h-181l414 1409h770l-20 -143h-486l107 -480h381z" />
    <glyph glyph-name="uni04D5" unicode="&#x4d5;" 
d="M520 539h-88q-260 0 -260 -220q0 -102 41 -156t109 -54t118 47t109 151q-29 95 -29 232zM889 958q-98 0 -144 -78q-45 -79 -59 -270h389q-4 178 -46 263t-140 85zM891 1102q352 0 352 -531q0 -45 -4 -94h-553q14 -184 70 -270t156 -86q102 0 210 80l78 -117
q-133 -106 -285 -107q-197 0 -303 183q-72 -98 -142 -140t-171 -43q-143 1 -227 91t-84 250t111 248q112 89 327 89h94v90q0 213 -186 213q-86 0 -215 -55l-45 129q145 70 276 70q211 0 283 -180q29 84 95 132q67 48 163 48z" />
    <glyph glyph-name="uni04D6" unicode="&#x4d6;" 
d="M434 788h522v-145h-522v-502h641v-141h-817v1409h799l-21 -143h-602v-478zM654 1583q-122 0 -205.5 60.5t-96.5 168.5l117 27q41 -123 187.5 -123t187.5 123l117 -27q-12 -109 -98.5 -169t-208.5 -60z" />
    <glyph glyph-name="uni04D7" unicode="&#x4d7;" 
d="M631 961q-125 0 -203 -89.5t-88 -261.5h565q-2 172 -75.5 261.5t-198.5 89.5zM670.5 119q148.5 0 273.5 100l80 -117q-162 -125 -382 -125t-350 153t-130 404t128 409.5t336 158.5t325.5 -142.5t117.5 -388.5q0 -47 -4 -92h-725q6 -180 94 -270t236.5 -90zM632 1325
q-122 0 -206 60.5t-96 168.5l116 27q41 -123 188 -123t187 123l117 -27q-12 -109 -98 -169t-208 -60z" />
    <glyph glyph-name="uni04D8" unicode="&#x4d8;" 
d="M610 121q309 0 338 512h-686q12 -272 96 -392t252 -120zM92 678q0 45 6 100h850q-8 270 -98 392t-257 122t-314 -127l-99 111q186 158 432 158t381 -178t135 -531q0 -352 -139 -550t-382 -198q-243 1 -379 179t-136 522z" />
    <glyph glyph-name="uni04D9" unicode="&#x4d9;" 
d="M603 115q138 0 210 82t80 270h-574v-16q-2 -160 72 -248t212 -88zM614.5 1102q227.5 0 344 -147.5t116.5 -412.5t-127 -415t-342 -150t-334.5 140.5t-119.5 388.5q0 66 4 94h735q-12 186 -84 272t-224.5 86t-273.5 -102l-80 119q158 127 385.5 127z" />
    <glyph glyph-name="uni04DA" unicode="&#x4da;" 
d="M610 121q309 0 338 512h-686q12 -272 96 -392t252 -120zM92 678q0 45 6 100h850q-8 270 -98 392t-257 122t-314 -127l-99 111q186 158 432 158t381 -178.5t135 -530.5t-139 -550t-382 -198t-379 178.5t-136 522.5zM903 1571q-47 0 -78.5 31.5t-31.5 77.5t30.5 78t78.5 32
t80 -32t32 -79t-32 -77.5t-79 -30.5zM479 1571q-47 0 -78.5 30.5t-31.5 77.5t31.5 79t78.5 32t79 -32t32 -78t-32 -77.5t-79 -31.5z" />
    <glyph glyph-name="uni04DB" unicode="&#x4db;" 
d="M603 115q138 0 210 82t80 270h-574v-16q-2 -160 72 -248t212 -88zM614.5 1102q227.5 0 344 -147.5t116.5 -412.5t-127 -415t-342 -150t-334.5 140.5t-119.5 388.5q0 66 4 94h735q-12 186 -84 272t-224.5 86t-273.5 -102l-80 119q158 127 385.5 127zM825 1327
q-47 0 -78.5 31t-31.5 78t30.5 78.5t78.5 31.5t80 -31.5t32 -78.5t-32 -78t-79 -31zM401.5 1327q-47.5 0 -79 31t-31.5 78t31.5 78.5t79 31.5t79 -31.5t31.5 -77.5t-31.5 -78t-79 -32z" />
    <glyph glyph-name="uni04DC" unicode="&#x4dc;" 
d="M535 813v596h159v-596h125l189 596h166l-222 -664l252 -745h-174l-211 670h-125v-670h-159v670h-127l-213 -670h-170l251 745l-221 664h168l187 -596h125zM825 1571q-47 0 -78.5 31.5t-31.5 77.5t30.5 78t78.5 32t80 -32t32 -79t-32 -77.5t-79 -30.5zM401.5 1571
q-47.5 0 -79 30.5t-31.5 77.5t31.5 79t79 32t79 -32t31.5 -78t-31.5 -77.5t-79 -31.5z" />
    <glyph glyph-name="uni04DD" unicode="&#x4dd;" 
d="M539 506h-117l-213 -506h-168l250 580l-230 497h172l191 -438h115v438h151v-438h115l194 438h168l-229 -497l250 -580h-174l-213 506h-111v-506h-151v506zM825 1327q-47 0 -78.5 31t-31.5 78t30.5 78.5t78.5 31.5t80 -31.5t32 -78.5t-32 -78t-79 -31zM401.5 1327
q-47.5 0 -79 31t-31.5 78t31.5 78.5t79 31.5t79 -31.5t31.5 -77.5t-31.5 -78t-79 -32z" />
    <glyph glyph-name="uni04DE" unicode="&#x4de;" 
d="M573 1434q221 0 353.5 -102.5t132.5 -266.5q0 -125 -82 -202t-209 -95q141 -14 239.5 -104.5t98.5 -243.5q0 -195 -145.5 -319t-387.5 -124q-326 0 -501 201l114 96q139 -150 383 -149q166 0 257.5 77t91.5 212t-90.5 201.5t-239.5 66.5h-250l20 149h215
q129 0 217.5 58.5t88.5 171.5t-85 171t-221 58q-215 0 -372 -141l-101 108q199 177 473 177zM907 1759q-47 0 -78.5 32t-31.5 78t30.5 77.5t78.5 31.5t80 -31.5t32 -78.5t-32 -78t-79 -31zM483 1759q-47 0 -78.5 31t-31.5 78t31.5 78.5t78.5 31.5t79 -31.5t32 -77.5t-32 -78
t-79 -32z" />
    <glyph glyph-name="uni04DF" unicode="&#x4df;" 
d="M588 633q106 0 169.5 45t63.5 119q0 168 -256 168q-193 0 -329 -101l-84 107q168 131 417 131q190 0 309 -73t119 -218q0 -84 -59 -145.5t-158 -90.5q279 -47 279 -264q0 -158 -135.5 -246t-345.5 -88q-281 0 -467 150l86 113q156 -123 387 -123q139 0 214.5 54t75.5 146
q0 176 -276 177h-217l12 139h195zM813 1329q-47 0 -79 32t-32 78t31 77.5t79 31.5t80 -31.5t32 -78.5t-32 -78t-79 -31zM389 1329q-47 0 -78.5 31t-31.5 78t31.5 78.5t78.5 31.5t79 -31.5t32 -77.5t-32 -78t-79 -32z" />
    <glyph glyph-name="uni04E2" unicode="&#x4e2;" 
d="M172 1409h174v-715q0 -266 -24 -504h8l501 1219h226v-1409h-174v719q0 260 24 495h-8l-498 -1214h-229v1409zM338 1628v131h551v-131h-551z" />
    <glyph glyph-name="uni04E3" unicode="&#x4e3;" 
d="M1022 0h-164v506q0 268 19 385h-9l-456 -891h-205v1077h164v-506q0 -213 -17 -376h8l451 882h209v-1077zM338 1384v132h551v-132h-551z" />
    <glyph glyph-name="uni04E4" unicode="&#x4e4;" 
d="M172 1409h174v-715q0 -266 -24 -504h8l501 1219h226v-1409h-174v719q0 260 24 495h-8l-498 -1214h-229v1409zM825 1571q-47 0 -78.5 31.5t-31.5 77.5t30.5 78t78.5 32t80 -32t32 -79t-32 -77.5t-79 -30.5zM401.5 1571q-47.5 0 -79 30.5t-31.5 77.5t31.5 79t79 32t79 -32
t31.5 -78t-31.5 -77.5t-79 -31.5z" />
    <glyph glyph-name="uni04E5" unicode="&#x4e5;" 
d="M1022 0h-164v506q0 268 19 385h-9l-456 -891h-205v1077h164v-506q0 -213 -17 -376h8l451 882h209v-1077zM825 1327q-47 0 -78.5 31t-31.5 78t30.5 78.5t78.5 31.5t80 -31.5t32 -78.5t-32 -78t-79 -31zM401.5 1327q-47.5 0 -79 31t-31.5 78t31.5 78.5t79 31.5t79 -31.5
t31.5 -77.5t-31.5 -78t-79 -32z" />
    <glyph glyph-name="uni04E6" unicode="&#x4e6;" 
d="M950 704.5q0 288.5 -79.5 434t-256 145.5t-256 -146.5t-79.5 -437.5q0 -575 335 -575q174 0 255 145.5t81 434zM1133 707q0 -332 -134.5 -531t-385.5 -199t-384 195t-133 527.5t134.5 533.5t384 201t384 -197.5t134.5 -529.5zM825 1571q-47 0 -78.5 31.5t-31.5 77.5
t30.5 78t78.5 32t80 -32t32 -79t-32 -77.5t-79 -30.5zM401.5 1571q-47.5 0 -79 30.5t-31.5 77.5t31.5 79t79 32t79 -32t31.5 -78t-31.5 -77.5t-79 -31.5z" />
    <glyph glyph-name="uni04E7" unicode="&#x4e7;" 
d="M614.5 117q280.5 0 280.5 423t-281 423t-280.5 -423t281 -423zM617 1102q222 0 341 -150.5t119 -407.5t-120.5 -412t-343 -155t-342 151t-119.5 409t121.5 411.5t343.5 153.5zM825 1327q-47 0 -78.5 31t-31.5 78t30.5 78.5t78.5 31.5t80 -31.5t32 -78.5t-32 -78t-79 -31z
M401.5 1327q-47.5 0 -79 31t-31.5 78t31.5 78.5t79 31.5t79 -31.5t31.5 -77.5t-31.5 -78t-79 -32z" />
    <glyph glyph-name="uni04E8" unicode="&#x4e8;" 
d="M614 125q166 0 246 132t86 394h-665q11 -526 333 -526zM614.5 1284q-159.5 0 -239.5 -124t-92 -374h661q-10 250 -90 374t-239.5 124zM1133 707q0 -332 -134.5 -531t-385.5 -199t-384 195t-133 527.5t134.5 533.5t384 201t384 -197.5t134.5 -529.5z" />
    <glyph glyph-name="uni04E9" unicode="&#x4e9;" 
d="M614 117q252 0 277 362h-553q12 -186 79.5 -274t196.5 -88zM614 961q-258 0 -276 -343h553q-19 343 -277 343zM617 1102q222 0 341 -150.5t119 -407.5t-120.5 -412t-343 -155t-342 151t-119.5 409t121.5 411.5t343.5 153.5z" />
    <glyph glyph-name="uni04EA" unicode="&#x4ea;" 
d="M614 125q166 0 246 132t86 394h-665q11 -526 333 -526zM614.5 1284q-159.5 0 -239.5 -124t-92 -374h661q-10 250 -90 374t-239.5 124zM1133 707q0 -332 -134.5 -531t-385.5 -199t-384 195t-133 527.5t134.5 533.5t384 201t384 -197.5t134.5 -529.5zM825 1571
q-47 0 -78.5 31.5t-31.5 77.5t30.5 78t78.5 32t80 -32t32 -79t-32 -77.5t-79 -30.5zM401.5 1571q-47.5 0 -79 30.5t-31.5 77.5t31.5 79t79 32t79 -32t31.5 -78t-31.5 -77.5t-79 -31.5z" />
    <glyph glyph-name="uni04EB" unicode="&#x4eb;" 
d="M614 117q252 0 277 362h-553q12 -186 79.5 -274t196.5 -88zM614 961q-258 0 -276 -343h553q-19 343 -277 343zM617 1102q222 0 341 -150.5t119 -407.5t-120.5 -412t-343 -155t-342 151t-119.5 409t121.5 411.5t343.5 153.5zM826 1327q-48 0 -78.5 31t-30.5 78t30.5 78.5
t78.5 31.5t80 -31.5t32 -78.5t-32 -78t-80 -31zM403.5 1327q-47.5 0 -79 31t-31.5 78t31.5 78.5t79 31.5t79 -31.5t31.5 -77.5t-31.5 -78t-79 -32z" />
    <glyph glyph-name="uni04EC" unicode="&#x4ec;" 
d="M557 1434q254 0 399.5 -180.5t145.5 -536.5t-150.5 -548t-419.5 -192t-446 181l107 100q152 -135 334.5 -135t281 129t113.5 399h-623v148h623q-14 260 -109.5 375.5t-269.5 115.5q-106 0 -184 -34.5t-158 -98.5l-99 103q201 174 455 174zM802 1573q-48 0 -79 30.5
t-31 78t31 79t79 31.5t79.5 -31.5t31.5 -79t-31.5 -78t-79.5 -30.5zM379 1573q-47 0 -79 30.5t-32 78t32 79t79 31.5t78.5 -31.5t31.5 -78t-31.5 -78t-78.5 -31.5z" />
    <glyph glyph-name="uni04ED" unicode="&#x4ed;" 
d="M579.5 1102q231.5 0 354.5 -148.5t123 -408.5t-129 -414t-358.5 -154t-381.5 129l82 111q134 -98 282 -98q303 0 329 366h-510v136h508q-31 342 -310 342q-162 0 -290 -97l-80 111q149 125 380.5 125zM813 1327q-47 0 -79 31t-32 78t31 78.5t79 31.5t80 -31.5t32 -78.5
t-32 -78t-79 -31zM389 1327q-47 0 -78.5 31t-31.5 78t31.5 78.5t78.5 31.5t79 -31.5t32 -77.5t-32 -78t-79 -32z" />
    <glyph glyph-name="uni04EE" unicode="&#x4ee;" 
d="M1188 1409l-434 -1042q-78 -184 -184.5 -273.5t-319.5 -116.5l-27 140q178 27 253 86t120 186h-76l-465 1020h183l403 -907l369 907h178zM358 1628v131h551v-131h-551z" />
    <glyph glyph-name="uni04EF" unicode="&#x4ef;" 
d="M1102 1077l-379 -1083q-66 -186 -174.5 -297t-304.5 -131l-27 137q158 27 227.5 93.5t116.5 203.5h-57l-377 1077h182l312 -948l305 948h176zM338 1384v132h551v-132h-551z" />
    <glyph glyph-name="uni04F0" unicode="&#x4f0;" 
d="M1188 1409l-434 -1042q-78 -184 -184.5 -273.5t-319.5 -116.5l-27 140q178 27 253 86t120 186h-76l-465 1020h183l403 -907l369 907h178zM846 1571q-47 0 -79 31.5t-32 77.5t31 78t79 32t79.5 -32t31.5 -79t-31.5 -77.5t-78.5 -30.5zM422 1571q-47 0 -79 30.5t-32 77.5
t32 79t79 32t78.5 -32t31.5 -78t-31.5 -77.5t-78.5 -31.5z" />
    <glyph glyph-name="uni04F1" unicode="&#x4f1;" 
d="M1102 1077l-379 -1083q-66 -186 -174.5 -297t-304.5 -131l-27 137q158 27 227.5 93.5t116.5 203.5h-57l-377 1077h182l312 -948l305 948h176zM825 1327q-47 0 -78.5 31t-31.5 78t30.5 78.5t78.5 31.5t80 -31.5t32 -78.5t-32 -78t-79 -31zM401.5 1327q-47.5 0 -79 31
t-31.5 78t31.5 78.5t79 31.5t79 -31.5t31.5 -77.5t-31.5 -78t-79 -32z" />
    <glyph glyph-name="uni04F2" unicode="&#x4f2;" 
d="M1188 1409l-434 -1042q-78 -184 -184.5 -273.5t-319.5 -116.5l-27 140q178 27 253 86t120 186h-76l-465 1020h183l403 -907l369 907h178zM909 1954l150 -78l-221 -334l-107 57zM553 1954l152 -72l-199 -336l-111 53z" />
    <glyph glyph-name="uni04F3" unicode="&#x4f3;" 
d="M1102 1077l-379 -1083q-66 -186 -174.5 -297t-304.5 -131l-27 137q158 27 227.5 93.5t116.5 203.5h-57l-377 1077h182l312 -948l305 948h176zM877 1710l149 -78l-221 -334l-107 58zM520 1710l152 -72l-199 -335l-111 53z" />
    <glyph glyph-name="uni04F4" unicode="&#x4f4;" 
d="M1057 1409v-1409h-174v578q-96 -68 -178 -97.5t-191 -29.5q-184 0 -297 113.5t-113 301.5v543h177v-528q0 -276 276 -277q197 0 326 125v680h174zM802 1571q-48 0 -79 31.5t-31 77.5t31 78t79 32t79.5 -32t31.5 -79t-31.5 -77.5t-79.5 -30.5zM379 1571q-47 0 -79 30.5
t-32 77.5t32 79t79 32t78.5 -32t31.5 -78t-31.5 -77.5t-78.5 -31.5z" />
    <glyph glyph-name="uni04F5" unicode="&#x4f5;" 
d="M344 672q0 -201 180 -201q88 0 173 34t134 89v483h168v-1077h-168v457q-135 -121 -339 -121q-156 0 -236 83t-80 234v424h168v-405zM798 1327q-48 0 -79 31t-31 78t31 78.5t79 31.5t79.5 -31.5t31.5 -78.5t-31.5 -78t-79.5 -31zM375 1327q-47 0 -79 31t-32 78t32 78.5
t79 31.5t78.5 -31.5t31.5 -77.5t-31.5 -78t-78.5 -32z" />
    <glyph glyph-name="uni04F6" unicode="&#x4f6;" 
d="M455 1255v-1108h120v-448h-139l-30 301h-125v1409h833l-18 -154h-641z" />
    <glyph glyph-name="uni04F7" unicode="&#x4f7;" 
d="M494 936v-797h168v-440h-142l-31 301h-165v1077h749l-20 -141h-559z" />
    <glyph glyph-name="uni04F8" unicode="&#x4f8;" 
d="M244 752v-611h151q150 0 224.5 73t74.5 237q0 301 -301 301h-149zM1165 0h-180v1409h180v-1409zM244 885h129q508 0 508 -432q0 -225 -130 -339t-374 -114h-314v1409h181v-524zM825 1571q-47 0 -78.5 31.5t-31.5 77.5t30.5 78t78.5 32t80 -32t32 -79t-32 -77.5t-79 -30.5
zM401.5 1571q-47.5 0 -79 30.5t-31.5 77.5t31.5 79t79 32t79 -32t31.5 -78t-31.5 -77.5t-79 -31.5z" />
    <glyph glyph-name="uni04F9" unicode="&#x4f9;" 
d="M291 600v-467h80q137 0 205.5 52.5t68.5 181.5t-65.5 181t-208.5 52h-80zM1102 0h-166v1077h166v-1077zM291 727h74q459 0 458 -354q0 -190 -120.5 -281.5t-337.5 -91.5h-238v1077h164v-350zM825 1327q-47 0 -78.5 31t-31.5 78t30.5 78.5t78.5 31.5t80 -31.5t32 -78.5
t-32 -78t-79 -31zM401.5 1327q-47.5 0 -79 31t-31.5 78t31.5 78.5t79 31.5t79 -31.5t31.5 -77.5t-31.5 -78t-79 -32z" />
    <glyph glyph-name="uni051C" unicode="&#x51c;" 
d="M1004 0h-232l-158 1034h-8l-160 -1034h-237l-199 1409h176l146 -1198h8l168 1034h217l156 -1026h8l168 1190h162z" />
    <glyph glyph-name="uni051D" unicode="&#x51d;" 
d="M762 0l-139 774h-9l-145 -774h-236l-196 1077h174l139 -946h8l164 809h203l154 -805h8l139 942h166l-188 -1077h-242z" />
    <glyph glyph-name="uni0524" unicode="&#x524;" 
d="M1184 147v-448h-140l-30 301h-131v1257h-537v-1257h-174v1409h885v-1262h127z" />
    <glyph glyph-name="uni0525" unicode="&#x525;" 
d="M1176 139v-440h-142l-28 301h-166v938h-478v-938h-169v1077h817v-938h166z" />
    <glyph glyph-name="uni0526" unicode="&#x526;" 
d="M1231 147v-448h-139l-31 301h-127v481q0 285 -275 285q-184 0 -313 -164v-602h-174v1409h174v-635q133 146 339 146q207 0 315 -116t108 -321v-336h123z" />
    <glyph glyph-name="uni0527" unicode="&#x527;" 
d="M1180 139v-440h-142l-28 301h-166v621q0 123 -46 172t-139 49q-166 0 -288 -197l-2 6v-651h-170v1509l170 21v-725q127 172 338 172q143 0 225 -89t82 -243v-506h166z" />
    <glyph glyph-name="Wgrave" unicode="&#x1e80;" 
d="M1004 0h-232l-158 1034h-8l-160 -1034h-237l-199 1409h176l146 -1198h8l168 1034h217l156 -1026h8l168 1190h162zM852 1638l-53 -90l-420 166l94 148z" />
    <glyph glyph-name="wgrave" unicode="&#x1e81;" 
d="M762 0l-139 774h-9l-145 -774h-236l-196 1077h174l139 -946h8l164 809h203l154 -805h8l139 942h166l-188 -1077h-242zM379 1464l90 148l379 -240l-55 -94z" />
    <glyph glyph-name="Wacute" unicode="&#x1e82;" 
d="M1004 0h-232l-158 1034h-8l-160 -1034h-237l-199 1409h176l146 -1198h8l168 1034h217l156 -1026h8l168 1190h162zM860 1708l-436 -160l-45 90l405 215z" />
    <glyph glyph-name="wacute" unicode="&#x1e83;" 
d="M762 0l-139 774h-9l-145 -774h-236l-196 1077h174l139 -946h8l164 809h203l154 -805h8l139 942h166l-188 -1077h-242zM758 1608l90 -146l-412 -184l-57 94z" />
    <glyph glyph-name="Wdieresis" unicode="&#x1e84;" 
d="M1004 0h-232l-158 1034h-8l-160 -1034h-237l-199 1409h176l146 -1198h8l168 1034h217l156 -1026h8l168 1190h162zM825 1571q-47 0 -78.5 31.5t-31.5 77.5t30.5 78t78.5 32t80 -32t32 -79t-32 -77.5t-79 -30.5zM401.5 1571q-47.5 0 -79 30.5t-31.5 77.5t31.5 79t79 32
t79 -32t31.5 -78t-31.5 -77.5t-79 -31.5z" />
    <glyph glyph-name="wdieresis" unicode="&#x1e85;" 
d="M762 0l-139 774h-9l-145 -774h-236l-196 1077h174l139 -946h8l164 809h203l154 -805h8l139 942h166l-188 -1077h-242zM825 1327q-47 0 -78.5 31t-31.5 78t30.5 78.5t78.5 31.5t80 -31.5t32 -78.5t-32 -78t-79 -31zM401.5 1327q-47.5 0 -79 31t-31.5 78t31.5 78.5t79 31.5
t79 -31.5t31.5 -77.5t-31.5 -78t-79 -32z" />
    <glyph glyph-name="Ygrave" unicode="&#x1ef2;" 
d="M702 0h-176v543l-477 866h195l374 -707l379 707h183l-478 -864v-545zM858 1638l-53 -90l-420 166l94 148z" />
    <glyph glyph-name="ygrave" unicode="&#x1ef3;" 
d="M1102 1077l-379 -1083q-66 -186 -174.5 -297t-304.5 -131l-27 137q158 27 227.5 93.5t116.5 203.5h-57l-377 1077h182l312 -948l305 948h176zM379 1464l90 148l379 -240l-55 -94z" />
    <glyph glyph-name="uni1F70" unicode="&#x1f70;" 
d="M534 965q-110 0 -170.5 -113t-60.5 -324q0 -414 223 -413q209 0 293 432q-41 238 -108 328t-177 90zM522 1102q143 0 225 -77t115 -263l56 315h155l-104 -575l53 -279q12 -76 92 -104l-61 -144q-68 10 -122 61.5t-67 133.5l-16 115q-106 -307 -336 -308
q-188 0 -289.5 138.5t-101.5 404.5t103 424t298 158zM334 1464l90 148l379 -240l-55 -94z" />
    <glyph glyph-name="uni1F71" unicode="&#x1f71;" 
d="M534 965q-110 0 -170.5 -113t-60.5 -324q0 -414 223 -413q209 0 293 432q-41 238 -108 328t-177 90zM522 1102q143 0 225 -77t115 -263l56 315h155l-104 -575l53 -279q12 -76 92 -104l-61 -144q-68 10 -122 61.5t-67 133.5l-16 115q-106 -307 -336 -308
q-188 0 -289.5 138.5t-101.5 404.5t103 424t298 158zM713 1608l90 -146l-412 -184l-57 94z" />
    <glyph glyph-name="uni1F72" unicode="&#x1f72;" 
d="M616 494q-137 0 -199.5 -42t-62.5 -134.5t78 -146.5t213 -54q209 0 381 119l92 -115q-193 -143 -483 -144q-205 0 -335 88.5t-130 245.5q0 121 68.5 184.5t201.5 82.5q-111 23 -168 84t-57 151q0 137 123 213t309 76q252 0 410 -111l-86 -106q-131 80 -318 80
q-262 0 -262 -168q0 -76 63.5 -120t172.5 -44h194l-20 -139h-185zM412 1464l90 148l379 -240l-56 -94z" />
    <glyph glyph-name="uni1F73" unicode="&#x1f73;" 
d="M616 494q-137 0 -199.5 -42t-62.5 -134.5t78 -146.5t213 -54q209 0 381 119l92 -115q-193 -143 -483 -144q-205 0 -335 88.5t-130 245.5q0 121 68.5 184.5t201.5 82.5q-111 23 -168 84t-57 151q0 137 123 213t309 76q252 0 410 -111l-86 -106q-131 80 -318 80
q-262 0 -262 -168q0 -76 63.5 -120t172.5 -44h194l-20 -139h-185zM791 1608l90 -146l-412 -184l-57 94z" />
    <glyph glyph-name="uni1F74" unicode="&#x1f74;" 
d="M719 1102q305 0 305 -320v-1196l-170 -20v1089q0 178 -35 245t-153 67q-84 0 -163 -54.5t-128 -126.5v-786h-170v725q0 172 -55 354l159 23q35 -63 49 -180q68 86 165.5 133t195.5 47zM377 1464l90 148l379 -240l-55 -94z" />
    <glyph glyph-name="uni1F75" unicode="&#x1f75;" 
d="M719 1102q305 0 305 -320v-1196l-170 -20v1089q0 178 -35 245t-153 67q-84 0 -163 -54.5t-128 -126.5v-786h-170v725q0 172 -55 354l159 23q35 -63 49 -180q68 86 165.5 133t195.5 47zM756 1608l90 -146l-412 -184l-57 94z" />
    <glyph glyph-name="uni1F76" unicode="&#x1f76;" 
d="M664 1077v-811q0 -147 178 -147q86 0 182 37l45 -123q-94 -55 -247.5 -55.5t-240.5 81.5t-87 226v649h-365l21 143h514zM346 1464l90 148l379 -240l-55 -94z" />
    <glyph glyph-name="uni1F77" unicode="&#x1f77;" 
d="M664 1077v-811q0 -147 178 -147q86 0 182 37l45 -123q-94 -55 -247.5 -55.5t-240.5 81.5t-87 226v649h-365l21 143h514zM725 1608l90 -146l-412 -184l-57 94z" />
    <glyph glyph-name="uni1F78" unicode="&#x1f78;" 
d="M614.5 117q280.5 0 280.5 423t-281 423t-280.5 -423t281 -423zM617 1102q222 0 341 -150.5t119 -407.5t-120.5 -412t-343 -155t-342 151t-119.5 409t121.5 411.5t343.5 153.5zM379 1464l90 148l379 -240l-55 -94z" />
    <glyph glyph-name="uni1F79" unicode="&#x1f79;" 
d="M614.5 117q280.5 0 280.5 423t-281 423t-280.5 -423t281 -423zM617 1102q222 0 341 -150.5t119 -407.5t-120.5 -412t-343 -155t-342 151t-119.5 409t121.5 411.5t343.5 153.5zM758 1608l90 -146l-412 -184l-57 94z" />
    <glyph glyph-name="uni1F7A" unicode="&#x1f7a;" 
d="M1075 519q0 -265 -142 -403.5t-327.5 -138.5t-289 90.5t-103.5 262.5v747h170v-733q0 -227 213 -227q127 0 217 97t90 338.5t-53 524.5h172q53 -293 53 -558zM379 1464l90 148l379 -240l-55 -94z" />
    <glyph glyph-name="uni1F7B" unicode="&#x1f7b;" 
d="M1075 519q0 -265 -142 -403.5t-327.5 -138.5t-289 90.5t-103.5 262.5v747h170v-733q0 -227 213 -227q127 0 217 97t90 338.5t-53 524.5h172q53 -293 53 -558zM758 1608l90 -146l-412 -184l-57 94z" />
    <glyph glyph-name="uni1F7C" unicode="&#x1f7c;" 
d="M862 -23q-219 0 -250 238q-49 -238 -250 -238q-309 0 -309 512q0 332 103 588h151q-84 -264 -84 -510t34 -348t122 -102q154 0 153 356v258l164 23v-283q0 -172 33 -263t120 -91t122 102.5t34.5 337.5t-90.5 520h156q104 -276 105 -588q0 -242 -80 -377t-234 -135z
M379 1464l90 148l379 -240l-55 -94z" />
    <glyph glyph-name="uni1F7D" unicode="&#x1f7d;" 
d="M862 -23q-219 0 -250 238q-49 -238 -250 -238q-309 0 -309 512q0 332 103 588h151q-84 -264 -84 -510t34 -348t122 -102q154 0 153 356v258l164 23v-283q0 -172 33 -263t120 -91t122 102.5t34.5 337.5t-90.5 520h156q104 -276 105 -588q0 -242 -80 -377t-234 -135z
M758 1608l90 -146l-412 -184l-57 94z" />
    <glyph glyph-name="uni1FB0" unicode="&#x1fb0;" 
d="M534 965q-110 0 -170.5 -113t-60.5 -324q0 -414 223 -413q209 0 293 432q-41 238 -108 328t-177 90zM522 1102q143 0 225 -77t115 -263l56 315h155l-104 -575l53 -279q12 -76 92 -104l-61 -144q-68 10 -122 61.5t-67 133.5l-16 115q-106 -307 -336 -308
q-188 0 -289.5 138.5t-101.5 404.5t103 424t298 158zM566 1290q-130 0 -208.5 85t-93.5 192l117 26q49 -172 186 -172t189 172l116 -26q-14 -106 -95 -191.5t-211 -85.5z" />
    <glyph glyph-name="uni1FB1" unicode="&#x1fb1;" 
d="M534 965q-110 0 -170.5 -113t-60.5 -324q0 -414 223 -413q209 0 293 432q-41 238 -108 328t-177 90zM522 1102q143 0 225 -77t115 -263l56 315h155l-104 -575l53 -279q12 -76 92 -104l-61 -144q-68 10 -122 61.5t-67 133.5l-16 115q-106 -307 -336 -308
q-188 0 -289.5 138.5t-101.5 404.5t103 424t298 158zM293 1384v132h551v-132h-551z" />
    <glyph glyph-name="uni1FB6" unicode="&#x1fb6;" 
d="M534 965q-110 0 -170.5 -113t-60.5 -324q0 -414 223 -413q209 0 293 432q-41 238 -108 328t-177 90zM522 1102q143 0 225 -77t115 -263l56 315h155l-104 -575l53 -279q12 -76 92 -104l-61 -144q-68 10 -122 61.5t-67 133.5l-16 115q-106 -307 -336 -308
q-188 0 -289.5 138.5t-101.5 404.5t103 424t298 158zM674 1335q-66 0 -132.5 50.5t-90.5 50.5q-53 0 -105 -90l-110 49q76 172 227 172q68 0 133.5 -49.5t89.5 -49.5q53 0 105 91l110 -50q-80 -174 -227 -174z" />
    <glyph glyph-name="uni1FB8" unicode="&#x1fb8;" 
d="M844 506l-234 756l-235 -756h469zM330 360l-115 -360h-172l459 1409h225l459 -1409h-185l-112 360h-559zM611 1554q-120 0 -204.5 67t-97.5 177l117 25q49 -137 187 -137t188 137l117 -25q-12 -111 -99.5 -177.5t-207.5 -66.5z" />
    <glyph glyph-name="uni1FB9" unicode="&#x1fb9;" 
d="M844 506l-234 756l-235 -756h469zM330 360l-115 -360h-172l459 1409h225l459 -1409h-185l-112 360h-559zM338 1628v131h551v-131h-551z" />
    <glyph glyph-name="uni1FBA" unicode="&#x1fba;" 
d="M844 506l-234 756l-235 -756h469zM330 360l-115 -360h-172l459 1409h225l459 -1409h-185l-112 360h-559zM852 1638l-53 -90l-420 166l94 148z" />
    <glyph glyph-name="uni1FBB" unicode="&#x1fbb;" 
d="M844 506l-234 756l-235 -756h469zM330 360l-115 -360h-172l459 1409h225l459 -1409h-185l-112 360h-559zM860 1708l-436 -160l-45 90l405 215z" />
    <glyph glyph-name="uni1FC0" unicode="&#x1fc0;" 
d="M719 1335q-67 0 -133 50t-90 51q-53 0 -105 -90l-110 49q76 172 227 172q68 0 134 -49t89 -50q53 0 105 91l110 -50q-80 -174 -227 -174z" />
    <glyph glyph-name="uni1FC6" unicode="&#x1fc6;" 
d="M719 1102q305 0 305 -320v-1196l-170 -20v1089q0 178 -35 245t-153 67q-84 0 -163 -54.5t-128 -126.5v-786h-170v725q0 172 -55 354l159 23q35 -63 49 -180q68 86 165.5 133t195.5 47zM717 1335q-66 0 -132.5 50.5t-90.5 50.5q-53 0 -105 -90l-110 49q76 172 227 172
q68 0 133.5 -49.5t89.5 -49.5q53 0 105 91l110 -50q-80 -174 -227 -174z" />
    <glyph glyph-name="uni1FC8" unicode="&#x1fc8;" 
d="M434 788h522v-145h-522v-502h641v-141h-817v1409h799l-21 -143h-602v-478zM895 1638l-53 -90l-420 166l94 148z" />
    <glyph glyph-name="uni1FC9" unicode="&#x1fc9;" 
d="M434 788h522v-145h-522v-502h641v-141h-817v1409h799l-21 -143h-602v-478zM903 1708l-436 -160l-45 90l405 215z" />
    <glyph glyph-name="uni1FCA" unicode="&#x1fca;" 
d="M883 672h-537v-672h-174v1409h174v-596h537v596h174v-1409h-174v672zM852 1638l-53 -90l-420 166l94 148z" />
    <glyph glyph-name="uni1FCB" unicode="&#x1fcb;" 
d="M883 672h-537v-672h-174v1409h174v-596h537v596h174v-1409h-174v672zM860 1708l-436 -160l-45 90l405 215z" />
    <glyph glyph-name="uni1FD0" unicode="&#x1fd0;" 
d="M664 1077v-811q0 -147 178 -147q86 0 182 37l45 -123q-94 -55 -247.5 -55.5t-240.5 81.5t-87 226v649h-365l21 143h514zM579 1290q-130 0 -209 85t-94 192l117 26q49 -172 186.5 -172t188.5 172l117 -26q-14 -106 -95 -191.5t-211 -85.5z" />
    <glyph glyph-name="uni1FD1" unicode="&#x1fd1;" 
d="M664 1077v-811q0 -147 178 -147q86 0 182 37l45 -123q-94 -55 -247.5 -55.5t-240.5 81.5t-87 226v649h-365l21 143h514zM305 1384v132h551v-132h-551z" />
    <glyph glyph-name="uni1FD2" unicode="&#x1fd2;" 
d="M664 1077v-811q0 -147 178 -147q86 0 182 37l45 -123q-94 -55 -247.5 -55.5t-240.5 81.5t-87 226v649h-365l21 143h514zM793 1327q-47 0 -79 31t-32 78t30.5 78.5t79 31.5t80 -31.5t31.5 -78.5t-31.5 -78t-78.5 -31zM369 1327q-47 0 -79 31t-32 78t32 78.5t79 31.5
t78.5 -31.5t31.5 -77.5t-31.5 -78t-78.5 -32zM346 1819l90 147l379 -240l-55 -94z" />
    <glyph glyph-name="uni1FD3" unicode="&#x1fd3;" 
d="M664 1077v-811q0 -147 178 -147q86 0 182 37l45 -123q-94 -55 -247.5 -55.5t-240.5 81.5t-87 226v649h-365l21 143h514zM793 1327q-47 0 -79 31t-32 78t30.5 78.5t79 31.5t80 -31.5t31.5 -78.5t-31.5 -78t-78.5 -31zM369 1327q-47 0 -79 31t-32 78t32 78.5t79 31.5
t78.5 -31.5t31.5 -77.5t-31.5 -78t-78.5 -32zM725 1962l90 -145l-412 -185l-57 94z" />
    <glyph glyph-name="uni1FD6" unicode="&#x1fd6;" 
d="M664 1077v-811q0 -147 178 -147q86 0 182 37l45 -123q-94 -55 -247.5 -55.5t-240.5 81.5t-87 226v649h-365l21 143h514zM686 1335q-66 0 -132.5 50.5t-90.5 50.5q-53 0 -105 -90l-110 49q76 172 227 172q68 0 133.5 -49.5t89.5 -49.5q53 0 105 91l110 -50
q-80 -174 -227 -174z" />
    <glyph glyph-name="uni1FD7" unicode="&#x1fd7;" 
d="M664 1077v-811q0 -147 178 -147q86 0 182 37l45 -123q-94 -55 -247.5 -55.5t-240.5 81.5t-87 226v649h-365l21 143h514zM793 1327q-47 0 -79 31t-32 78t30.5 78.5t79 31.5t80 -31.5t31.5 -78.5t-31.5 -78t-78.5 -31zM369 1327q-47 0 -79 31t-32 78t32 78.5t79 31.5
t78.5 -31.5t31.5 -77.5t-31.5 -78t-78.5 -32zM686 1690q-66 0 -132.5 50t-90.5 50q-53 0 -105 -90l-110 49q76 172 227 172q68 0 133.5 -49t89.5 -49q53 0 105 90l110 -49q-80 -174 -227 -174z" />
    <glyph glyph-name="uni1FD8" unicode="&#x1fd8;" 
d="M1018 1270h-316v-1129h316v-141h-807v141h315v1129h-315v139h807v-139zM611 1554q-120 0 -204.5 67t-97.5 177l117 25q49 -137 187 -137t188 137l117 -25q-12 -111 -99.5 -177.5t-207.5 -66.5z" />
    <glyph glyph-name="uni1FD9" unicode="&#x1fd9;" 
d="M1018 1270h-316v-1129h316v-141h-807v141h315v1129h-315v139h807v-139zM338 1628v131h551v-131h-551z" />
    <glyph glyph-name="uni1FDA" unicode="&#x1fda;" 
d="M1018 1270h-316v-1129h316v-141h-807v141h315v1129h-315v139h807v-139zM852 1638l-53 -90l-420 166l94 148z" />
    <glyph glyph-name="uni1FDB" unicode="&#x1fdb;" 
d="M1018 1270h-316v-1129h316v-141h-807v141h315v1129h-315v139h807v-139zM860 1708l-436 -160l-45 90l405 215z" />
    <glyph glyph-name="uni1FE0" unicode="&#x1fe0;" 
d="M1075 519q0 -265 -142 -403.5t-327.5 -138.5t-289 90.5t-103.5 262.5v747h170v-733q0 -227 213 -227q127 0 217 97t90 338.5t-53 524.5h172q53 -293 53 -558zM611 1290q-130 0 -208.5 85t-93.5 192l117 26q49 -172 186 -172t189 172l117 -26q-14 -106 -95.5 -191.5
t-211.5 -85.5z" />
    <glyph glyph-name="uni1FE1" unicode="&#x1fe1;" 
d="M1075 519q0 -265 -142 -403.5t-327.5 -138.5t-289 90.5t-103.5 262.5v747h170v-733q0 -227 213 -227q127 0 217 97t90 338.5t-53 524.5h172q53 -293 53 -558zM338 1384v132h551v-132h-551z" />
    <glyph glyph-name="uni1FE2" unicode="&#x1fe2;" 
d="M1075 519q0 -265 -142 -403.5t-327.5 -138.5t-289 90.5t-103.5 262.5v747h170v-733q0 -227 213 -227q127 0 217 97t90 338.5t-53 524.5h172q53 -293 53 -558zM825 1327q-47 0 -78.5 31t-31.5 78t30.5 78.5t78.5 31.5t80 -31.5t32 -78.5t-32 -78t-79 -31zM401.5 1327
q-47.5 0 -79 31t-31.5 78t31.5 78.5t79 31.5t79 -31.5t31.5 -77.5t-31.5 -78t-79 -32zM379 1819l90 147l379 -240l-55 -94z" />
    <glyph glyph-name="uni1FE3" unicode="&#x1fe3;" 
d="M1075 519q0 -265 -142 -403.5t-327.5 -138.5t-289 90.5t-103.5 262.5v747h170v-733q0 -227 213 -227q127 0 217 97t90 338.5t-53 524.5h172q53 -293 53 -558zM825 1327q-47 0 -78.5 31t-31.5 78t30.5 78.5t78.5 31.5t80 -31.5t32 -78.5t-32 -78t-79 -31zM401.5 1327
q-47.5 0 -79 31t-31.5 78t31.5 78.5t79 31.5t79 -31.5t31.5 -77.5t-31.5 -78t-79 -32zM758 1962l90 -145l-412 -185l-57 94z" />
    <glyph glyph-name="uni1FE6" unicode="&#x1fe6;" 
d="M1075 519q0 -265 -142 -403.5t-327.5 -138.5t-289 90.5t-103.5 262.5v747h170v-733q0 -227 213 -227q127 0 217 97t90 338.5t-53 524.5h172q53 -293 53 -558zM719 1335q-66 0 -132.5 50.5t-90.5 50.5q-53 0 -105 -90l-110 49q76 172 227 172q68 0 133.5 -49.5t89.5 -49.5
q53 0 105 91l110 -50q-80 -174 -227 -174z" />
    <glyph glyph-name="uni1FE7" unicode="&#x1fe7;" 
d="M1075 519q0 -265 -142 -403.5t-327.5 -138.5t-289 90.5t-103.5 262.5v747h170v-733q0 -227 213 -227q127 0 217 97t90 338.5t-53 524.5h172q53 -293 53 -558zM825 1327q-47 0 -78.5 31t-31.5 78t30.5 78.5t78.5 31.5t80 -31.5t32 -78.5t-32 -78t-79 -31zM401.5 1327
q-47.5 0 -79 31t-31.5 78t31.5 78.5t79 31.5t79 -31.5t31.5 -77.5t-31.5 -78t-79 -32zM719 1690q-66 0 -132.5 50t-90.5 50q-53 0 -105 -90l-110 49q76 172 227 172q68 0 133.5 -49t89.5 -49q53 0 105 90l110 -49q-80 -174 -227 -174z" />
    <glyph glyph-name="uni1FE8" unicode="&#x1fe8;" 
d="M702 0h-176v543l-477 866h195l374 -707l379 707h183l-478 -864v-545zM617 1554q-120 0 -204.5 67t-97.5 177l117 25q49 -137 187 -137t188 137l117 -25q-12 -111 -99.5 -177.5t-207.5 -66.5z" />
    <glyph glyph-name="uni1FE9" unicode="&#x1fe9;" 
d="M702 0h-176v543l-477 866h195l374 -707l379 707h183l-478 -864v-545zM344 1628v131h551v-131h-551z" />
    <glyph glyph-name="uni1FEA" unicode="&#x1fea;" 
d="M702 0h-176v543l-477 866h195l374 -707l379 707h183l-478 -864v-545zM858 1638l-53 -90l-420 166l94 148z" />
    <glyph glyph-name="uni1FEB" unicode="&#x1feb;" 
d="M702 0h-176v543l-477 866h195l374 -707l379 707h183l-478 -864v-545zM866 1708l-436 -160l-45 90l406 215z" />
    <glyph glyph-name="uni1FF6" unicode="&#x1ff6;" 
d="M862 -23q-219 0 -250 238q-49 -238 -250 -238q-309 0 -309 512q0 332 103 588h151q-84 -264 -84 -510t34 -348t122 -102q154 0 153 356v258l164 23v-283q0 -172 33 -263t120 -91t122 102.5t34.5 337.5t-90.5 520h156q104 -276 105 -588q0 -242 -80 -377t-234 -135z
M719 1335q-66 0 -132.5 50.5t-90.5 50.5q-53 0 -105 -90l-110 49q76 172 227 172q68 0 133.5 -49.5t89.5 -49.5q53 0 105 91l110 -50q-80 -174 -227 -174z" />
    <glyph glyph-name="uni1FF8" unicode="&#x1ff8;" 
d="M950 704.5q0 288.5 -79.5 434t-256 145.5t-256 -146.5t-79.5 -437.5q0 -575 335 -575q174 0 255 145.5t81 434zM1133 707q0 -332 -134.5 -531t-385.5 -199t-384 195t-133 527.5t134.5 533.5t384 201t384 -197.5t134.5 -529.5zM852 1638l-53 -90l-420 166l94 148z" />
    <glyph glyph-name="uni1FF9" unicode="&#x1ff9;" 
d="M950 704.5q0 288.5 -79.5 434t-256 145.5t-256 -146.5t-79.5 -437.5q0 -575 335 -575q174 0 255 145.5t81 434zM1133 707q0 -332 -134.5 -531t-385.5 -199t-384 195t-133 527.5t134.5 533.5t384 201t384 -197.5t134.5 -529.5zM860 1708l-436 -160l-45 90l405 215z" />
    <glyph glyph-name="uni1FFA" unicode="&#x1ffa;" 
d="M614 1286q-168 0 -251.5 -135t-83.5 -436q0 -453 266 -584v-131h-426v141h229v9q-252 131 -252 565q0 342 139.5 530.5t379 188.5t379 -188.5t139.5 -530.5q0 -426 -256 -565v-9h233v-141h-424v131q264 131 264 584q0 299 -84 435t-252 136zM934 1827l-53 -90l-420 166
l94 147z" />
    <glyph glyph-name="uni1FFB" unicode="&#x1ffb;" 
d="M614 1286q-168 0 -251.5 -135t-83.5 -436q0 -453 266 -584v-131h-426v141h229v9q-252 131 -252 565q0 342 139.5 530.5t379 188.5t379 -188.5t139.5 -530.5q0 -426 -256 -565v-9h233v-141h-424v131q264 131 264 584q0 299 -84 435t-252 136zM942 1896l-436 -159l-45 90
l405 215z" />
    <glyph glyph-name="uni2007" unicode="&#x2007;" 
 />
    <glyph glyph-name="uni2008" unicode="&#x2008;" 
 />
    <glyph glyph-name="zerowidthspace" unicode="&#x200b;" 
 />
    <glyph glyph-name="figuredash" unicode="&#x2012;" 
d="M72 713h1085v-148h-1085v148z" />
    <glyph glyph-name="endash" unicode="&#x2013;" 
d="M68 715h1093v-148h-1093v148z" />
    <glyph glyph-name="emdash" unicode="&#x2014;" 
d="M0 715h1229v-148h-1229v148z" />
    <glyph glyph-name="uni2015" unicode="&#x2015;" 
d="M68 797h1093v-148h-1093v148z" />
    <glyph glyph-name="underscoredbl" unicode="&#x2017;" 
d="M1243 -440h-1257v161h1257v-161zM1243 -162h-1257v162h1257v-162z" />
    <glyph glyph-name="quoteleft" unicode="&#x2018;" 
d="M754 1134q0 -68 -45 -112q-45 -43 -109 -43t-110 43q-44 43 -44 104t35 136l168 354h133l-82 -377q54 -37 54 -105z" />
    <glyph glyph-name="quoteright" unicode="&#x2019;" 
d="M473 1460q0 68 46 112q45 44 109 44t109 -43t45 -103t-37 -137l-167 -354h-134l82 377q-53 36 -53 104z" />
    <glyph glyph-name="quotesinglbase" unicode="&#x201a;" 
d="M473 108q0 68 46 112t110 44q65 0 109 -43t44 -102t-37 -137l-167 -355h-134l82 377q-53 36 -53 104z" />
    <glyph glyph-name="quotedblleft" unicode="&#x201c;" 
d="M975 1134q0 -68 -46 -111q-45 -44 -109 -44t-108 43t-44 104t34 136l168 354h134l-82 -377q53 -37 53 -105zM532 1134q0 -68 -45 -112q-45 -43 -109 -43t-109 43q-44 43 -44 104t35 136l166 354h135l-82 -377q53 -37 53 -105z" />
    <glyph glyph-name="quotedblright" unicode="&#x201d;" 
d="M694 1458q0 66 46 112q46 44 110 44t108 -43q84 -81 9 -240l-168 -354h-133l82 375q-54 40 -54 106zM252 1458q0 66 46 112q46 44 110 44t108 -43t45 -99q0 -56 -39 -141l-166 -354h-133l80 375q-51 40 -51 106z" />
    <glyph glyph-name="quotedblbase" unicode="&#x201e;" 
d="M694 108q0 68 46 112t110 44t108 -43t43 -104q0 -61 -34 -135l-168 -355h-133l82 377q-54 36 -54 104zM254 108q0 68 46 112t110 44t108 -43q45 -43 45 -102t-37 -137l-168 -355h-133l82 377q-53 36 -53 104z" />
    <glyph glyph-name="dagger" unicode="&#x2020;" 
d="M696 1065h346v-143h-346v-922h-164v922h-346v143h346v321h164v-321z" />
    <glyph glyph-name="daggerdbl" unicode="&#x2021;" 
d="M696 1049h346v-144h-346v-432h346v-143h-346v-330h-164v330h-346v143h346v432h-346v144h346v337h164v-337z" />
    <glyph glyph-name="bullet" unicode="&#x2022;" 
d="M616 453q-108 1 -179 71t-70 176q0 106 69 177q70 69 177 69t179 -69q70 -69 70 -177t-69 -178q-69 -69 -177 -69z" />
    <glyph glyph-name="ellipsis" unicode="&#x2026;" 
d="M1163 116q0 -58 -40 -98t-98 -41q-58 1 -98 41t-40 98t40 98t98 40t98 -40t40 -98zM614 254q58 0 98 -40t40 -98t-40 -98t-98 -41q-58 1 -98 41q-41 40 -41 98t41 98t98 40zM66 116q0 58 39 98q41 40 99 40t98 -40t40 -98t-40 -98t-98 -41q-58 0 -99 40q-39 41 -39 99z
" />
    <glyph glyph-name="perthousand" unicode="&#x2030;" 
d="M925 424q-130 0 -130 -176t130 -176t130 176t-130 176zM358 424q-129 0 -129 -176t129 -176t129 176t-129 176zM657 251q0 125 76 201t192 76q117 0 191 -76t74 -201q0 -126 -75 -201t-191 -75t-192 75q-75 75 -75 201zM358 -25q-118 0 -192 74t-74 201q0 126 74 202
t191 76q116 0 192 -76t76 -201q0 -126 -75 -201t-192 -75zM1178 967l-1088 -428l-51 114l1089 430zM360 1329q-129 0 -129 -176t129 -176t129 176t-129 176zM92 1155q0 127 76 203t191 76q116 0 191 -76t75 -202t-75 -202t-192 -76q-118 0 -192 76q-74 74 -74 201z" />
    <glyph glyph-name="guilsinglleft" unicode="&#x2039;" 
d="M741 115l-354 424v123l354 428l101 -64l-275 -424l275 -424z" />
    <glyph glyph-name="guilsinglright" unicode="&#x203a;" 
d="M387 1026l100 64l355 -428v-123l-355 -424l-100 63l275 424z" />
    <glyph glyph-name="fraction" unicode="&#x2044;" horiz-adv-x="0" 
d="M-578 485l1096 525l60 -109l-1094 -524z" />
    <glyph glyph-name="zerosuperior" unicode="&#x2070;" 
d="M614 752q160 0 160 220t-162 220t-161 -217q0 -107 43 -165t120 -58zM928 975q0 -147 -82 -245t-232 -97q-150 0 -234 98q-84 99 -83 245q0 146 83 242q84 96 234 97q150 -1 232 -97t82 -243z" />
    <glyph glyph-name="foursuperior" unicode="&#x2074;" 
d="M813 645h-147v115h-367v98l279 465l124 -51l-235 -391h199l12 176h135v-176h115v-121h-115v-115z" />
    <glyph glyph-name="fivesuperior" unicode="&#x2075;" 
d="M909 862q0 -108 -82 -169q-82 -60 -213 -60q-182 0 -295 112l91 80q88 -76 200 -75q147 0 148 118q0 109 -129 109q-72 0 -135 -35h-113v361h498l-15 -121h-338v-129q68 31 160 31t158 -58q65 -56 65 -164z" />
    <glyph glyph-name="sixsuperior" unicode="&#x2076;" 
d="M651 979q-102 0 -198 -84q49 -141 176 -141q71 0 109 32t38 82q0 111 -125 111zM643 1194q-186 0 -194 -203q101 88 217 88t188 -53t72 -158q0 -104 -86 -170t-226 -66t-226 97q-85 97 -85 245t88 244q89 96 237 96t246 -59l-71 -96q-68 35 -160 35z" />
    <glyph glyph-name="sevensuperior" unicode="&#x2077;" 
d="M328 1182v121h573v-101l-336 -573l-143 61l319 492h-413z" />
    <glyph glyph-name="eightsuperior" unicode="&#x2078;" 
d="M612 754q80 0 127 24t47 64q0 39 -53 59t-168 41q-123 -35 -123 -104q0 -84 170 -84zM614 1204q-141 0 -141 -67q0 -31 38 -51t134 -35q61 18 87 36q26 19 26 49t-37 49t-107 19zM903 1145q0 -125 -143 -139q178 -53 178 -168q0 -92 -88 -148t-239 -57q-151 0 -235 55
t-85 146q0 117 164 155q-127 35 -127 152q0 76 81 125t209 49t206 -49q79 -49 79 -121z" />
    <glyph glyph-name="ninesuperior" unicode="&#x2079;" 
d="M598 989q90 0 184 47q-4 158 -172 158q-74 0 -116 -28t-41 -79q0 -98 145 -98zM301 1087q0 103 90 165q89 62 231 62t226 -74q84 -75 84 -206q0 -186 -125 -278t-393 -121l-37 115q184 24 276 66t129 130q-126 -68 -230 -68t-178 54q-74 53 -73 155z" />
    <glyph glyph-name="plussuperior" unicode="&#x207a;" 
d="M682 1049h174v-127h-174v-183h-133v183h-176v127h176v184h133v-184z" />
    <glyph glyph-name="uni207B" unicode="&#x207b;" 
d="M852 918h-475v126h475v-126z" />
    <glyph glyph-name="equalsuperior" unicode="&#x207c;" 
d="M852 799h-477v127h477v-127zM852 1044h-477v127h477v-127z" />
    <glyph glyph-name="parenleftsuperior" unicode="&#x207d;" 
d="M606 972q0 -153 36 -249t128 -238l-92 -57q-115 145 -166 258t-51 285q0 173 51 287t166 260l92 -58q-92 -141 -128 -238t-36 -250z" />
    <glyph glyph-name="parenrightsuperior" unicode="&#x207e;" 
d="M623 972q0 153 -36 250t-128 238l92 58q115 -144 166 -260t51 -288t-51 -284q-51 -113 -166 -258l-92 57q92 141 128 237t36 250z" />
    <glyph glyph-name="nsuperior" unicode="&#x207f;" 
d="M680 1481q207 0 207 -211v-496h-146v418q0 98 -18 135t-78 37q-84 0 -156 -96v-494h-145v692h129l6 -61q92 76 201 76z" />
    <glyph glyph-name="zeroinferior" unicode="&#x2080;" 
d="M774 -69q0 220 -160 221q-164 0 -163 -218q0 -106 43 -164t120 -59q160 0 160 220zM928 -66q0 -147 -82 -244q-82 -98 -232 -98t-234 98t-83 245q0 147 83 243q84 96 234 96t232 -96t82 -244z" />
    <glyph glyph-name="oneinferior" unicode="&#x2081;" 
d="M889 262v-657h-141v489l-197 -106l-72 100l295 174h115z" />
    <glyph glyph-name="twoinferior" unicode="&#x2082;" 
d="M618 274q129 0 201 -60t72 -156q0 -98 -73 -164t-273 -166h366l-18 -123h-567v106q268 164 339 220q71 55 71 111q-1 109 -119 110q-118 0 -197 -101l-105 78q123 145 303 145z" />
    <glyph glyph-name="threeinferior" unicode="&#x2083;" 
d="M631 274q123 0 195 -49t71 -133q0 -57 -33 -90t-112 -47q92 -14 133 -49t41 -118t-84 -139t-232 -57q-190 0 -309 119l94 78q94 -82 221 -82q156 0 156 96t-147 97h-95l17 88h69q131 0 132 84q0 90 -119 90t-223 -78l-78 84q129 106 303 106z" />
    <glyph glyph-name="fourinferior" unicode="&#x2084;" 
d="M813 -395h-147v114h-367v99l279 465l124 -52l-235 -391h199l12 176h135v-176h115v-121h-115v-114z" />
    <glyph glyph-name="fiveinferior" unicode="&#x2085;" 
d="M686 43q92 -1 158 -57q65 -56 65 -164t-82 -169q-82 -60 -213 -61q-182 0 -295 113l91 80q88 -76 200 -76q147 0 148 119q0 109 -129 109q-72 0 -135 -35h-113v360h498l-15 -121h-338v-129q68 31 160 31z" />
    <glyph glyph-name="sixinferior" unicode="&#x2086;" 
d="M651 -61q-102 0 -198 -84q49 -141 176 -142q71 0 109 32t38 83q0 111 -125 111zM643 154q-186 0 -194 -203q101 88 217 88t188 -53t72 -158q0 -104 -86 -170t-226 -66t-226 96q-85 96 -85 246q0 148 88 244q89 96 237 96t246 -59l-71 -96q-68 35 -160 35z" />
    <glyph glyph-name="seveninferior" unicode="&#x2087;" 
d="M328 141v121h573v-100l-336 -574l-143 62l319 491h-413z" />
    <glyph glyph-name="eightinferior" unicode="&#x2088;" 
d="M612 -287q80 1 127 25t47 63t-53 59t-168 42q-123 -35 -123 -105q0 -84 170 -84zM473 96q0 -31 38 -50t134 -36q61 18 87 36t26 49q0 30 -37 49q-37 20 -107 20t-106 -18t-35 -50zM903 104q0 -125 -143 -139q178 -53 178 -168q0 -92 -88 -148q-88 -57 -239 -57t-235 56
t-85 145q0 117 164 156q-127 35 -127 151q0 76 81 125t209 49t206 -49q79 -49 79 -121z" />
    <glyph glyph-name="nineinferior" unicode="&#x2089;" 
d="M598 -51q90 0 184 47q-4 158 -172 158q-74 0 -116 -28t-41 -79q0 -98 145 -98zM552 -162q-104 0 -178 53t-73 155q0 102 90 166q89 62 231 62t226 -74t84 -206q0 -186 -125 -278t-393 -122l-37 115q184 25 276 67t129 130q-126 -68 -230 -68z" />
    <glyph glyph-name="uni208A" unicode="&#x208a;" 
d="M682 8h174v-127h-174v-182h-133v182h-176v127h176v185h133v-185z" />
    <glyph glyph-name="uni208B" unicode="&#x208b;" 
d="M852 -123h-475v127h475v-127z" />
    <glyph glyph-name="uni208C" unicode="&#x208c;" 
d="M852 -242h-477v127h477v-127zM852 4h-477v127h477v-127z" />
    <glyph glyph-name="uni208D" unicode="&#x208d;" 
d="M594 -68q0 -154 35 -250t127 -237l-92 -57q-115 145 -166 258q-52 112 -52 284t52 287q51 115 166 260l92 -57q-92 -142 -127 -238t-35 -250z" />
    <glyph glyph-name="uni208E" unicode="&#x208e;" 
d="M633 -68q0 154 -35 250t-127 238l92 57q113 -143 164 -258t51 -288t-51 -287t-164 -256l-92 57q92 141 127 237t35 250z" />
    <glyph glyph-name="Euro" unicode="&#x20ac;" 
d="M776 1434q188 0 330 -95l-86 -122q-106 70 -234 69q-287 0 -340 -360h504l-28 -119h-488v-189h447l-29 -120h-412q25 -195 106 -285q82 -90 240 -90t279 104v-176q-121 -74 -295 -74q-213 -1 -342 133t-164 388h-192l30 120h148l2 189h-180l28 119h168q43 242 181 375
q139 133 327 133z" />
    <glyph glyph-name="uni2113" unicode="&#x2113;" 
d="M711 1409q-82 0 -117 -80t-35 -248v-303q131 58 197 206t65 282q1 74 -25 108t-85 35zM713 1534q129 0 201 -73t71 -207q0 -134 -94 -315q-47 -91 -134 -170t-198 -122v-155q0 -244 53 -315q27 -36 56 -47t94 -11t153 51l46 -123q-115 -70 -209 -70t-151 25
q-58 25 -107 81q-103 118 -103 425v84q-129 -31 -219 -45l-20 119q147 27 239 53v358q0 457 322 457z" />
    <glyph glyph-name="uni2116" unicode="&#x2116;" 
d="M1180 0h-502v141h502v-141zM928 1319q-59 0 -83 -81t-24 -256t24 -256t84 -81t83 80q22 80 22 256t-23 257q-24 81 -83 81zM618 0h-221l-225 1206h-8q23 -248 22 -491v-715h-129v1409h226l221 -1212h8q-23 225 -23 499v713h129v-1409zM926 1436q268 0 268 -454t-268 -454
t-268 454t268 454z" />
    <glyph glyph-name="trademark" unicode="&#x2122;" 
d="M356 1296v-686h-127v686h-202v113h739l106 -575l89 575h194l31 -799h-123l-21 477q-4 154 -2 201h-6l-96 -602h-133l-117 602h-6q4 -98 0 -198l-18 -480h-117l28 686h-219z" />
    <glyph glyph-name="estimated" unicode="&#x212e;" 
d="M617 1356q-197 0 -308 -86v-506h613v504q-108 88 -305 88zM618 1436q260 0 400 -132t176 -346v-274h-885v-534q117 -96 316 -97q285 0 395 199h100q-139 -276 -497 -277q-252 0 -397 126q-144 126 -183 337v520q35 214 175 346t400 132z" />
    <glyph glyph-name="uni2153" unicode="&#x2153;" 
d="M956 670q123 0 195 -49t72 -134q0 -57 -33 -90t-113 -47q92 -14 133 -49t41 -117t-84 -140q-84 -56 -231 -56q-190 0 -307 118l92 78q96 -82 221 -82q156 0 156 96t-146 97h-96l16 88h70q131 0 131 84q0 90 -119 90t-221 -78l-80 84q129 107 303 107zM4 485l1096 525
l61 -109l-1093 -524zM387 1411v-657h-141v489l-197 -106l-72 100l295 174h115z" />
    <glyph glyph-name="uni2154" unicode="&#x2154;" 
d="M1018 670q122 0 194 -49t72 -134q0 -57 -33 -90t-112 -47q92 -14 133 -49t41 -117t-84 -140q-84 -56 -232 -56q-190 0 -309 118l94 78q94 -82 222 -82q156 0 155 97q0 96 -147 96h-94l16 88h70q131 0 131 84q0 90 -119 90t-223 -78l-78 84q129 107 303 107zM68 485
l1095 525l60 -109l-1094 -524zM219 1423q129 1 201 -59t72 -157t-73 -164t-274 -166h367l-18 -123h-568v106q268 164 339 220t71 112q0 111 -118 109q-118 -1 -198 -101l-104 78q123 145 303 145z" />
    <glyph glyph-name="uni2155" unicode="&#x2155;" 
d="M1268 216q0 -108 -82 -168t-215 -60q-182 0 -295 112l92 80q86 -76 201 -76q145 0 145 119q0 109 -129 109q-70 0 -135 -35h-111v360h496l-12 -120h-338v-129q68 30 160 30q91 0 157 -56q66 -58 66 -166zM-33 485l1096 525l61 -109l-1093 -524zM375 1411v-657h-142v489
l-196 -106l-72 100l295 174h115z" />
    <glyph glyph-name="uni2156" unicode="&#x2156;" 
d="M1325 216q0 -108 -82 -168t-215 -60q-182 0 -295 112l92 80q86 -76 199 -76q147 0 147 119q0 109 -129 109q-70 0 -135 -35h-112v360h497l-14 -120h-338v-129q68 30 161 30t159 -56q65 -58 65 -166zM31 485l1095 525l62 -109l-1094 -524zM479 1207q-1 -97 -73 -164
t-273 -166h367l-19 -123h-567v106q268 164 339 220t71 112q0 111 -118 109q-118 -1 -198 -101l-104 78q123 145 303 145q129 0 201 -59q71 -60 71 -157z" />
    <glyph glyph-name="uni2157" unicode="&#x2157;" 
d="M1282 216q0 -108 -82 -168t-213 -60q-182 0 -295 112l90 80q88 -76 201 -76q147 0 147 119q0 109 -129 109q-72 0 -135 -35h-112v360h497l-14 -120h-338v-129q68 30 160 30t158 -56q65 -58 65 -166zM-10 485l1095 525l60 -109l-1094 -524zM272 1423q123 0 195 -49
t72 -133q0 -57 -33 -90t-113 -47q92 -14 133 -49t41 -118t-84 -139t-231 -57q-190 0 -309 119l94 78q94 -82 221 -82q156 0 156 96t-148 97h-94l16 88h70q131 0 131 84q0 90 -119 90t-223 -78l-78 84q129 106 303 106z" />
    <glyph glyph-name="uni2158" unicode="&#x2158;" 
d="M1303 216q0 -108 -83 -168t-214 -60q-182 0 -295 112l92 80q86 -76 198 -76q147 0 148 119q0 109 -129 109q-70 0 -135 -35h-113v360h498l-15 -120h-337v-129q68 30 160 30t158 -56q66 -58 67 -166zM18 485l1096 525l60 -109l-1094 -524zM440 754h-147v114h-367v99
l279 465l125 -52l-236 -391h199l12 176h135v-176h115v-121h-115v-114z" />
    <glyph glyph-name="uni2159" unicode="&#x2159;" 
d="M932 334q-100 0 -197 -84q23 -66 61 -104t110 -38t112 32q39 32 39 83q0 111 -125 111zM924 549q-186 0 -193 -203q98 88 215 88t189 -53q71 -53 71 -158t-86 -171t-209 -64q-159 0 -243 96t-84 244t89 245q89 96 237 96t245 -59l-72 -96q-68 35 -159 35zM20 485
l1096 525l62 -109l-1094 -524zM432 1411v-657h-141v489l-197 -106l-71 100l294 174h115z" />
    <glyph glyph-name="uni215A" unicode="&#x215a;" 
d="M942 334q-102 0 -199 -84q49 -141 177 -141q70 -1 108 31t39 83q0 111 -125 111zM934 549q-186 0 -195 -203q102 88 218 88t188 -53t72 -158q-1 -105 -87 -171t-226 -64q-140 0 -225 96t-85 244t88 245q88 96 236 96t245 -59l-69 -96q-68 35 -160 35zM25 485l1095 525
l62 -109l-1094 -524zM382 1192q92 0 157 -56t65 -166q0 -108 -82 -168t-213 -61q-182 0 -295 113l90 80q88 -76 201 -76q147 0 148 119q0 109 -129 108q-72 0 -136 -34h-112v360h497l-14 -121h-338v-129q69 31 161 31z" />
    <glyph glyph-name="oneeighth" unicode="&#x215b;" 
d="M928 109q80 1 127 25t47 63t-53 59t-168 41q-123 -35 -123 -104q0 -84 170 -84zM930 559q-142 0 -142 -67q0 -30 38 -50t135 -36q61 18 87 36t26 48t-38 50q-37 19 -106 19zM1219 500q0 -125 -144 -140q178 -53 178 -167q0 -93 -88 -149q-89 -56 -239 -56t-235 55
t-85 145q0 117 164 156q-127 35 -127 152q0 76 81 125t209 49t207 -49t79 -121zM-4 485l1096 525l59 -109l-1094 -524zM387 1411v-657h-141v489l-197 -106l-72 100l295 174h115z" />
    <glyph glyph-name="threeeighths" unicode="&#x215c;" 
d="M934 109q80 1 127 25t47 63t-53 59t-168 41q-123 -35 -123 -104q0 -84 170 -84zM936 559q-141 0 -141 -67q0 -30 38 -50t134 -36q61 18 87 36t26 48t-38 50q-37 19 -106 19zM1225 500q0 -125 -146 -140q92 -26 136 -66t45 -101q0 -93 -88 -149t-240 -56q-150 0 -235 55
t-85 145q0 117 164 156q-127 35 -127 152q0 76 81 125t209 49t207 -49t79 -121zM6 485l1096 525l61 -109l-1093 -524zM301 1423q123 0 195 -49t71 -133q-1 -57 -33 -90t-112 -47q92 -14 133 -49t41 -118t-84 -139t-231 -57q-190 0 -310 119l95 78q94 -82 221 -82
q156 0 155 96q0 96 -147 97h-94l16 88h70q131 0 131 84q0 90 -119 90t-223 -78l-78 84q129 106 303 106z" />
    <glyph glyph-name="fiveeighths" unicode="&#x215d;" 
d="M913 109q80 1 127 25t47 63t-53 59t-168 41q-123 -35 -123 -104q0 -84 170 -84zM915 559q-141 0 -141 -67q0 -30 38 -50t134 -36q61 18 87 36t26 48t-37 50q-37 19 -107 19zM1204 500q0 -125 -145 -140q92 -26 136 -66t44 -101q0 -93 -88 -149t-239 -56q-152 0 -236 55
t-84 145q0 117 164 156q-127 35 -127 152q0 76 81 125q80 49 208 49t207 -49t79 -121zM-12 485l1095 525l62 -109l-1094 -524zM365 1192q91 0 157 -56t66 -166q0 -108 -82 -168t-213 -61q-182 0 -295 113l90 80q88 -76 201 -76q147 0 147 119q0 109 -129 108q-72 0 -135 -34
h-113v360h498l-14 -121h-338v-129q68 31 160 31z" />
    <glyph glyph-name="seveneighths" unicode="&#x215e;" 
d="M913 109q80 1 127 25t47 63t-53 59t-168 41q-123 -35 -123 -104q0 -84 170 -84zM915 559q-141 0 -141 -67q0 -30 38 -50t134 -36q61 18 87 36t26 48t-37 50q-37 19 -107 19zM1204 500q0 -125 -143 -140q178 -53 178 -167q0 -93 -88 -149t-239 -56q-152 0 -236 55t-84 145
q0 117 164 156q-127 35 -127 152q0 76 81 125q80 49 208 49t207 -49t79 -121zM-10 485l1095 525l60 -109l-1094 -524zM102 1288v121h574v-100l-336 -574l-143 62l319 491h-414z" />
    <glyph glyph-name="onefraction" unicode="&#x215f;" 
d="M39 485l1096 525l59 -109l-1094 -524zM444 1411v-657h-141v489l-197 -106l-71 100l295 174h114z" />
    <glyph glyph-name="arrowleft" unicode="&#x2190;" 
d="M1182 750v-152h-877q61 -39 129 -117l295 -323l-127 -107l-555 623l555 622l127 -106l-295 -324q-44 -49 -66 -69t-63 -47h877z" />
    <glyph glyph-name="arrowup" unicode="&#x2191;" 
d="M698 0h-168v1128q-41 -74 -120 -143l-332 -305l-103 115l639 571l639 -571l-102 -115l-332 305q-84 74 -121 143v-1128z" />
    <glyph glyph-name="arrowright" unicode="&#x2192;" 
d="M47 598v152h877q-41 27 -64 47t-65 69l-295 324l127 106l555 -622l-555 -623l-127 107l295 323q68 78 129 117h-877z" />
    <glyph glyph-name="arrowdown" unicode="&#x2193;" 
d="M698 1292v-1128q37 70 121 143l332 305l102 -114l-639 -572l-639 572l103 114l332 -305q80 -70 120 -143v1128h168z" />
    <glyph glyph-name="arrowboth" unicode="&#x2194;" 
d="M881 106l-127 109l237 266q66 76 131 117h-1016q57 -37 132 -117l243 -266l-127 -109l-506 568l508 565l127 -106l-245 -267q-48 -53 -68 -71t-61 -45h1011q-41 27 -61 45t-68 71l-241 267l127 106l503 -565z" />
    <glyph glyph-name="arrowupdn" unicode="&#x2195;" 
d="M1253 1200l-102 -115l-332 306q-84 74 -121 141v-1671q37 68 121 141l332 305l102 -114l-639 -572l-639 572l103 114l332 -303q84 -76 120 -145v1675q-37 -70 -120 -145l-332 -304l-103 115l639 572z" />
    <glyph glyph-name="arrowupleft" unicode="&#x2196;" 
d="M1034 162l-780 788q23 -113 16 -207l-26 -421l-164 10l45 852l836 45l8 -158l-389 -20q-109 -6 -213 14l782 -791z" />
    <glyph glyph-name="arrowupright" unicode="&#x2197;" 
d="M80 274l782 791q-104 -20 -213 -14l-389 20l8 158l836 -45l45 -852l-164 -10l-27 421q-6 94 17 207l-780 -788z" />
    <glyph glyph-name="arrowdownright" unicode="&#x2198;" 
d="M195 1157l780 -790q-23 115 -17 208l27 420l164 -8l-45 -854l-836 -45l-8 158l389 20q117 6 213 -12l-782 788z" />
    <glyph glyph-name="arrowdownleft" unicode="&#x2199;" 
d="M1149 1042l-782 -788q96 18 213 12l389 -20l-8 -158l-836 45l-45 854l164 8l26 -420q6 -94 -16 -208l780 790z" />
    <glyph glyph-name="arrowleftwhite" unicode="&#x21e6;" 
d="M436 477h785v328h-785v227l-387 -391l387 -391v227zM528 895h680q45 0 74 -28t29 -74v-304q0 -47 -29 -75t-74 -27h-680v-360l-610 614l610 614v-360z" />
    <glyph glyph-name="arrowupwhite" unicode="&#x21e7;" 
d="M442 1186v-1120h344v1120h220l-392 387l-391 -387h219zM883 1094v-1016q0 -45 -28 -74t-75 -29h-331q-47 0 -75 29t-28 74v1016h-346l614 610l615 -610h-346z" />
    <glyph glyph-name="arrowrightwhite" unicode="&#x21e8;" 
d="M793 805h-785v-328h785v-227l387 391l-387 391v-227zM700 387h-680q-46 0 -74 28t-28 74v304q0 47 29 75t73 27h680v360l611 -614l-611 -614v360z" />
    <glyph glyph-name="arrowdownwhite" unicode="&#x21e9;" 
d="M442 1446v-1120h-219l391 -387l392 387h-220v1120h-344zM449 1536h331q47 0 75 -29t28 -73v-1016h346l-615 -611l-614 611h346v1016q0 46 28 74t75 28z" />
    <glyph glyph-name="capslock" unicode="&#x21ea;" 
d="M442 231v-165h344v165h-344zM883 317v-239q0 -45 -28 -74t-75 -29h-331q-47 0 -75 29t-28 74v239h537zM442 1186v-578h344v578h220l-392 387l-391 -387h219zM883 1094v-572h-537v572h-346l614 610l615 -610h-346z" />
    <glyph glyph-name="partialdiff" unicode="&#x2202;" 
d="M592 743q-102 -1 -169 -81t-67 -226t69 -233q69 -88 189 -88t191 101q70 101 72 302v49q-129 176 -285 176zM1047 528q0 -244 -118 -398q-117 -154 -307 -153q-190 0 -314 122t-124 325t112 329t286 126t286 -162q-10 213 -158 360q-149 147 -413 219l41 129
q381 -104 545 -305t164 -592z" />
    <glyph glyph-name="product" unicode="&#x220f;" 
d="M1174 1266h-179v-1680l-170 -20v1700h-419v-1680l-168 -20v1700h-183v143h1119v-143z" />
    <glyph glyph-name="summation" unicode="&#x2211;" 
d="M1018 1262h-610l405 -492v-125l-405 -498h610v-147h-811v150l463 555l-463 555v149h811v-147z" />
    <glyph glyph-name="minus" unicode="&#x2212;" 
d="M991 563h-753v154h753v-154z" />
    <glyph glyph-name="divisionslash" unicode="&#x2215;" horiz-adv-x="0" 
d="M-578 485l1096 525l60 -109l-1094 -524z" />
    <glyph glyph-name="bulletoperator" unicode="&#x2219;" 
d="M434 699q0 77 51 128t128 51t128 -50q51 -52 51 -129t-50 -128q-52 -51 -129 -51t-128 51t-51 128z" />
    <glyph glyph-name="radical" unicode="&#x221a;" 
d="M1421 1628h-374l-453 -1628h-191l-342 934l148 51l285 -803l434 1592h493v-146z" />
    <glyph glyph-name="infinity" unicode="&#x221e;" 
d="M924 907q-97 0 -163 -123q-30 -54 -71 -157q4 -12 22 -47l30 -61q12 -26 22 -37t26 -33t51 -45t83 -23q145 0 145 263t-145 263zM303 911q-147 0 -147 -264t147 -264q85 0 141 92q44 70 93 191q-8 22 -37 78q-29 55 -38 66t-25 33t-52 45q-34 23 -82 23zM928 1049
q162 0 236 -111t75 -293q0 -182 -75 -292t-230 -109q-108 0 -184 66t-134 202q-59 -127 -133 -198t-184 -70q-162 0 -237 110t-74 293q0 182 74 292q75 110 231 110q106 0 181 -66t136 -203q61 129 134 199t184 70z" />
    <glyph glyph-name="intersection" unicode="&#x2229;" 
d="M614 1176q193 0 328 -136t135 -327v-625h-147v625q0 129 -93 222t-223 93t-222 -93q-93 -93 -93 -222v-625h-147v625q0 193 134 328t328 135z" />
    <glyph glyph-name="integral" unicode="&#x222b;" 
d="M516 1444q0 150 80 224t215 75q135 0 258 -55l-55 -127q-86 41 -178 41t-124 -39t-32 -119v-1596q0 -141 -74 -212q-74 -70 -198 -70t-248 53l55 127q86 -39 170 -39q131 0 131 143v1594z" />
    <glyph glyph-name="approxequal" unicode="&#x2248;" 
d="M463 524q90 0 186 -58t129 -58q78 0 137 104l119 -61q-94 -178 -268 -179q-90 0 -186 58t-129 57q-78 0 -138 -104l-118 61q92 180 268 180zM463 1016q90 0 186 -58t129 -59q78 0 137 105l119 -62q-92 -178 -268 -178q-90 0 -186 57t-129 58q-78 0 -138 -105l-118 62
q94 180 268 180z" />
    <glyph glyph-name="notequal" unicode="&#x2260;" 
d="M1012 516v-147h-496l-182 -310l-96 54l151 256h-172v147h260l144 242h-404v147h492l184 312l94 -52l-153 -260h178v-147h-267l-141 -242h408z" />
    <glyph glyph-name="equivalence" unicode="&#x2261;" 
d="M1012 176h-795v148h795v-148zM1012 565h-795v148h795v-148zM1012 954h-795v146h795v-146z" />
    <glyph glyph-name="lessequal" unicode="&#x2264;" 
d="M971 0h-754v150h754v-150zM1008 979l-658 -285l658 -260l-70 -143l-719 315v182l719 330z" />
    <glyph glyph-name="greaterequal" unicode="&#x2265;" 
d="M1010 0h-754v150h754v-150zM1008 788v-182l-719 -315l-70 137l658 266l-658 281l70 143z" />
    <glyph glyph-name="house" unicode="&#x2302;" 
d="M225 133h779v434l-392 351l-387 -351v-434zM1147 0h-1065v631l530 473l535 -473v-631z" />
    <glyph glyph-name="revlogicalnot" unicode="&#x2310;" 
d="M991 565h-598v-289h-155v435h753v-146z" />
    <glyph glyph-name="integraltp" unicode="&#x2320;" 
d="M516 1444q0 150 80 224t215 75q135 0 258 -55l-55 -127q-86 41 -178 41t-124 -39t-32 -119v-2468h-164v2468z" />
    <glyph glyph-name="integralbt" unicode="&#x2321;" 
d="M680 2048v-2200q0 -141 -74 -212q-74 -70 -198 -70t-248 53l55 127q86 -39 170 -39q131 0 131 143v2198h164z" />
    <glyph glyph-name="deleterightKey" unicode="&#x2326;" 
d="M451 864l-275 277l-137 -142l274 -272l-274 -274l137 -138l275 275l274 -275l137 138l-274 274l274 272l-137 142zM-61 57q-45 0 -74 29t-29 74v1116q0 47 29 75t74 27h880l697 -657l-697 -664h-880z" />
    <glyph glyph-name="clear" unicode="&#x2327;" 
d="M614 864l-274 277l-137 -142l274 -272l-274 -274l137 -138l274 275l275 -275l137 138l-274 274l274 272l-137 142zM-61 1378h1351q45 0 74 -28t29 -74v-1116q0 -45 -29 -74t-74 -29h-1351q-45 0 -74 29t-29 74v1116q0 46 29 74t74 28z" />
    <glyph glyph-name="uni2328" unicode="&#x2328;" 
d="M1096 457h-893q-17 -1 -29 -13t-12 -28v-152q0 -16 12 -28t29 -13h893q16 1 28 13t13 28v152q-1 16 -13 28t-28 13zM948 795h-151q-17 -1 -29 -13t-12 -28v-152q0 -16 12 -28t29 -13h151q16 0 29 12q12 12 12 29v152q-1 16 -13 28t-28 13zM596 795h-152q-16 -1 -28 -13
t-13 -28v-152q1 -16 13 -28t28 -13h152q16 0 29 12q12 12 12 29v152q-1 16 -13 28t-28 13zM244 795h-152q-16 -1 -28 -13t-13 -28v-152q0 -16 12 -28t29 -13h152q16 0 28 12t13 29v152q-1 16 -13 28t-28 13zM1278 1143h-193q-16 -1 -28 -13t-13 -28v-152q0 -16 12 -28
t29 -12t29 -13q12 -12 12 -29v-266q0 -16 12 -28t29 -13h111q16 0 29 12q12 12 12 29v500q-1 16 -13 28t-28 13zM866 1143h-151q-17 -1 -29 -13t-12 -28v-152q0 -16 12 -28t29 -13h151q16 1 28 13t13 28v152q-1 16 -13 28t-28 13zM514 1143h-152q-16 -1 -28 -13t-12 -28
v-152q0 -16 12 -28t28 -13h152q16 1 28 13t13 28v152q-1 16 -13 28t-28 13zM162 1143h-152q-16 -1 -28 -13t-13 -28v-152q1 -16 13 -28t28 -13h152q16 1 28 13t13 28v152q-1 16 -13 28t-28 13zM-51 1296h1392q47 0 75 -28t28 -74v-1014q0 -45 -28 -74t-75 -28h-1392
q-47 0 -75 28t-28 74v1014q0 46 28 74t75 28z" />
    <glyph glyph-name="uni232B" unicode="&#x232b;" 
d="M778 864l-274 277l-137 -142l274 -272l-274 -274l137 -138l274 275l275 -275l137 138l-275 274l275 272l-137 142zM1290 1378q45 0 74 -28t29 -74v-1116q0 -45 -29 -74t-74 -29h-880l-697 664l697 657h880z" />
    <glyph glyph-name="uni23CE" unicode="&#x23ce;" 
d="M852 1446v-641h-395v227l-387 -391l387 -391v227h739v969h-344zM862 1536h326q45 0 74 -29t28 -73v-945q0 -47 -28 -75t-74 -27h-639v-356l-610 610l610 612v-356h211v537q0 46 28 74t74 28z" />
    <glyph glyph-name="uni2500" unicode="&#x2500;" 
d="M1239 635h-1249v164h1249v-164z" />
    <glyph glyph-name="uni2501" unicode="&#x2501;" 
d="M1239 471h-1249v492h1249v-492z" />
    <glyph glyph-name="uni2502" unicode="&#x2502;" 
d="M696 -1024h-164v3072h164v-3072z" />
    <glyph glyph-name="uni2503" unicode="&#x2503;" 
d="M860 -1024h-491v3072h491v-3072z" />
    <glyph glyph-name="uni250C" unicode="&#x250c;" 
d="M1239 635h-543v-1659h-164v1823h707v-164z" />
    <glyph glyph-name="uni250D" unicode="&#x250d;" 
d="M1239 471h-543v-1495h-164v1987h707v-492z" />
    <glyph glyph-name="uni250E" unicode="&#x250e;" 
d="M1239 635h-379v-1659h-491v1823h870v-164z" />
    <glyph glyph-name="uni250F" unicode="&#x250f;" 
d="M1239 471h-379v-1495h-491v1987h870v-492z" />
    <glyph glyph-name="uni2510" unicode="&#x2510;" 
d="M696 -1024h-164v1659h-542v164h706v-1823z" />
    <glyph glyph-name="uni2511" unicode="&#x2511;" 
d="M696 -1024h-164v1495h-542v492h706v-1987z" />
    <glyph glyph-name="uni2512" unicode="&#x2512;" 
d="M860 -1024h-491v1659h-379v164h870v-1823z" />
    <glyph glyph-name="uni2513" unicode="&#x2513;" 
d="M860 -1024h-491v1495h-379v492h870v-1987z" />
    <glyph glyph-name="uni2514" unicode="&#x2514;" 
d="M696 799h543v-164h-707v1413h164v-1249z" />
    <glyph glyph-name="uni2515" unicode="&#x2515;" 
d="M696 963h543v-492h-707v1577h164v-1085z" />
    <glyph glyph-name="uni2516" unicode="&#x2516;" 
d="M860 799h379v-164h-870v1413h491v-1249z" />
    <glyph glyph-name="uni2517" unicode="&#x2517;" 
d="M860 963h379v-492h-870v1577h491v-1085z" />
    <glyph glyph-name="uni2518" unicode="&#x2518;" 
d="M696 635h-706v164h542v1249h164v-1413z" />
    <glyph glyph-name="uni2519" unicode="&#x2519;" 
d="M696 471h-706v492h542v1085h164v-1577z" />
    <glyph glyph-name="uni251A" unicode="&#x251a;" 
d="M860 635h-870v164h379v1249h491v-1413z" />
    <glyph glyph-name="uni251B" unicode="&#x251b;" 
d="M860 471h-870v492h379v1085h491v-1577z" />
    <glyph glyph-name="uni251C" unicode="&#x251c;" 
d="M696 799h543v-164h-543v-1659h-164v3072h164v-1249z" />
    <glyph glyph-name="uni251D" unicode="&#x251d;" 
d="M696 963h543v-492h-543v-1495h-164v3072h164v-1085z" />
    <glyph glyph-name="uni251E" unicode="&#x251e;" 
d="M860 799h379v-164h-543v-1659h-164v1659h-163v1413h491v-1249z" />
    <glyph glyph-name="uni251F" unicode="&#x251f;" 
d="M696 799h543v-164h-379v-1659h-491v1823h163v1249h164v-1249z" />
    <glyph glyph-name="uni2520" unicode="&#x2520;" 
d="M860 799h379v-164h-379v-1659h-491v3072h491v-1249z" />
    <glyph glyph-name="uni2521" unicode="&#x2521;" 
d="M860 963h379v-492h-543v-1495h-164v1495h-163v1577h491v-1085z" />
    <glyph glyph-name="uni2522" unicode="&#x2522;" 
d="M696 963h543v-492h-379v-1495h-491v1987h163v1085h164v-1085z" />
    <glyph glyph-name="uni2523" unicode="&#x2523;" 
d="M860 963h379v-492h-379v-1495h-491v3072h491v-1085z" />
    <glyph glyph-name="uni2524" unicode="&#x2524;" 
d="M696 -1024h-164v1659h-542v164h542v1249h164v-3072z" />
    <glyph glyph-name="uni2525" unicode="&#x2525;" 
d="M696 -1024h-164v1495h-542v492h542v1085h164v-3072z" />
    <glyph glyph-name="uni2526" unicode="&#x2526;" 
d="M860 635h-164v-1659h-164v1659h-542v164h379v1249h491v-1413z" />
    <glyph glyph-name="uni2527" unicode="&#x2527;" 
d="M696 799h164v-1823h-491v1659h-379v164h542v1249h164v-1249z" />
    <glyph glyph-name="uni2528" unicode="&#x2528;" 
d="M860 -1024h-491v1659h-379v164h379v1249h491v-3072z" />
    <glyph glyph-name="uni2529" unicode="&#x2529;" 
d="M860 471h-164v-1495h-164v1495h-542v492h379v1085h491v-1577z" />
    <glyph glyph-name="uni252A" unicode="&#x252a;" 
d="M696 963h164v-1987h-491v1495h-379v492h542v1085h164v-1085z" />
    <glyph glyph-name="uni252B" unicode="&#x252b;" 
d="M860 -1024h-491v1495h-379v492h379v1085h491v-3072z" />
    <glyph glyph-name="uni252C" unicode="&#x252c;" 
d="M1239 635h-543v-1659h-164v1659h-542v164h1249v-164z" />
    <glyph glyph-name="uni252D" unicode="&#x252d;" 
d="M696 799h543v-164h-543v-1659h-164v1495h-542v492h706v-164z" />
    <glyph glyph-name="uni252E" unicode="&#x252e;" 
d="M1239 471h-543v-1495h-164v1659h-542v164h542v164h707v-492z" />
    <glyph glyph-name="uni252F" unicode="&#x252f;" 
d="M1239 471h-543v-1495h-164v1495h-542v492h1249v-492z" />
    <glyph glyph-name="uni2530" unicode="&#x2530;" 
d="M1239 635h-379v-1659h-491v1659h-379v164h1249v-164z" />
    <glyph glyph-name="uni2531" unicode="&#x2531;" 
d="M860 799h379v-164h-379v-1659h-491v1495h-379v492h870v-164z" />
    <glyph glyph-name="uni2532" unicode="&#x2532;" 
d="M1239 471h-379v-1495h-491v1659h-379v164h379v164h870v-492z" />
    <glyph glyph-name="uni2533" unicode="&#x2533;" 
d="M1239 471h-379v-1495h-491v1495h-379v492h1249v-492z" />
    <glyph glyph-name="uni2534" unicode="&#x2534;" 
d="M696 799h543v-164h-1249v164h542v1249h164v-1249z" />
    <glyph glyph-name="uni2535" unicode="&#x2535;" 
d="M696 799h543v-164h-543v-164h-706v492h542v1085h164v-1249z" />
    <glyph glyph-name="uni2536" unicode="&#x2536;" 
d="M696 963h543v-492h-707v164h-542v164h542v1249h164v-1085z" />
    <glyph glyph-name="uni2537" unicode="&#x2537;" 
d="M696 963h543v-492h-1249v492h542v1085h164v-1085z" />
    <glyph glyph-name="uni2538" unicode="&#x2538;" 
d="M860 799h379v-164h-1249v164h379v1249h491v-1249z" />
    <glyph glyph-name="uni2539" unicode="&#x2539;" 
d="M860 799h379v-164h-379v-164h-870v492h379v1085h491v-1249z" />
    </font>
</defs>
</svg>
